<svg width="100%" height="100%" viewBox="0 0 18 18" fill="none" xmlns="http://www.w3.org/2000/svg">
<path d="M4.0127 9.9375C4.42691 9.9375 4.7627 10.2733 4.7627 10.6875V15.75C4.76257 16.1641 4.42683 16.5 4.0127 16.5C3.59856 16.5 3.26282 16.1641 3.2627 15.75V10.6875C3.2627 10.2733 3.59848 9.9375 4.0127 9.9375ZM9.0752 1.5C9.48941 1.5 9.8252 1.83579 9.8252 2.25V15.75C9.8252 16.1642 9.48941 16.5 9.0752 16.5C8.66098 16.5 8.3252 16.1642 8.3252 15.75V2.25C8.3252 1.83579 8.66098 1.5 9.0752 1.5ZM14.1377 6.5625C14.5519 6.5625 14.8877 6.89829 14.8877 7.3125V15.75C14.8877 16.1642 14.5519 16.5 14.1377 16.5C13.7235 16.5 13.3877 16.1642 13.3877 15.75V7.3125C13.3877 6.89829 13.7235 6.5625 14.1377 6.5625Z" fill="currentColor"/>
</svg>
