<svg width="100%" height="100%" viewBox="0 0 16 16" fill="none" xmlns="http://www.w3.org/2000/svg">
<path d="M7.99935 1.3335C9.8403 1.3335 11.3327 2.82588 11.3327 4.66683V6.66683C12.4373 6.66683 13.3327 7.56226 13.3327 8.66683V12.6668C13.3327 13.7714 12.4373 14.6668 11.3327 14.6668H4.66602C3.56145 14.6668 2.66602 13.7714 2.66602 12.6668V8.66683C2.66602 7.56226 3.56145 6.66683 4.66602 6.66683V4.66683C4.66602 2.82588 6.1584 1.3335 7.99935 1.3335ZM7.99935 9.3335C7.26297 9.3335 6.66602 9.93045 6.66602 10.6668C6.66602 11.4032 7.26297 12.0002 7.99935 12.0002C8.73573 12.0002 9.33268 11.4032 9.33268 10.6668C9.33268 9.93045 8.73573 9.3335 7.99935 9.3335ZM7.99935 2.66683C6.89478 2.66683 5.99935 3.56226 5.99935 4.66683V6.66683H9.99935V4.66683C9.99935 3.56226 9.10392 2.66683 7.99935 2.66683Z" fill="#CCCCCC"/>
</svg>
