<svg width="100%" height="100%" viewBox="0 0 13 13" fill="none" xmlns="http://www.w3.org/2000/svg">
<path d="M6.50033 1.0835C7.9961 1.0835 9.20866 2.29606 9.20866 3.79183C9.20866 4.09098 8.96615 4.3335 8.66699 4.3335C8.36784 4.3335 8.12533 4.09098 8.12533 3.79183C8.12533 2.89437 7.39779 2.16683 6.50033 2.16683C5.60286 2.16683 4.87533 2.89437 4.87533 3.79183V5.41683H9.20866C10.1061 5.41683 10.8337 6.14437 10.8337 7.04183V10.2918C10.8337 11.1893 10.1061 11.9168 9.20866 11.9168H3.79199C2.89453 11.9168 2.16699 11.1893 2.16699 10.2918V7.04183C2.16699 6.14437 2.89453 5.41683 3.79199 5.41683V3.79183C3.79199 2.29606 5.00455 1.0835 6.50033 1.0835ZM6.50033 7.5835C5.90202 7.5835 5.41699 8.06852 5.41699 8.66683C5.41699 9.26514 5.90202 9.75016 6.50033 9.75016C7.09863 9.75016 7.58366 9.26514 7.58366 8.66683C7.58366 8.06852 7.09863 7.5835 6.50033 7.5835Z" fill="white"/>
</svg>
