<svg width="100%" height="100%" viewBox="0 0 18 18" fill="none" xmlns="http://www.w3.org/2000/svg">
<path d="M14.25 1.49902C15.0784 1.49902 15.75 2.1706 15.75 2.99902V14.999C15.75 15.8274 15.0784 16.499 14.25 16.499H3.75C2.92157 16.499 2.25 15.8275 2.25 14.999V2.99902C2.25 2.1706 2.92157 1.49902 3.75 1.49902H14.25ZM3.75 14.999H14.25V2.99902H3.75V14.999ZM9 11.249C9.41421 11.249 9.75 11.5848 9.75 11.999C9.75 12.4132 9.41421 12.749 9 12.749H6C5.58579 12.749 5.25 12.4132 5.25 11.999C5.25 11.5848 5.58579 11.249 6 11.249H9ZM12 8.24902C12.4142 8.24902 12.75 8.58481 12.75 8.99902C12.75 9.41324 12.4142 9.74902 12 9.74902H6C5.58579 9.74902 5.25 9.41324 5.25 8.99902C5.25 8.58481 5.58579 8.24902 6 8.24902H12ZM12 5.24902C12.4142 5.24902 12.75 5.58481 12.75 5.99902C12.75 6.41324 12.4142 6.74902 12 6.74902H6C5.58579 6.74902 5.25 6.41324 5.25 5.99902C5.25 5.58481 5.58579 5.24902 6 5.24902H12Z" fill="currentColor"/>
</svg>
