<svg width="16" height="16" viewBox="0 0 16 16" fill="none" xmlns="http://www.w3.org/2000/svg">
<path d="M10.3806 10C9.84615 10 9.36032 9.89454 8.92308 9.68362C8.50202 9.47269 8.10526 9.23164 7.73279 8.96045C7.37652 8.68927 7.02024 8.44821 6.66397 8.23729C6.32389 8.02636 5.95951 7.9209 5.57085 7.9209C5.18219 7.9209 4.81781 8.04896 4.47773 8.30509C4.13765 8.54614 3.82186 8.92279 3.53036 9.43503L2 8.41808C2.55061 7.55932 3.1417 6.94162 3.77328 6.56497C4.40486 6.18832 5.02834 6 5.64372 6C6.19433 6 6.68016 6.113 7.10121 6.33898C7.52227 6.54991 7.91093 6.79096 8.26721 7.06215C8.63968 7.31827 8.99595 7.55179 9.33603 7.76271C9.69231 7.97363 10.0567 8.0791 10.4291 8.0791C10.8178 8.0791 11.1822 7.95857 11.5223 7.71751C11.8623 7.47646 12.1862 7.09228 12.4939 6.56497L14 7.62712C13.4494 8.47081 12.8583 9.08098 12.2267 9.45763C11.6113 9.81921 10.996 10 10.3806 10Z" fill="#928F99"/>
</svg>
