<svg width="24" height="24" viewBox="0 0 24 24" fill="none" xmlns="http://www.w3.org/2000/svg">
<path d="M18.9996 1.99902C20.1042 1.99902 20.9996 2.89445 20.9996 3.99902V19.999C20.9996 21.1036 20.1042 21.999 18.9996 21.999H4.99963C3.89506 21.999 2.99963 21.1036 2.99963 19.999V3.99902C2.99963 2.89445 3.89506 1.99902 4.99963 1.99902H18.9996ZM4.99963 19.999H18.9996V3.99902H4.99963V19.999ZM11.9996 14.999C12.5519 14.999 12.9996 15.4467 12.9996 15.999C12.9996 16.5513 12.5519 16.999 11.9996 16.999H7.99963C7.44735 16.999 6.99963 16.5513 6.99963 15.999C6.99963 15.4467 7.44735 14.999 7.99963 14.999H11.9996ZM15.9996 10.999C16.5519 10.999 16.9996 11.4467 16.9996 11.999C16.9996 12.5513 16.5519 12.999 15.9996 12.999H7.99963C7.44735 12.999 6.99963 12.5513 6.99963 11.999C6.99963 11.4467 7.44735 10.999 7.99963 10.999H15.9996ZM15.9996 6.99902C16.5519 6.99902 16.9996 7.44674 16.9996 7.99902C16.9996 8.55131 16.5519 8.99902 15.9996 8.99902H7.99963C7.44735 8.99902 6.99963 8.55131 6.99963 7.99902C6.99963 7.44674 7.44735 6.99902 7.99963 6.99902H15.9996Z" fill="black"/>
</svg>
