<svg width="24" height="24" viewBox="0 0 24 24" fill="none" xmlns="http://www.w3.org/2000/svg">
<path d="M19 2.2002C19.9941 2.2002 20.7998 3.00589 20.7998 4V20C20.7998 20.9941 19.9941 21.7998 19 21.7998H5C4.00589 21.7998 3.2002 20.9941 3.2002 20V4C3.2002 3.00589 4.00589 2.2002 5 2.2002H19ZM5 3.7998C4.88954 3.7998 4.7998 3.88954 4.7998 4V20C4.7998 20.1105 4.88954 20.2002 5 20.2002H19C19.1105 20.2002 19.2002 20.1105 19.2002 20V4C19.2002 3.88954 19.1105 3.7998 19 3.7998H5ZM12 15.2002C12.4418 15.2002 12.7998 15.5582 12.7998 16C12.7998 16.4418 12.4418 16.7998 12 16.7998H8C7.55817 16.7998 7.2002 16.4418 7.2002 16C7.2002 15.5582 7.55817 15.2002 8 15.2002H12ZM16 11.2002C16.4418 11.2002 16.7998 11.5582 16.7998 12C16.7998 12.4418 16.4418 12.7998 16 12.7998H8C7.55817 12.7998 7.2002 12.4418 7.2002 12C7.2002 11.5582 7.55817 11.2002 8 11.2002H16ZM16 7.2002C16.4418 7.2002 16.7998 7.55817 16.7998 8C16.7998 8.44183 16.4418 8.7998 16 8.7998H8C7.55817 8.7998 7.2002 8.44183 7.2002 8C7.2002 7.55817 7.55817 7.2002 8 7.2002H16Z" fill="black"/>
</svg>
