<svg width="24" height="24" viewBox="0 0 24 24" fill="none" xmlns="http://www.w3.org/2000/svg">
<path d="M11.9999 1.99902C13.591 1.99904 15.1219 2.60293 16.2997 3.6875C17.4768 4.77147 18.2187 6.25889 18.3915 7.8623L18.6367 10.1279L18.6376 10.1338L18.6425 10.1816L18.6933 10.5498C18.8337 11.4049 19.1273 12.2257 19.5585 12.9707H19.5576L19.5859 13.0186L20.1454 13.9805C20.3898 14.3989 20.6125 14.7774 20.7587 15.0967C20.903 15.4119 21.0537 15.8327 20.9804 16.3076C20.9082 16.7767 20.6732 17.2095 20.3105 17.5225C19.9386 17.8432 19.4933 17.9293 19.1513 17.9648C18.8057 18.0007 18.3721 17.999 17.8993 17.999H16.8984C16.7036 18.9523 16.2334 19.8358 15.5351 20.5342C14.5974 21.4718 13.326 21.999 11.9999 21.999C10.6739 21.999 9.40245 21.4718 8.46478 20.5342C7.76644 19.8358 7.29626 18.9523 7.10149 17.999H6.10149C5.62815 17.999 5.19389 18.0005 4.84856 17.9648C4.5078 17.9296 4.06285 17.8442 3.69134 17.5244L3.56048 17.4014C3.27033 17.102 3.08165 16.7183 3.01849 16.3066V16.3047C2.94675 15.831 3.09711 15.4113 3.24114 15.0967C3.38713 14.7778 3.6086 14.3998 3.85247 13.9814L3.85345 13.9805L4.41595 13.0166L4.44524 12.9678C4.93678 12.1172 5.24831 11.1676 5.35833 10.1816L5.36321 10.1338V10.1279L5.60833 7.8623C5.78112 6.25887 6.52398 4.77148 7.7011 3.6875C8.87884 2.6031 10.409 1.99912 11.9999 1.99902ZM9.17571 17.999C9.32358 18.4163 9.55979 18.8011 9.87884 19.1201C10.4414 19.6827 11.2043 19.999 11.9999 19.999C12.7956 19.999 13.5584 19.6827 14.121 19.1201C14.4401 18.8011 14.6763 18.4163 14.8242 17.999H9.17571ZM11.9999 3.99902C10.9179 3.99912 9.86938 4.40981 9.0556 5.15918C8.24111 5.90927 7.7184 6.94676 7.59661 8.07617V8.07715L7.35247 10.3428L7.35149 10.3418L7.34661 10.3945L7.34563 10.4033C7.20506 11.6631 6.80659 12.8794 6.17474 13.9717L6.17278 13.9746L6.14349 14.0254L5.58001 14.9873L5.58099 14.9883C5.31554 15.4437 5.1546 15.7219 5.0595 15.9297C5.05248 15.945 5.04748 15.9597 5.04192 15.9727C5.04608 15.9731 5.05024 15.9751 5.05462 15.9756C5.27265 15.9981 5.58332 15.999 6.10149 15.999H17.8993C18.4167 15.999 18.7265 15.9981 18.9443 15.9756C18.9485 15.9751 18.953 15.9731 18.957 15.9727C18.9515 15.9598 18.9473 15.9449 18.9404 15.9297C18.8455 15.7223 18.6848 15.4446 18.4189 14.9893V14.9883L17.8574 14.0254L17.829 13.9756L17.8271 13.9736C17.1946 12.881 16.796 11.6638 16.6552 10.4033L16.6533 10.3945V10.3936L16.6484 10.3418V10.3428L16.4033 8.07715V8.07617C16.2815 6.94687 15.7596 5.90924 14.9452 5.15918C14.1314 4.40971 13.0821 3.99904 11.9999 3.99902Z" fill="currentColor"/>
</svg>
