<svg width="24" height="24" viewBox="0 0 24 24" fill="none" xmlns="http://www.w3.org/2000/svg">
<path d="M12.0004 2.19922C13.5406 2.19931 15.0241 2.78389 16.1655 3.83496C17.306 4.88552 18.0261 6.328 18.1938 7.88379L18.4389 10.1494V10.1543L18.4438 10.2031C18.557 11.2171 18.878 12.1943 19.3842 13.0693L19.4135 13.1191L19.975 14.082H19.9741C20.2206 14.5042 20.4366 14.8726 20.5776 15.1807C20.717 15.4854 20.8478 15.8617 20.7836 16.2773C20.7185 16.7001 20.5061 17.0897 20.1801 17.3711C19.8557 17.6509 19.4611 17.7313 19.1313 17.7656C18.7986 17.8002 18.377 17.7988 17.8998 17.7988H16.7319C16.567 18.7751 16.1042 19.6842 15.395 20.3936C14.4949 21.2936 13.2733 21.7987 12.0004 21.7988C10.7275 21.7988 9.50605 21.2936 8.6059 20.3936C7.89651 19.6842 7.43284 18.7752 7.268 17.7988H6.10199C5.62452 17.7988 5.20302 17.7999 4.87054 17.7656C4.58262 17.7359 4.24404 17.6707 3.94671 17.4678L3.82171 17.3721C3.49465 17.0904 3.28227 16.7002 3.21722 16.2764L3.21624 16.2754C3.15335 15.8607 3.284 15.485 3.42327 15.1807C3.56418 14.8729 3.77974 14.5042 4.02581 14.082H4.02679L4.58929 13.1182L4.61663 13.0703C5.05974 12.3043 5.36117 11.4605 5.50531 10.582L5.55707 10.2041L5.56292 10.1543V10.1494L5.80804 7.88379C5.97572 6.32787 6.69565 4.88553 7.83636 3.83496C8.97772 2.784 10.4604 2.19931 12.0004 2.19922ZM8.90179 17.7988C9.04358 18.3477 9.33007 18.8541 9.73773 19.2617C10.3378 19.8617 11.1518 20.1992 12.0004 20.1992C12.849 20.1991 13.6631 19.8617 14.2631 19.2617C14.6707 18.8541 14.9563 18.3476 15.0981 17.7988H8.90179ZM12.0004 3.79883C10.8676 3.79892 9.77051 4.22892 8.92035 5.01172C8.06964 5.79516 7.52579 6.87794 7.39886 8.05469V8.05566L7.15375 10.3213L7.15277 10.3203L7.14789 10.374V10.3809C7.01037 11.6135 6.6194 12.8038 6.0014 13.8721L6.00042 13.874L5.97113 13.9238V13.9248L5.40863 14.8887C5.14567 15.3398 4.97854 15.6269 4.87835 15.8457C4.82613 15.9598 4.80791 16.0216 4.80218 16.0469C4.81051 16.0855 4.82834 16.1176 4.85101 16.1426C4.87626 16.1499 4.93188 16.1632 5.0346 16.1738C5.26534 16.1976 5.58851 16.1992 6.10199 16.1992H17.8998C18.4129 16.1992 18.7358 16.1978 18.9663 16.1738C19.0669 16.1633 19.1221 16.15 19.1479 16.1426C19.1711 16.1173 19.1893 16.0852 19.1977 16.0459C19.192 16.0209 19.1744 15.9591 19.1225 15.8457C19.0224 15.6272 18.8557 15.3399 18.5922 14.8887V14.8877L18.0307 13.9248L18.0024 13.875L18.0004 13.873C17.3819 12.8045 16.9917 11.614 16.8539 10.3809L16.853 10.374L16.8471 10.3164V10.3154L16.603 8.05566V8.05469C16.4761 6.87807 15.932 5.79515 15.0815 5.01172C14.2313 4.2288 13.1334 3.79892 12.0004 3.79883Z" fill="currentColor"/>
</svg>
