<svg width="24" height="24" viewBox="0 0 24 24" fill="none" xmlns="http://www.w3.org/2000/svg">
<path fill-rule="evenodd" clip-rule="evenodd" d="M21.1151 17.4998C21.168 17.499 21.2198 17.4938 21.2704 17.4851C21.3115 17.4781 21.3523 17.469 21.3925 17.4568C21.412 17.4509 21.431 17.4434 21.4501 17.4363C21.4598 17.4327 21.4697 17.4295 21.4794 17.4256C21.4949 17.4192 21.5101 17.4122 21.5253 17.4051C21.57 17.3841 21.6133 17.3597 21.6551 17.3318C21.6927 17.3067 21.7279 17.2786 21.7616 17.2488C21.7772 17.235 21.7935 17.2217 21.8085 17.2068C21.8237 17.1915 21.8374 17.175 21.8514 17.159C21.8819 17.1243 21.9109 17.0883 21.9364 17.0496C22.0496 16.878 22.1041 16.6792 22.1005 16.4812V11.1004C22.1005 10.5481 21.6527 10.1004 21.1005 10.1004C20.5486 10.1008 20.1005 10.5484 20.1005 11.1004V14.0847L14.1581 8.14236C13.9706 7.95508 13.716 7.8504 13.451 7.85037C13.186 7.85041 12.9315 7.95502 12.744 8.14236L8.95105 11.9353L3.80847 6.79275C3.41799 6.40238 2.78491 6.40242 2.39441 6.79275C2.00391 7.18324 2.00398 7.81628 2.39441 8.20681L8.24402 14.0574C8.43147 14.2448 8.68601 14.3493 8.95105 14.3494C9.21603 14.3494 9.47061 14.2447 9.65808 14.0574L13.451 10.2644L18.6874 15.4998H15.701C15.1489 15.5 14.701 15.9476 14.701 16.4998C14.701 17.0519 15.1489 17.4996 15.701 17.4998C15.8998 17.6984 20.8547 17.5033 21.1151 17.4998Z" fill="#A8A0FF"/>
</svg>
