<svg width="24" height="24" viewBox="0 0 24 24" fill="none" xmlns="http://www.w3.org/2000/svg">
<path d="M16.58 3.80566C17.0326 3.8375 17.472 3.97863 17.8593 4.21875C18.3009 4.49265 18.6577 4.88457 18.8895 5.34961L21.995 11.5508C21.9986 11.558 22.0004 11.566 22.0038 11.5732C22.014 11.5948 22.0244 11.6163 22.0331 11.6387C22.0379 11.6513 22.0424 11.664 22.0468 11.6768C22.0534 11.6963 22.0589 11.7162 22.0643 11.7363C22.0686 11.7522 22.0725 11.7681 22.076 11.7842C22.0911 11.8532 22.1004 11.9245 22.1005 11.998V17.3984C22.1004 18.1409 21.8052 18.8539 21.2802 19.3789C20.7551 19.9037 20.043 20.1992 19.3007 20.1992H4.90027C4.15793 20.1992 3.44579 19.9037 2.92078 19.3789C2.39578 18.8539 2.10058 18.1409 2.10046 17.3984V11.998C2.10048 11.9246 2.10886 11.8531 2.1239 11.7842C2.1274 11.7681 2.13134 11.7522 2.13562 11.7363C2.14108 11.7162 2.1475 11.6964 2.15417 11.6768C2.15846 11.6641 2.16207 11.6512 2.16687 11.6387C2.1755 11.6163 2.18601 11.5948 2.19617 11.5732C2.19963 11.5659 2.20228 11.5581 2.20593 11.5508L5.3114 5.34961C5.54322 4.88457 5.90006 4.49265 6.34167 4.21875C6.78435 3.94427 7.29541 3.7991 7.81628 3.79883H16.3846L16.58 3.80566ZM4.10046 17.3984C4.10058 17.6105 4.18491 17.8149 4.33484 17.9648C4.48478 18.1146 4.68836 18.1992 4.90027 18.1992H19.3007C19.5126 18.1992 19.7161 18.1146 19.8661 17.9648C20.016 17.8149 20.1004 17.6105 20.1005 17.3984V12.998H16.2352L14.7323 15.2529C14.5468 15.531 14.2345 15.6982 13.9003 15.6982H10.3007C9.9664 15.6982 9.65411 15.531 9.46863 15.2529L7.9657 12.998H4.10046V17.3984ZM7.70593 5.80664C7.5963 5.82208 7.49016 5.86017 7.39539 5.91895C7.26913 5.99737 7.16758 6.11006 7.10144 6.24316L7.09949 6.24512L4.7196 10.998H8.50085L8.62488 11.0059C8.91099 11.0417 9.17065 11.2001 9.33289 11.4434L10.8358 13.6982H13.3651L14.868 11.4434C15.0534 11.1654 15.3659 10.9982 15.7001 10.998H19.4813L17.1014 6.24512L17.0995 6.24316C17.0333 6.11005 16.9318 5.99737 16.8055 5.91895C16.7108 5.86017 16.6046 5.82208 16.495 5.80664L16.3837 5.79883H7.81726L7.70593 5.80664Z" fill="black"/>
</svg>
