<svg width="24" height="24" viewBox="0 0 24 24" fill="none" xmlns="http://www.w3.org/2000/svg">
<path d="M16 2.6001C16.4418 2.6001 16.7998 2.95807 16.7998 3.3999V4.3999H18L18.1543 4.40381C19.7394 4.48412 21 5.7948 21 7.3999V18.3999C21 20.005 19.7394 21.3157 18.1543 21.396L18 21.3999H6C4.39489 21.3999 3.08421 20.1393 3.00391 18.5542L3 18.3999V7.3999C3 5.74305 4.34315 4.3999 6 4.3999H7.2002V3.3999C7.2002 2.95807 7.55817 2.6001 8 2.6001C8.44183 2.6001 8.7998 2.95807 8.7998 3.3999V4.3999H15.2002V3.3999C15.2002 2.95807 15.5582 2.6001 16 2.6001ZM4.59961 18.3999C4.59961 19.1731 5.2268 19.8003 6 19.8003H18C18.7732 19.8003 19.4004 19.1731 19.4004 18.3999V12.1997H4.59961V18.3999ZM6 5.99951C5.2268 5.99951 4.59961 6.6267 4.59961 7.3999V10.6001H19.4004V7.3999C19.4004 6.6267 18.7732 5.99951 18 5.99951H16.7998V7.3999C16.7998 7.84173 16.4418 8.19971 16 8.19971C15.5582 8.19971 15.2002 7.84173 15.2002 7.3999V5.99951H8.7998V7.3999C8.7998 7.84173 8.44183 8.19971 8 8.19971C7.55817 8.19971 7.2002 7.84173 7.2002 7.3999V5.99951H6Z" fill="black"/>
</svg>
