<svg width="24" height="24" viewBox="0 0 24 24" fill="none" xmlns="http://www.w3.org/2000/svg">
<path d="M15.9996 2.49902C16.5519 2.49902 16.9996 2.94674 16.9996 3.49902V4.49902H18.2223C19.6945 4.49925 20.9996 5.63359 20.9996 7.16602V18.832C20.9996 20.3645 19.6945 21.4988 18.2223 21.499H5.77698C4.30481 21.4988 2.99963 20.3645 2.99963 18.832V7.16602C2.99963 5.63359 4.30481 4.49925 5.77698 4.49902H6.99963V3.49902C6.99963 2.94674 7.44735 2.49902 7.99963 2.49902C8.55192 2.49902 8.99963 2.94674 8.99963 3.49902V4.49902H14.9996V3.49902C14.9996 2.94674 15.4473 2.49902 15.9996 2.49902ZM4.99963 12.499V18.832C4.99963 19.1403 5.28591 19.4988 5.77698 19.499H18.2223C18.7134 19.4988 18.9996 19.1403 18.9996 18.832V12.499H4.99963ZM5.77698 6.49902C5.28591 6.49923 4.99963 6.85773 4.99963 7.16602V10.499H18.9996V7.16602C18.9996 6.85773 18.7134 6.49923 18.2223 6.49902H16.9996V7.49902C16.9996 8.05131 16.5519 8.49902 15.9996 8.49902C15.4473 8.49902 14.9996 8.05131 14.9996 7.49902V6.49902H8.99963V7.49902C8.99963 8.05131 8.55192 8.49902 7.99963 8.49902C7.44735 8.49902 6.99963 8.05131 6.99963 7.49902V6.49902H5.77698Z" fill="#121212"/>
</svg>
