<svg width="20" height="20" viewBox="0 0 20 20" fill="none" xmlns="http://www.w3.org/2000/svg">
<path fill-rule="evenodd" clip-rule="evenodd" d="M8.14866 17.4981H11.852C14.4528 17.4981 15.7537 17.4981 16.6878 16.8856C17.091 16.6215 17.4382 16.2806 17.7095 15.8823C18.3337 14.9656 18.3337 13.6881 18.3337 11.1348C18.3337 8.58142 18.3337 7.30392 17.7095 6.38725C17.4382 5.98891 17.091 5.64797 16.6878 5.38392C16.0878 4.98975 15.3362 4.84892 14.1853 4.79892C13.6362 4.79892 13.1637 4.39059 13.0562 3.86142C12.974 3.47381 12.7606 3.12645 12.4519 2.87804C12.1432 2.62964 11.7582 2.49543 11.362 2.49809H8.63866C7.81533 2.49809 7.10616 3.06892 6.94449 3.86142C6.83699 4.39059 6.36449 4.79892 5.81533 4.79892C4.66533 4.84892 3.91366 4.99059 3.31283 5.38392C2.90994 5.64805 2.56305 5.98899 2.29199 6.38725C1.66699 7.30392 1.66699 8.58059 1.66699 11.1348C1.66699 13.6889 1.66699 14.9648 2.29116 15.8823C2.56116 16.2789 2.90783 16.6198 3.31283 16.8856C4.24699 17.4981 5.54783 17.4981 8.14866 17.4981ZM10.0003 7.72559C8.08283 7.72559 6.52783 9.25142 6.52783 11.1339C6.52783 13.0164 8.08366 14.5448 10.0003 14.5448C11.917 14.5448 13.4728 13.0181 13.4728 11.1356C13.4728 9.25309 11.917 7.72559 10.0003 7.72559ZM10.0003 9.08892C8.85033 9.08892 7.91699 10.0048 7.91699 11.1348C7.91699 12.2639 8.85033 13.1798 10.0003 13.1798C11.1503 13.1798 12.0837 12.2639 12.0837 11.1348C12.0837 10.0056 11.1503 9.08892 10.0003 9.08892ZM13.9353 8.40725C13.9353 8.03059 14.2462 7.72559 14.6303 7.72559H15.5553C15.9387 7.72559 16.2503 8.03059 16.2503 8.40725C16.2486 8.58967 16.1745 8.76392 16.0443 8.89174C15.9141 9.01955 15.7386 9.09047 15.5562 9.08892H14.6303C14.5399 9.0898 14.4502 9.07287 14.3664 9.03908C14.2826 9.0053 14.2062 8.95533 14.1416 8.89203C14.0771 8.82873 14.0257 8.75334 13.9903 8.67016C13.9549 8.58699 13.9362 8.49765 13.9353 8.40725Z" fill="#928F99"/>
</svg>
