<svg width="24" height="24" viewBox="0 0 24 24" fill="none" xmlns="http://www.w3.org/2000/svg">
<path d="M5.35065 13.2495C5.90293 13.2495 6.35065 13.6972 6.35065 14.2495V20.9995C6.35048 21.5517 5.90283 21.9995 5.35065 21.9995C4.79846 21.9995 4.35081 21.5517 4.35065 20.9995V14.2495C4.35065 13.6972 4.79836 13.2495 5.35065 13.2495ZM12.1006 1.99951C12.6529 1.99951 13.1006 2.44723 13.1006 2.99951V20.9995C13.1006 21.5518 12.6529 21.9995 12.1006 21.9995C11.5484 21.9995 11.1006 21.5518 11.1006 20.9995V2.99951C11.1006 2.44723 11.5484 1.99951 12.1006 1.99951ZM18.8506 8.74951C19.4029 8.74951 19.8506 9.19723 19.8506 9.74951V20.9995C19.8506 21.5518 19.4029 21.9995 18.8506 21.9995C18.2984 21.9995 17.8506 21.5518 17.8506 20.9995V9.74951C17.8506 9.19723 18.2984 8.74951 18.8506 8.74951Z" fill="black"/>
</svg>
