<svg width="24" height="24" viewBox="0 0 24 24" fill="none" xmlns="http://www.w3.org/2000/svg">
<path d="M19.152 3.46904C19.4449 3.00118 20.0618 2.85907 20.5299 3.15165C20.9977 3.44446 21.1397 4.06147 20.8473 4.52958L10.8473 20.5296C10.8422 20.5378 10.8351 20.545 10.8298 20.553C10.8193 20.5688 10.809 20.5847 10.7975 20.5999C10.7864 20.6148 10.7743 20.6288 10.7624 20.6429C10.7549 20.6517 10.7477 20.6607 10.7399 20.6692C10.7231 20.6878 10.7061 20.7059 10.6882 20.723C10.683 20.7279 10.6778 20.7328 10.6725 20.7376C10.654 20.7545 10.6345 20.7701 10.6149 20.7855C10.6095 20.7897 10.6048 20.795 10.5993 20.7991C10.5958 20.8018 10.5911 20.8034 10.5876 20.806C10.5737 20.8161 10.5599 20.8259 10.5456 20.8353C10.5305 20.8452 10.5152 20.8546 10.4997 20.8636C10.4539 20.89 10.4062 20.9122 10.3571 20.931C10.3469 20.9349 10.3372 20.9401 10.3268 20.9437C10.3156 20.9475 10.304 20.9499 10.2927 20.9534C10.2712 20.96 10.2499 20.9669 10.2282 20.972C10.2166 20.9747 10.2048 20.9765 10.1931 20.9788C10.1732 20.9827 10.1535 20.9869 10.1335 20.9896C10.1264 20.9905 10.1191 20.9907 10.112 20.9915C10.0557 20.9979 9.99929 21.0006 9.94305 20.9974C9.89335 20.9946 9.84391 20.9872 9.79462 20.9769C9.78023 20.9739 9.7659 20.9707 9.75165 20.9671C9.73422 20.9626 9.71716 20.9569 9.69989 20.9515C9.68888 20.948 9.67758 20.9455 9.66669 20.9417C9.64298 20.9333 9.61965 20.9237 9.59637 20.9134C9.58851 20.9099 9.58073 20.9063 9.57294 20.9026C9.55942 20.8962 9.54623 20.8892 9.5329 20.8821C9.51385 20.8721 9.4947 20.8622 9.47626 20.8509C9.47402 20.8495 9.47165 20.8484 9.46942 20.847C9.46398 20.8436 9.45915 20.8388 9.4538 20.8353C9.43425 20.8225 9.41492 20.8094 9.39618 20.7952C9.38632 20.7878 9.3764 20.7805 9.36688 20.7728C9.35123 20.7599 9.33596 20.7466 9.32098 20.7327C9.30584 20.7187 9.29116 20.7045 9.27704 20.6898C9.27117 20.6836 9.2652 20.6775 9.25946 20.6712C9.22836 20.637 9.19923 20.6014 9.17352 20.5638L3.19991 12.5989C2.86868 12.1571 2.95833 11.5308 3.40011 11.1995C3.84191 10.8685 4.46826 10.958 4.79952 11.3997L9.9245 18.2327L19.152 3.46904Z" fill="currentColor"/>
</svg>
