<svg width="24" height="24" viewBox="0 0 24 24" fill="none" xmlns="http://www.w3.org/2000/svg">
<path d="M10.5883 7.32031C10.9747 7.32531 11.3503 7.43906 11.6752 7.64648L20.0521 12.9893L20.0531 12.9902C21.6924 14.0368 21.2322 16.7068 19.222 16.9854H19.2211L15.2552 17.5332C15.1305 17.5505 15.0087 17.6206 14.9222 17.7383L12.4847 21.0557V21.0566C11.2337 22.7583 8.73551 21.7761 8.68982 19.7988L8.45154 9.54297L8.45251 9.54199C8.44361 9.15962 8.53235 8.77992 8.71326 8.44238C8.89464 8.10415 9.16283 7.8183 9.49255 7.61914C9.82271 7.41977 10.2017 7.31537 10.5883 7.32031ZM10.5677 8.91992C10.4833 8.91884 10.3975 8.94134 10.3197 8.98828C10.2416 9.03545 10.1724 9.10696 10.1234 9.19824C10.0745 9.28961 10.0486 9.39578 10.0511 9.50488V9.50586L10.2894 19.7617C10.2962 20.0542 10.4621 20.2283 10.6517 20.293C10.837 20.3562 11.0409 20.3175 11.1947 20.1084L13.6322 16.791C13.9675 16.3346 14.4708 16.0267 15.0345 15.9482H15.0355L19.0023 15.4004L19.0824 15.3828C19.2626 15.3283 19.3936 15.1785 19.4379 14.959C19.4887 14.7069 19.4003 14.4719 19.1918 14.3389L10.8148 8.99512H10.8138C10.7369 8.9461 10.6521 8.92104 10.5677 8.91992ZM6.25134 8.32031C6.69317 8.32031 7.05115 8.67829 7.05115 9.12012C7.05115 9.56194 6.69317 9.91992 6.25134 9.91992H3.75134C3.30951 9.91992 2.95154 9.56194 2.95154 9.12012C2.95154 8.67829 3.30951 8.32031 3.75134 8.32031H6.25134ZM4.68591 4.05469C4.99826 3.74234 5.50432 3.74241 5.81677 4.05469L7.58533 5.82129C7.8976 6.13364 7.89758 6.6407 7.58533 6.95312C7.27298 7.26546 6.76594 7.2654 6.45349 6.95312L4.68591 5.18555C4.37357 4.8732 4.37364 4.36714 4.68591 4.05469ZM13.8685 3.55469C14.181 3.24236 14.688 3.24218 15.0004 3.55469C15.3124 3.86706 15.3124 4.37322 15.0004 4.68555L13.2318 6.45312C12.9194 6.76519 12.4133 6.76513 12.101 6.45312C11.7886 6.14062 11.7884 5.63362 12.101 5.32129L13.8685 3.55469ZM9.43396 2.07031C9.87579 2.07031 10.2347 2.42829 10.2347 2.87012V5.37012C10.2347 5.81194 9.87579 6.16992 9.43396 6.16992C8.99231 6.16971 8.63416 5.81181 8.63416 5.37012V2.87012C8.63416 2.42842 8.99231 2.07053 9.43396 2.07031Z" fill="currentColor"/>
</svg>
