<svg width="24" height="24" viewBox="0 0 24 24" fill="none" xmlns="http://www.w3.org/2000/svg">
<path d="M10.5907 7.11914C11.0149 7.12456 11.4272 7.24943 11.7831 7.47656L20.161 12.8203L20.3212 12.9326C21.9143 14.1402 21.3878 16.8864 19.2499 17.1826H19.2489L15.2821 17.7295L15.2831 17.7305C15.2133 17.7402 15.1392 17.7801 15.0839 17.8555L12.6464 21.1738C11.271 23.0448 8.53993 21.9513 8.49011 19.8027L8.25281 9.54688L8.25378 9.5459C8.24403 9.12913 8.34038 8.71516 8.53796 8.34668C8.73586 7.97765 9.02845 7.66542 9.38953 7.44727C9.75114 7.2289 10.1665 7.11378 10.5907 7.11914ZM10.5653 9.11914C10.5186 9.11857 10.4699 9.13129 10.4237 9.15918C10.3771 9.18735 10.333 9.23165 10.3007 9.29199C10.2682 9.35253 10.2501 9.42416 10.2518 9.49902V9.5L10.4901 19.7559C10.4928 19.8715 10.527 19.9444 10.5624 19.9912C10.6012 20.0426 10.6554 20.0816 10.7167 20.1025C10.7779 20.1234 10.835 20.1234 10.8798 20.1104C10.9179 20.0992 10.9735 20.0715 11.0341 19.9893L13.4716 16.6709C13.8381 16.1721 14.39 15.835 15.0087 15.749L18.9755 15.2012L19.0643 15.1758C19.148 15.1365 19.2145 15.055 19.2421 14.9189C19.2791 14.7354 19.2137 14.5881 19.0848 14.5059L10.7079 9.16309H10.7069C10.6609 9.13369 10.6121 9.11974 10.5653 9.11914ZM6.25183 8.11914C6.80412 8.11914 7.25183 8.56686 7.25183 9.11914C7.25183 9.67143 6.80412 10.1191 6.25183 10.1191H3.75183C3.19955 10.1191 2.75183 9.67143 2.75183 9.11914C2.75183 8.56686 3.19955 8.11914 3.75183 8.11914H6.25183ZM4.5448 3.91211C4.93523 3.52167 5.56829 3.52176 5.95886 3.91211L7.72644 5.67871C8.11698 6.06903 8.11755 6.70212 7.72742 7.09277C7.33712 7.48329 6.70402 7.4838 6.31335 7.09375L4.5448 5.32617C4.15436 4.93574 4.15445 4.30268 4.5448 3.91211ZM13.7284 3.41211C14.119 3.02179 14.7521 3.0215 15.1425 3.41211C15.5328 3.80275 15.5321 4.43579 15.1415 4.82617L13.3739 6.59375C12.9833 6.98408 12.3502 6.98337 11.9598 6.59277C11.5694 6.20214 11.5692 5.56912 11.9598 5.17871L13.7284 3.41211ZM9.43445 1.86914C9.98673 1.86914 10.4344 2.31686 10.4344 2.86914V5.36914C10.4344 5.92143 9.98673 6.36914 9.43445 6.36914C8.88234 6.36893 8.43445 5.92129 8.43445 5.36914V2.86914C8.43445 2.31699 8.88234 1.86935 9.43445 1.86914Z" fill="currentColor"/>
</svg>
