<svg width="24" height="24" viewBox="0 0 24 24" fill="none" xmlns="http://www.w3.org/2000/svg">
<path d="M12 2.2002C17.4124 2.2002 21.7998 6.58761 21.7998 12C21.7998 17.4124 17.4124 21.7998 12 21.7998C6.58761 21.7998 2.2002 17.4124 2.2002 12C2.2002 6.58761 6.58761 2.2002 12 2.2002ZM12 3.7998C7.47126 3.7998 3.7998 7.47126 3.7998 12C3.7998 16.5287 7.47126 20.2002 12 20.2002C16.5287 20.2002 20.2002 16.5287 20.2002 12C20.2002 7.47126 16.5287 3.7998 12 3.7998ZM12 6.2002C12.4418 6.2002 12.7998 6.55817 12.7998 7V11.3867L17.0371 12.5225C17.4639 12.6368 17.7169 13.0752 17.6025 13.502C17.4882 13.9287 17.0498 14.1817 16.623 14.0674L11.793 12.7734C11.7846 12.7712 11.7768 12.7671 11.7686 12.7646C11.7603 12.7622 11.7522 12.7596 11.7441 12.7568C11.7303 12.7522 11.7166 12.7476 11.7031 12.7422C11.6916 12.7376 11.6802 12.7327 11.6689 12.7275C11.6287 12.7092 11.5906 12.6882 11.5547 12.6641C11.5522 12.6624 11.5503 12.6599 11.5479 12.6582C11.5134 12.6345 11.4802 12.6095 11.4502 12.5811L11.4346 12.5654C11.4331 12.564 11.4321 12.562 11.4307 12.5605C11.4066 12.536 11.3859 12.5088 11.3652 12.4814C11.3473 12.4578 11.3287 12.4347 11.3135 12.4092C11.3102 12.4037 11.3069 12.3982 11.3037 12.3926C11.2711 12.3348 11.2461 12.2726 11.2285 12.207C11.2256 12.196 11.2222 12.185 11.2197 12.1738C11.2169 12.1612 11.2141 12.1486 11.2119 12.1357C11.2099 12.1238 11.2085 12.1117 11.207 12.0996C11.2049 12.0825 11.2032 12.0653 11.2021 12.0479C11.2017 12.0394 11.2014 12.0309 11.2012 12.0225C11.201 12.015 11.2002 12.0075 11.2002 12V7C11.2002 6.55817 11.5582 6.2002 12 6.2002Z" fill="currentColor"/>
</svg>
