<svg width="24" height="24" viewBox="0 0 24 24" fill="none" xmlns="http://www.w3.org/2000/svg">
<path d="M12 2C17.5228 2 22 6.47715 22 12C22 17.5228 17.5228 22 12 22C6.47715 22 2 17.5228 2 12C2 6.47715 6.47715 2 12 2ZM12 4C7.58172 4 4 7.58172 4 12C4 16.4183 7.58172 20 12 20C16.4183 20 20 16.4183 20 12C20 7.58172 16.4183 4 12 4ZM12 6C12.5523 6 13 6.44772 13 7V11.2334L17.0889 12.3291C17.6223 12.472 17.9388 13.0202 17.7959 13.5537C17.653 14.0872 17.1048 14.4037 16.5713 14.2607L11.7412 12.9668C11.7322 12.9644 11.7237 12.9606 11.7148 12.958C11.7024 12.9543 11.69 12.9505 11.6777 12.9463C11.6609 12.9405 11.6443 12.9343 11.6279 12.9277C11.6125 12.9215 11.5971 12.9152 11.582 12.9082C11.5333 12.8858 11.4869 12.8603 11.4434 12.8311C11.4374 12.827 11.4317 12.8225 11.4258 12.8184C11.3802 12.7863 11.338 12.7506 11.2988 12.7119C11.2919 12.7051 11.285 12.6984 11.2783 12.6914C11.262 12.6743 11.2464 12.6568 11.2314 12.6387C11.2263 12.6325 11.2208 12.6265 11.2158 12.6201C11.2028 12.6036 11.1906 12.5866 11.1787 12.5693C11.1664 12.5515 11.1548 12.5333 11.1436 12.5146C11.1383 12.5059 11.1329 12.4972 11.1279 12.4883C11.101 12.4403 11.0774 12.3903 11.0586 12.3379C11.0563 12.3314 11.054 12.3249 11.0518 12.3184C11.0457 12.3004 11.0411 12.282 11.0361 12.2637C11.0316 12.2472 11.0271 12.2306 11.0234 12.2139C11.0202 12.199 11.0172 12.184 11.0146 12.1689C11.0122 12.1547 11.0096 12.1404 11.0078 12.126C11.0052 12.1054 11.0042 12.0845 11.0029 12.0635C11.0021 12.0502 11.0013 12.0368 11.001 12.0234C11.0008 12.0156 11 12.0078 11 12V7C11 6.44772 11.4477 6 12 6Z" fill="black"/>
</svg>
