<svg width="24" height="24" viewBox="0 0 24 24" fill="none" xmlns="http://www.w3.org/2000/svg">
<path d="M19.2002 7.55518C19.2002 7.39189 19.1264 7.20962 18.9521 7.05713C18.7746 6.90184 18.5136 6.79942 18.2227 6.79932H5.77734C5.48638 6.79942 5.22544 6.90184 5.04785 7.05713C4.87358 7.20962 4.7998 7.39188 4.7998 7.55518V18.2358L7.02832 16.2866L7.14551 16.2017C7.26874 16.1281 7.41037 16.0884 7.55566 16.0884H18.2227C18.5137 16.0883 18.7746 15.9859 18.9521 15.8306C19.1264 15.6781 19.2002 15.4958 19.2002 15.3325V7.55518ZM20.7998 15.3325C20.7998 15.9943 20.4984 16.6037 20.0059 17.0347C19.5169 17.4625 18.8742 17.6879 18.2227 17.688H7.85645L4.52637 20.6021C4.29016 20.8084 3.9546 20.8576 3.66895 20.728C3.38332 20.5982 3.2002 20.3133 3.2002 19.9995V7.55518C3.2002 6.89335 3.50162 6.28398 3.99414 5.85303C4.48312 5.42524 5.12583 5.19981 5.77734 5.19971H18.2227C18.8742 5.19981 19.5169 5.42524 20.0059 5.85303C20.4984 6.28398 20.7998 6.89335 20.7998 7.55518V15.3325Z" fill="currentColor"/>
</svg>
