<svg width="24" height="24" viewBox="0 0 24 24" fill="none" xmlns="http://www.w3.org/2000/svg">
<path d="M19 7.55566C19 7.45469 18.9548 7.32569 18.8203 7.20801C18.6816 7.08683 18.4685 7.0001 18.2227 7H5.77734C5.53154 7.0001 5.31837 7.08683 5.17969 7.20801C5.04519 7.32569 5 7.45469 5 7.55566V17.7959L6.89746 16.1367L6.96777 16.0801C7.13801 15.9564 7.34369 15.8887 7.55566 15.8887H18.2227C18.4685 15.8886 18.6816 15.8019 18.8203 15.6807C18.9548 15.563 19 15.434 19 15.333V7.55566ZM21 15.333C21 16.0571 20.6699 16.7198 20.1377 17.1855C19.6098 17.6475 18.9193 17.8886 18.2227 17.8887H7.93164L4.6582 20.7529C4.36293 21.0111 3.94409 21.0722 3.58691 20.9102C3.22964 20.748 3 20.3924 3 20V7.55566C3 6.83152 3.33 6.16889 3.8623 5.70312C4.39023 5.2412 5.08071 5.0001 5.77734 5H18.2227C18.9193 5.0001 19.6098 5.2412 20.1377 5.70312C20.67 6.16889 21 6.83152 21 7.55566V15.333Z" fill="black"/>
</svg>
