<svg width="24" height="24" viewBox="0 0 24 24" fill="none" xmlns="http://www.w3.org/2000/svg">
<path d="M9.43359 14.5557C10.4766 14.5557 11.323 15.4013 11.3232 16.4443V19.1113C11.3232 20.1545 10.4768 21 9.43359 21H4.98926C3.94617 20.9999 3.10062 20.1544 3.10059 19.1113V16.4443C3.10084 15.4014 3.94631 14.5558 4.98926 14.5557H9.43359ZM19.2109 11C20.254 11 21.1004 11.8456 21.1006 12.8887V19.1113C21.1005 20.1545 20.2541 21 19.2109 21H14.7666C13.7237 20.9997 12.878 20.1543 12.8779 19.1113V12.8887C12.8781 11.8458 13.7238 11.0003 14.7666 11H19.2109ZM5.10059 19H9.32324V16.5557H5.10059V19ZM14.8779 19H19.1006V13H14.8779V19ZM9.43359 3C10.4767 3 11.3231 3.84557 11.3232 4.88867V11.1113C11.3232 12.1545 10.4768 13 9.43359 13H4.98926C3.9462 12.9999 3.10066 12.1544 3.10059 11.1113V4.88867C3.10071 3.84564 3.94623 3.00012 4.98926 3H9.43359ZM5.10059 11H9.32324V5H5.10059V11ZM19.2109 3C20.2541 3 21.1005 3.84557 21.1006 4.88867V7.55566C21.1005 8.59884 20.2541 9.44434 19.2109 9.44434H14.7666C13.7237 9.44403 12.878 8.59866 12.8779 7.55566V4.88867C12.8781 3.84575 13.7237 3.0003 14.7666 3H19.2109ZM14.8779 7.44434H19.1006V5H14.8779V7.44434Z" fill="black"/>
</svg>
