<svg width="24" height="24" viewBox="0 0 24 24" fill="none" xmlns="http://www.w3.org/2000/svg">
<path d="M11.9996 1.99902C17.5225 1.99902 21.9996 6.47618 21.9996 11.999C21.9996 17.5219 17.5225 21.999 11.9996 21.999C6.47679 21.999 1.99963 17.5219 1.99963 11.999C1.99963 6.47618 6.47679 1.99902 11.9996 1.99902ZM7.09534 18.3164C8.45008 19.3696 10.1508 19.999 11.9996 19.999C16.4179 19.999 19.9996 16.4173 19.9996 11.999C19.9996 10.1501 19.3702 8.44947 18.317 7.09473L7.09534 18.3164ZM11.9996 3.99902C7.58136 3.99902 3.99963 7.58075 3.99963 11.999C3.99963 13.8474 4.62855 15.5478 5.68127 16.9023L16.903 5.68066C15.5484 4.62794 13.848 3.99902 11.9996 3.99902Z" fill="black"/>
</svg>
