<svg width="24" height="24" viewBox="0 0 24 24" fill="none" xmlns="http://www.w3.org/2000/svg">
<path d="M12.0004 4.2002C16.7763 4.20037 20.552 7.36922 22.1508 11.7246C22.2161 11.9025 22.2161 12.0975 22.1508 12.2754C20.552 16.6308 16.7763 19.7996 12.0004 19.7998C7.22443 19.7998 3.44797 16.6309 1.84907 12.2754C1.78387 12.0976 1.78387 11.9024 1.84907 11.7246C3.44797 7.36911 7.22443 4.20023 12.0004 4.2002ZM12.0004 5.7998C8.10455 5.79984 4.91755 8.31158 3.45649 12C4.91755 15.6884 8.10455 18.2002 12.0004 18.2002C15.896 18.2 19.0813 15.6881 20.5424 12C19.0813 8.31191 15.896 5.79997 12.0004 5.7998ZM12.0004 8.2002C13.0082 8.2002 13.9743 8.60086 14.687 9.31348C15.3996 10.0261 15.8002 10.9922 15.8002 12C15.8002 13.0078 15.3996 13.9739 14.687 14.6865C13.9743 15.3991 13.0082 15.7998 12.0004 15.7998C10.9926 15.7998 10.0265 15.3991 9.31392 14.6865C8.6013 13.9739 8.20064 13.0078 8.20064 12C8.20064 10.9922 8.6013 10.0261 9.31392 9.31348C10.0265 8.60086 10.9926 8.20022 12.0004 8.2002ZM12.0004 9.7998C11.417 9.79983 10.8573 10.0318 10.4448 10.4443C10.0322 10.8569 9.80025 11.4165 9.80025 12C9.80025 12.5835 10.0322 13.1431 10.4448 13.5557C10.8573 13.9682 11.417 14.2002 12.0004 14.2002C12.5839 14.2002 13.1435 13.9682 13.5561 13.5557C13.9687 13.1431 14.2006 12.5835 14.2006 12C14.2006 11.4165 13.9687 10.8569 13.5561 10.4443C13.1435 10.0318 12.5839 9.7998 12.0004 9.7998Z" fill="currentColor"/>
</svg>
