<svg width="24" height="24" viewBox="0 0 24 24" fill="none" xmlns="http://www.w3.org/2000/svg">
<path d="M12.0005 4C16.8741 4.00029 20.7158 7.23544 22.3384 11.6553C22.42 11.8777 22.42 12.1223 22.3384 12.3447C20.7158 16.7646 16.8741 19.9997 12.0005 20C7.12655 20 3.28429 16.7647 1.6616 12.3447C1.57992 12.1222 1.57992 11.8778 1.6616 11.6553C3.28429 7.23526 7.12655 4 12.0005 4ZM12.0005 6C8.22589 6 5.1202 8.41513 3.67137 12C5.1202 15.5849 8.22589 18 12.0005 18C15.7748 17.9997 18.8799 15.5847 20.3286 12C18.8799 8.41532 15.7748 6.00028 12.0005 6ZM12.0005 8C13.0612 8.00007 14.0785 8.42179 14.8286 9.17188C15.5787 9.92201 16.0005 10.9392 16.0005 12C16.0005 13.0608 15.5787 14.078 14.8286 14.8281C14.0785 15.5782 13.0612 15.9999 12.0005 16C10.9397 16 9.92248 15.5782 9.17235 14.8281C8.4222 14.078 8.00047 13.0609 8.00047 12C8.00047 10.9391 8.4222 9.92202 9.17235 9.17188C9.92248 8.42181 10.9397 8 12.0005 8ZM12.0005 10C11.4701 10 10.9615 10.2109 10.5864 10.5859C10.2113 10.961 10.0005 11.4696 10.0005 12C10.0005 12.5304 10.2113 13.039 10.5864 13.4141C10.9615 13.7891 11.4701 14 12.0005 14C12.5308 13.9999 13.0395 13.7891 13.4145 13.4141C13.7895 13.039 14.0005 12.5304 14.0005 12C14.0005 11.4696 13.7895 10.961 13.4145 10.5859C13.0395 10.2109 12.5308 10.0001 12.0005 10Z" fill="currentColor"/>
</svg>
