<svg width="72" height="72" viewBox="0 0 72 72" fill="none" xmlns="http://www.w3.org/2000/svg">
<rect width="72" height="72" rx="8" fill="#F3EEFF"/>
<path fill-rule="evenodd" clip-rule="evenodd" d="M32.0068 25.9147H40.6698L42.962 15.2998H33.1856C28.6623 15.2998 26.127 16.4827 24.678 17.8627C23.229 19.2427 21.78 20.4255 20.0017 26.943L19.4357 29.5637L17.1434 40.1786L13.5 56.6998H25.2832L28.9266 40.1786H37.5896L39.8818 29.5637H31.2188L32.0068 25.9147Z" fill="black"/>
<path fill-rule="evenodd" clip-rule="evenodd" d="M32.0068 25.9147H40.6698L42.962 15.2998H33.1856C28.6623 15.2998 26.127 16.4827 24.678 17.8627C23.229 19.2427 21.78 20.4255 20.0017 26.943L19.4357 29.5637L17.1434 40.1786L13.5 56.6998H25.2832L28.9266 40.1786H37.5896L39.8818 29.5637H31.2188L32.0068 25.9147Z" fill="url(#paint0_linear_2406_17168)"/>
<path d="M51.0744 46.2651H55.2777L52.9855 56.6998H46.8436C44.1373 56.6998 42.3676 55.5898 40.6111 53.7782C38.687 51.7747 38.665 48.9863 39.3846 45.6536L46.0148 15.2998H48.5543C53.3068 15.2998 56.845 19.6887 55.8366 24.333L51.0744 46.2651Z" fill="black"/>
<path d="M51.0744 46.2651H55.2777L52.9855 56.6998H46.8436C44.1373 56.6998 42.3676 55.5898 40.6111 53.7782C38.687 51.7747 38.665 48.9863 39.3846 45.6536L46.0148 15.2998H48.5543C53.3068 15.2998 56.845 19.6887 55.8366 24.333L51.0744 46.2651Z" fill="url(#paint1_linear_2406_17168)"/>
<defs>
<linearGradient id="paint0_linear_2406_17168" x1="4.5344" y1="14.1318" x2="70.1034" y2="82.4447" gradientUnits="userSpaceOnUse">
<stop stop-color="#5A44F2"/>
<stop offset="1" stop-color="#4E8EE7"/>
</linearGradient>
<linearGradient id="paint1_linear_2406_17168" x1="4.5344" y1="14.1318" x2="70.1034" y2="82.4447" gradientUnits="userSpaceOnUse">
<stop stop-color="#5A44F2"/>
<stop offset="1" stop-color="#4E8EE7"/>
</linearGradient>
</defs>
</svg>
