<svg width="24" height="24" viewBox="0 0 24 24" fill="none" xmlns="http://www.w3.org/2000/svg">
<path d="M21.1005 17.999C21.6527 17.999 22.1005 18.4467 22.1005 18.999C22.1005 19.5513 21.6527 19.999 21.1005 19.999H3.10046C2.54818 19.999 2.10046 19.5513 2.10046 18.999C2.10046 18.4467 2.54818 17.999 3.10046 17.999H21.1005ZM21.1005 10.999C21.6527 10.999 22.1005 11.4467 22.1005 11.999C22.1005 12.5513 21.6527 12.999 21.1005 12.999H3.10046C2.54818 12.999 2.10046 12.5513 2.10046 11.999C2.10046 11.4467 2.54818 10.999 3.10046 10.999H21.1005ZM21.1005 3.99902C21.6527 3.99902 22.1005 4.44674 22.1005 4.99902C22.1005 5.55131 21.6527 5.99902 21.1005 5.99902H3.10046C2.54818 5.99902 2.10046 5.55131 2.10046 4.99902C2.10046 4.44674 2.54818 3.99902 3.10046 3.99902H21.1005Z" fill="black"/>
</svg>
