<svg width="24" height="24" viewBox="0 0 24 24" fill="none" xmlns="http://www.w3.org/2000/svg">
<path d="M6.18554 3.27365C6.97512 3.02389 7.80837 2.94071 8.63183 3.02853C9.45527 3.11641 10.2516 3.3737 10.9707 3.78439C11.3448 3.99806 11.6934 4.25139 12.0117 4.5383C12.3297 4.25481 12.678 4.005 13.0508 3.79416C13.7694 3.38778 14.5646 3.13421 15.3857 3.04904C16.207 2.96393 17.0374 3.04864 17.8242 3.29904C18.6111 3.54947 19.338 3.95993 19.959 4.50412C20.5799 5.04828 21.0821 5.71509 21.4336 6.46214C21.785 7.20912 21.9785 8.02076 22.002 8.84595C22.0254 9.67125 21.8779 10.4932 21.5693 11.259C21.2608 12.0246 20.7978 12.7188 20.209 13.2971C20.191 13.3148 20.1713 13.3309 20.1524 13.347L12.7119 20.7161C12.3222 21.1019 11.6943 21.102 11.3047 20.7161L3.80468 13.2884V13.2874C3.21425 12.711 2.74844 12.0195 2.43749 11.2551C2.12543 10.488 1.9753 9.66409 1.99706 8.83618C2.0189 8.00835 2.2125 7.1932 2.56445 6.44359C2.91646 5.69415 3.42002 5.02515 4.04296 4.47971C4.66607 3.93424 5.396 3.52349 6.18554 3.27365Z" fill="currentColor"/>
</svg>
