<svg width="24" height="24" viewBox="0 0 24 24" fill="none" xmlns="http://www.w3.org/2000/svg">
<path d="M6.18555 3.27366C6.97519 3.02388 7.8083 2.9407 8.63184 3.02855C9.4553 3.11643 10.2516 3.37369 10.9707 3.78441C11.3448 3.99807 11.6934 4.25141 12.0117 4.53831C12.3298 4.25474 12.6779 4.00505 13.0508 3.79417C13.7695 3.38776 14.5645 3.1342 15.3857 3.04905C16.2071 2.96394 17.0374 3.04863 17.8242 3.29905C18.611 3.54949 19.338 3.95994 19.959 4.50413C20.5799 5.04829 21.082 5.71509 21.4336 6.46214C21.7851 7.20915 21.9785 8.0207 22.002 8.84593C22.0254 9.67132 21.8779 10.4931 21.5693 11.259C21.2608 12.0247 20.7979 12.7186 20.209 13.2971C20.1909 13.3148 20.1714 13.3308 20.1523 13.3469L12.7119 20.716C12.3222 21.102 11.6944 21.102 11.3047 20.716L3.80469 13.2883C3.21421 12.7119 2.74845 12.0195 2.4375 11.2551C2.1254 10.4879 1.97526 9.66417 1.99707 8.83616C2.01891 8.00821 2.21241 7.19328 2.56446 6.44359C2.91652 5.69404 3.41989 5.0252 4.04297 4.47972C4.66616 3.93418 5.39589 3.52349 6.18555 3.27366ZM8.41895 5.01683C7.87001 4.95834 7.31442 5.01437 6.78809 5.18089C6.26184 5.34746 5.77568 5.62102 5.36035 5.9846C4.94487 6.34834 4.60874 6.79433 4.37403 7.29417C4.13938 7.79392 4.01065 8.33699 3.9961 8.8889C3.98156 9.4408 4.08205 9.98979 4.29004 10.5012C4.47215 10.9489 4.73379 11.3595 5.06153 11.7131L5.20508 11.8616L5.21192 11.8674L12.0078 18.5979L18.8047 11.8674C18.8187 11.8535 18.8331 11.8402 18.8477 11.8274C19.2206 11.4501 19.5165 11.0034 19.7148 10.511C19.9204 10.0005 20.0186 9.45269 20.0029 8.90257C19.9872 8.35254 19.8583 7.8116 19.624 7.3137C19.3896 6.81562 19.0546 6.37083 18.6406 6.00804C18.2267 5.64534 17.7422 5.37225 17.2178 5.2053C16.6932 5.03835 16.1393 4.98157 15.5918 5.03831C15.0444 5.09509 14.5142 5.26349 14.0352 5.53441C13.5561 5.80532 13.1384 6.17268 12.8076 6.61253C12.6181 6.86455 12.3202 7.01282 12.0049 7.01194C11.6897 7.01093 11.3931 6.86157 11.2051 6.60862C10.8757 6.1655 10.4589 5.7946 9.97949 5.52073C9.49999 5.24685 8.96804 5.0754 8.41895 5.01683Z" fill="currentColor"/>
</svg>
