<svg width="24" height="24" viewBox="0 0 24 24" fill="none" xmlns="http://www.w3.org/2000/svg">
<path d="M6.24651 3.46435C7.00974 3.22297 7.81478 3.14214 8.61076 3.22705C9.40694 3.31198 10.1772 3.56137 10.8725 3.95849C11.2871 4.19532 11.6685 4.48304 12.0112 4.81201C12.3541 4.48627 12.736 4.20228 13.1498 3.96826C13.8445 3.5754 14.6128 3.32986 15.4067 3.24756C16.2006 3.16528 17.0035 3.24766 17.7641 3.48974C18.5247 3.73183 19.2272 4.12874 19.8276 4.65478C20.4278 5.18078 20.9125 5.82525 21.2524 6.54736C21.5922 7.26959 21.7795 8.05417 21.8022 8.85205C21.8249 9.64981 21.6834 10.4438 21.3852 11.1841C21.0869 11.9245 20.6382 12.5955 20.0688 13.1548C20.0484 13.1747 20.0271 13.1931 20.0053 13.2104L12.5717 20.5747C12.26 20.8834 11.7575 20.8833 11.4457 20.5747L3.95061 13.1509V13.1519C3.37681 12.5935 2.92517 11.9218 2.62346 11.1802C2.3218 10.4386 2.17665 9.64257 2.19768 8.84228C2.21876 8.042 2.4053 7.25444 2.74553 6.52978C3.08587 5.80502 3.57277 5.15779 4.17522 4.63037C4.77761 4.10306 5.48321 3.70584 6.24651 3.46435ZM8.44084 4.81787C7.86442 4.75641 7.28162 4.81588 6.72893 4.99072C6.17612 5.16561 5.66518 5.45255 5.22893 5.83447C4.79267 6.2164 4.44022 6.68464 4.19377 7.20947C3.94734 7.73428 3.81255 8.30468 3.79729 8.88427C3.78205 9.46381 3.88645 10.0406 4.1049 10.5776C4.29603 11.0474 4.57063 11.478 4.91447 11.8491L5.06682 12.0044L5.0717 12.0093L12.0082 18.8794L18.9457 12.0093C18.9604 11.9947 18.9752 11.9804 18.9906 11.9673C19.3819 11.5713 19.6926 11.1031 19.9008 10.5864C20.1167 10.0504 20.2199 9.47556 20.2035 8.89795C20.1871 8.32031 20.0511 7.75189 19.8051 7.229C19.559 6.70601 19.2076 6.23884 18.7729 5.85791C18.3382 5.47705 17.8294 5.19043 17.2787 5.01513C16.7279 4.83983 16.1466 4.77977 15.5717 4.83935C14.9969 4.89896 14.44 5.07635 13.9369 5.36084C13.434 5.64533 12.9952 6.03081 12.6479 6.49267C12.4963 6.69428 12.2585 6.81271 12.0063 6.81201C11.754 6.8113 11.5171 6.69121 11.3666 6.48877C11.0208 6.02351 10.5819 5.63469 10.0785 5.34716C9.57513 5.05968 9.01729 4.87936 8.44084 4.81787Z" fill="currentColor"/>
</svg>
