<svg width="100%" height="100%" viewBox="0 0 18 18" fill="none" xmlns="http://www.w3.org/2000/svg">
<path d="M12.4348 2.85425C12.7743 2.87812 13.1038 2.98397 13.3943 3.16406C13.7255 3.36949 13.9931 3.66343 14.167 4.01221L16.4961 8.66309C16.4988 8.66847 16.5001 8.67449 16.5027 8.67993C16.5103 8.69612 16.5182 8.71221 16.5247 8.729C16.5283 8.73846 16.5317 8.74798 16.5349 8.75757C16.5399 8.77224 16.544 8.78718 16.5481 8.80225C16.5513 8.81415 16.5543 8.82608 16.5569 8.83813C16.5682 8.88988 16.5752 8.9434 16.5752 8.99854V13.0488C16.5751 13.6057 16.3537 14.1404 15.96 14.5342C15.5662 14.9278 15.0321 15.1494 14.4753 15.1494H3.67505C3.11829 15.1494 2.58419 14.9278 2.19043 14.5342C1.79668 14.1404 1.57528 13.6057 1.5752 13.0488V8.99854C1.57521 8.94345 1.58149 8.88983 1.59277 8.83813C1.5954 8.82609 1.59835 8.81414 1.60156 8.80225C1.60566 8.78712 1.61048 8.7723 1.61548 8.75757C1.61869 8.74806 1.6214 8.73838 1.625 8.729C1.63147 8.71222 1.63936 8.69611 1.64697 8.67993C1.64957 8.67439 1.65156 8.66856 1.6543 8.66309L3.9834 4.01221C4.15726 3.66343 4.42489 3.36949 4.7561 3.16406C5.08811 2.9582 5.47141 2.84933 5.86206 2.84912H12.2883L12.4348 2.85425ZM3.0752 13.0488C3.07528 13.2078 3.13853 13.3612 3.25098 13.4736C3.36343 13.5859 3.51612 13.6494 3.67505 13.6494H14.4753C14.6343 13.6494 14.787 13.5859 14.8994 13.4736C15.0119 13.3612 15.0751 13.2078 15.0752 13.0488V9.74854H12.1763L11.0491 11.4397C10.91 11.6482 10.6757 11.7737 10.425 11.7737H7.72534C7.47464 11.7737 7.24043 11.6482 7.10132 11.4397L5.97412 9.74854H3.0752V13.0488ZM5.7793 4.35498C5.69707 4.36656 5.61747 4.39513 5.54639 4.43921C5.4517 4.49803 5.37554 4.58254 5.32593 4.68237L5.32446 4.68384L3.53955 8.24854H6.37549L6.46851 8.25439C6.68309 8.28128 6.87783 8.40008 6.99951 8.58252L8.12671 10.2737H10.0237L11.1509 8.58252C11.2899 8.37403 11.5243 8.24863 11.7749 8.24854H14.6108L12.8259 4.68384L12.8245 4.68237C12.7749 4.58254 12.6987 4.49803 12.604 4.43921C12.5329 4.39513 12.4533 4.36656 12.3711 4.35498L12.2876 4.34912H5.86279L5.7793 4.35498Z" fill="currentColor"/>
</svg>
