<svg width="100%" height="100%" viewBox="0 0 18 18" fill="none" xmlns="http://www.w3.org/2000/svg">
<path d="M14.8595 2.25206L15.006 2.27403L15.148 2.31651C15.2866 2.36881 15.4131 2.45055 15.5187 2.55601C15.6242 2.66152 15.7058 2.78809 15.7582 2.92662L15.8006 3.06871L15.8226 3.21519C15.8338 3.35868 15.8137 3.50312 15.7662 3.63999L15.7677 3.64073L11.8683 15.0394H11.8675C11.798 15.2421 11.6682 15.4188 11.4955 15.5455C11.3228 15.6722 11.1156 15.7436 10.9015 15.7491C10.6874 15.7546 10.4761 15.6939 10.2972 15.5763C10.1185 15.4586 9.97994 15.2886 9.90024 15.0899L7.99229 10.3321C7.96965 10.2761 7.93615 10.2247 7.89341 10.182C7.85047 10.1392 7.79881 10.1049 7.74253 10.0824H7.7418L2.98472 8.17442C2.78613 8.09466 2.61605 7.9562 2.49839 7.77745C2.38078 7.59852 2.32005 7.38725 2.32554 7.1732L2.33066 7.09336C2.34965 6.90789 2.4183 6.7303 2.52915 6.5792L2.57895 6.51621C2.70037 6.3748 2.85805 6.26794 3.03525 6.20713V6.2064L14.4339 2.30699V2.30845C14.5709 2.26076 14.7158 2.24089 14.8595 2.25206ZM9.3773 9.75791C9.37925 9.76265 9.38197 9.76707 9.38389 9.77183L9.38462 9.77329L10.8407 13.4061L13.4979 5.63804L9.3773 9.75791ZM4.66782 7.23326L8.30064 8.69004H8.2999C8.30548 8.69228 8.31119 8.69508 8.31675 8.69737L12.4417 4.5731L4.66782 7.23326Z" fill="currentColor"/>
</svg>
