<svg width="100%" height="100%" viewBox="0 0 18 18" fill="none" xmlns="http://www.w3.org/2000/svg">
<path d="M7.07495 10.9167C7.85724 10.9167 8.492 11.551 8.49219 12.3333V14.3335C8.49216 15.1159 7.85734 15.75 7.07495 15.75H3.7417C2.95939 15.7499 2.32522 15.1158 2.3252 14.3335V12.3333C2.32539 11.5511 2.95949 10.9168 3.7417 10.9167H7.07495ZM14.408 8.25C15.1903 8.25 15.8251 8.88422 15.8252 9.6665V14.3335C15.8251 15.1159 15.1903 15.75 14.408 15.75H11.0747C10.2925 15.7498 9.65826 15.1157 9.6582 14.3335V9.6665C9.65834 8.88436 10.2926 8.25023 11.0747 8.25H14.408ZM3.8252 14.25H6.99219V12.4167H3.8252V14.25ZM11.1582 14.25H14.3252V9.75H11.1582V14.25ZM7.07495 2.25C7.8573 2.25 8.4921 2.88417 8.49219 3.6665V8.3335C8.49213 9.11586 7.85733 9.75 7.07495 9.75H3.7417C2.9594 9.74991 2.32525 9.1158 2.3252 8.3335V3.6665C2.32529 2.88423 2.95943 2.25009 3.7417 2.25H7.07495ZM3.8252 8.25H6.99219V3.75H3.8252V8.25ZM14.408 2.25C15.1903 2.25 15.8251 2.88417 15.8252 3.6665V5.66675C15.8252 6.44913 15.1904 7.08325 14.408 7.08325H11.0747C10.2925 7.08302 9.65823 6.44899 9.6582 5.66675V3.6665C9.6583 2.88432 10.2926 2.25023 11.0747 2.25H14.408ZM11.1582 5.58325H14.3252V3.75H11.1582V5.58325Z" fill="currentColor"/>
</svg>
