<svg width="100%" height="100%" viewBox="0 0 18 18" fill="none" xmlns="http://www.w3.org/2000/svg">
<path fill-rule="evenodd" clip-rule="evenodd" d="M15.8354 4.87492C15.875 4.87547 15.9139 4.87943 15.9518 4.88591C15.9826 4.89116 16.0133 4.89802 16.0434 4.90715C16.058 4.91161 16.0723 4.9172 16.0866 4.92253C16.0939 4.92524 16.1013 4.92763 16.1085 4.93058C16.1202 4.93536 16.1316 4.94063 16.143 4.94597C16.1765 4.96166 16.209 4.97997 16.2404 5.0009C16.2685 5.0197 16.2949 5.04082 16.3202 5.06315C16.3319 5.07349 16.3442 5.08345 16.3554 5.09465C16.3668 5.10611 16.377 5.11854 16.3876 5.13054C16.4105 5.15654 16.4322 5.18356 16.4513 5.21257C16.5362 5.34129 16.5771 5.49035 16.5744 5.63884V9.67448C16.5744 10.0887 16.2386 10.4245 15.8244 10.4245C15.4105 10.4241 15.0744 10.0885 15.0744 9.67448V7.4362L10.6176 11.893C10.477 12.0334 10.2861 12.112 10.0873 12.112C9.88853 12.1119 9.69764 12.0335 9.55704 11.893L6.71231 9.04826L2.85537 12.9052C2.56252 13.198 2.08771 13.1979 1.79483 12.9052C1.50196 12.6123 1.50201 12.1375 1.79483 11.8446L6.18203 7.45671C6.32263 7.31619 6.51353 7.23776 6.71231 7.23771C6.91105 7.23774 7.10198 7.31626 7.24258 7.45671L10.0873 10.3014L14.0146 6.37492H11.7748C11.3607 6.37476 11.0248 6.03904 11.0248 5.62492C11.0248 5.21081 11.3607 4.87508 11.7748 4.87492C11.9239 4.72593 15.64 4.87226 15.8354 4.87492Z" fill="currentColor"/>
</svg>
