<svg width="20" height="20" viewBox="0 0 20 20" fill="none" xmlns="http://www.w3.org/2000/svg">
<path d="M16.6665 2.6665C17.9552 2.6665 18.9997 3.71101 18.9997 4.99967V14.9997C18.9997 16.2883 17.9552 17.3328 16.6665 17.3328H3.33317C2.04451 17.3328 1 16.2883 1 14.9997V4.99967C1 3.71101 2.04451 2.6665 3.33317 2.6665H16.6665ZM3.33317 3.99951C2.78089 3.99951 2.33301 4.44739 2.33301 4.99967V14.9997C2.33301 15.552 2.78089 15.9998 3.33317 15.9998H6V3.99951H3.33317ZM7.33301 15.9998H16.6665C17.2188 15.9998 17.6667 15.552 17.6667 14.9997V4.99967C17.6667 4.44739 17.2188 3.99951 16.6665 3.99951H7.33301V15.9998ZM10.3001 7.09928C10.5211 6.80507 10.9391 6.74582 11.2336 6.96663L14.5539 9.45687C14.5726 9.47024 14.5909 9.48452 14.6084 9.5L14.6662 9.55778C14.7165 9.61464 14.7548 9.67926 14.7826 9.7474C14.7994 9.78846 14.8101 9.8308 14.8184 9.87354C14.8223 9.89408 14.8253 9.91456 14.8273 9.93538C14.8294 9.95687 14.8306 9.97816 14.8306 9.99967C14.8306 10.0209 14.8293 10.0419 14.8273 10.0632C14.8253 10.084 14.8223 10.1044 14.8184 10.125C14.8102 10.1678 14.7993 10.21 14.7826 10.2511C14.7547 10.3195 14.7167 10.3845 14.6662 10.4416L14.6084 10.4993C14.597 10.5094 14.5845 10.5179 14.5726 10.527C14.5705 10.5286 14.569 10.5311 14.5669 10.5327L11.2336 13.0327C10.9391 13.2535 10.5211 13.1943 10.3001 12.9001C10.0793 12.6056 10.1386 12.1876 10.4328 11.9666L13.0548 9.99967L10.4328 8.03271C10.1386 7.81172 10.0793 7.39371 10.3001 7.09928Z" fill="currentColor"/>
</svg>
