<svg width="32" height="32" viewBox="0 0 32 32" fill="none" xmlns="http://www.w3.org/2000/svg">
<rect width="32" height="32" rx="16" fill="black" fill-opacity="0.4"/>
<path d="M15.9998 6.33398C18.5311 6.33398 20.5832 8.38601 20.5832 10.9173V13.6673C22.102 13.6673 23.3332 14.8985 23.3332 16.4173V21.9173C23.3332 23.4361 22.102 24.6673 20.5832 24.6673H11.4165C9.89772 24.6673 8.6665 23.4361 8.6665 21.9173V16.4173C8.6665 14.8985 9.89772 13.6673 11.4165 13.6673V10.9173C11.4165 8.38601 13.4685 6.33398 15.9998 6.33398ZM15.9998 17.334C14.9873 17.334 14.1665 18.1548 14.1665 19.1673C14.1665 20.1798 14.9873 21.0007 15.9998 21.0007C17.0124 21.0007 17.8332 20.1798 17.8332 19.1673C17.8332 18.1548 17.0124 17.334 15.9998 17.334ZM15.9998 8.16732C14.4811 8.16732 13.2498 9.39853 13.2498 10.9173V13.6673H18.7498V10.9173C18.7498 9.39853 17.5186 8.16732 15.9998 8.16732Z" fill="white"/>
</svg>
