<svg width="100%" height="100%" viewBox="0 0 18 18" fill="none" xmlns="http://www.w3.org/2000/svg">
<path d="M9.0752 2.24902C12.8031 2.24902 15.8252 5.2711 15.8252 8.99902C15.8252 12.7269 12.8031 15.749 9.0752 15.749C5.34727 15.749 2.3252 12.7269 2.3252 8.99902C2.3252 5.2711 5.34727 2.24902 9.0752 2.24902ZM9.0752 3.74902C6.1757 3.74902 3.8252 6.09953 3.8252 8.99902C3.8252 11.8985 6.1757 14.249 9.0752 14.249C11.9747 14.249 14.3252 11.8985 14.3252 8.99902C14.3252 6.09953 11.9747 3.74902 9.0752 3.74902ZM9.08032 11.249C9.49452 11.249 9.8303 11.5848 9.83032 11.999C9.83032 12.4132 9.49454 12.749 9.08032 12.749H9.0752C8.66105 12.7489 8.3252 12.4132 8.3252 11.999C8.32522 11.5849 8.66106 11.2491 9.0752 11.249H9.08032ZM7.7356 5.59766C8.25469 5.29271 8.8656 5.18093 9.45898 5.28271C10.0523 5.38457 10.591 5.69303 10.9788 6.15356C11.3662 6.61385 11.5784 7.19696 11.5779 7.79858L11.5691 7.98169C11.4862 8.87602 10.8081 9.4628 10.3438 9.77246C10.1435 9.90598 9.94553 10.013 9.77759 10.0947L9.74985 10.1248C9.74979 10.5388 9.41386 10.8746 8.99985 10.8748C8.58578 10.8746 8.27765 10.763 8.27759 10.3489V9.59888C8.27772 9.27658 8.48402 8.99007 8.78955 8.8877C8.78955 8.8877 8.79322 8.88606 8.79688 8.88477C8.80514 8.88184 8.81946 8.87714 8.83789 8.87012C8.87609 8.85556 8.93419 8.83235 9.00415 8.80127C9.14703 8.73774 9.33237 8.64398 9.51172 8.52441C9.91606 8.25474 10.0779 8.00035 10.0779 7.79858C10.0782 7.55073 9.99068 7.30925 9.83105 7.11963C9.6715 6.93018 9.44966 6.80348 9.20557 6.76147C8.96133 6.71958 8.70954 6.76566 8.49585 6.89111C8.28223 7.01669 8.11967 7.21405 8.03735 7.44775C7.8999 7.83837 7.47147 8.04354 7.08081 7.90625C6.69016 7.76874 6.48488 7.3404 6.62231 6.94971C6.8222 6.38192 7.21666 5.90269 7.7356 5.59766Z" fill="currentColor"/>
</svg>
