<svg width="100%" height="100%" viewBox="0 0 18 18" fill="none" xmlns="http://www.w3.org/2000/svg">
<path d="M8.36694 1.875C11.9108 1.87501 14.7837 4.7479 14.7837 8.29175C14.7837 9.79333 14.2657 11.1727 13.4016 12.2659L15.9805 14.8447C16.2731 15.1376 16.2732 15.6125 15.9805 15.9053C15.6877 16.1981 15.2128 16.1979 14.9199 15.9053L12.3411 13.3264C11.2479 14.1905 9.86853 14.7085 8.36694 14.7085C4.82309 14.7085 1.95021 11.8356 1.9502 8.29175C1.9502 4.74789 4.82308 1.875 8.36694 1.875ZM8.36694 3.375C5.65151 3.375 3.4502 5.57632 3.4502 8.29175C3.45021 11.0072 5.65152 13.2085 8.36694 13.2085C11.0824 13.2085 13.2837 11.0072 13.2837 8.29175C13.2837 5.57632 11.0824 3.37501 8.36694 3.375Z" fill="currentColor"/>
</svg>
