<svg width="24" height="24" viewBox="0 0 24 24" fill="none" xmlns="http://www.w3.org/2000/svg">
<path d="M11.9996 1.99902C17.5225 1.99902 21.9996 6.47618 21.9996 11.999C21.9996 17.5219 17.5225 21.999 11.9996 21.999C6.47679 21.999 1.99963 17.5219 1.99963 11.999C1.99963 6.47618 6.47679 1.99902 11.9996 1.99902ZM11.9996 3.99902C7.58136 3.99902 3.99963 7.58075 3.99963 11.999C3.99963 16.4173 7.58136 19.999 11.9996 19.999C16.4179 19.999 19.9996 16.4173 19.9996 11.999C19.9996 7.58075 16.4179 3.99902 11.9996 3.99902ZM11.9996 8.99902C12.5519 8.99902 12.9996 9.44674 12.9996 9.99902V16.999C12.9996 17.5513 12.5519 17.999 11.9996 17.999C11.4473 17.999 10.9996 17.5513 10.9996 16.999V9.99902C10.9996 9.44674 11.4473 8.99902 11.9996 8.99902ZM11.9996 5.99902C12.5519 5.99902 12.9996 6.44674 12.9996 6.99902C12.9996 7.55131 12.5519 7.99902 11.9996 7.99902C11.4473 7.99902 10.9996 7.55131 10.9996 6.99902C10.9996 6.44674 11.4473 5.99902 11.9996 5.99902Z" fill="black"/>
</svg>
