<svg width="24" height="24" viewBox="0 0 24 24" fill="none" xmlns="http://www.w3.org/2000/svg">
<path d="M19.9996 2.99902C21.6565 2.99902 22.9996 4.34217 22.9996 5.99902V17.999C22.9996 19.6559 21.6565 20.999 19.9996 20.999H3.99963C2.34278 20.999 0.999634 19.6559 0.999634 17.999V5.99902C0.999634 4.34217 2.34278 2.99902 3.99963 2.99902H19.9996ZM3.99963 4.99902C3.44735 4.99902 2.99963 5.44674 2.99963 5.99902V17.999C2.99963 18.5513 3.44735 18.999 3.99963 18.999H14.9996V4.99902H3.99963ZM16.9996 18.999H19.9996C20.5519 18.999 20.9996 18.5513 20.9996 17.999V5.99902C20.9996 5.44674 20.5519 4.99902 19.9996 4.99902H16.9996V18.999ZM10.4 8.19922C10.8418 7.86799 11.4681 7.95764 11.7994 8.39941C12.1307 8.84123 12.041 9.4675 11.5992 9.79883L8.66565 11.999L11.5992 14.1992C12.041 14.5306 12.1307 15.1568 11.7994 15.5986C11.4681 16.0404 10.8418 16.1301 10.4 15.7988L6.41858 12.8125C6.36209 12.7721 6.30861 12.7259 6.26038 12.6729C6.1983 12.6049 6.14825 12.529 6.10803 12.4492C6.05174 12.3381 6.01759 12.2201 6.00549 12.1006C6.0036 12.0821 6.00148 12.0635 6.00061 12.0449V11.9531C6.0021 11.9211 6.00583 11.8892 6.01038 11.8574C6.02548 11.7513 6.05781 11.6468 6.10803 11.5479C6.1483 11.4682 6.19828 11.3921 6.26038 11.3242C6.27064 11.313 6.28193 11.3027 6.2926 11.292C6.3033 11.2813 6.31356 11.27 6.32483 11.2598C6.35463 11.2325 6.38623 11.2077 6.41858 11.1846L10.4 8.19922Z" fill="black"/>
</svg>
