<svg width="24" height="24" viewBox="0 0 24 24" fill="none" xmlns="http://www.w3.org/2000/svg">
<path d="M20 3.2002C21.5464 3.2002 22.7998 4.4536 22.7998 6V18C22.7998 19.5464 21.5464 20.7998 20 20.7998H4C2.4536 20.7998 1.2002 19.5464 1.2002 18V6C1.2002 4.4536 2.4536 3.2002 4 3.2002H20ZM4 4.7998C3.33726 4.7998 2.7998 5.33726 2.7998 6V18C2.7998 18.6627 3.33726 19.2002 4 19.2002H7.2002V4.7998H4ZM8.7998 19.2002H20C20.6627 19.2002 21.2002 18.6627 21.2002 18V6C21.2002 5.33726 20.6627 4.7998 20 4.7998H8.7998V19.2002ZM12.3604 8.51953C12.6255 8.16647 13.1272 8.09537 13.4805 8.36035L17.4648 11.3486C17.4873 11.3647 17.5093 11.3818 17.5303 11.4004L17.5996 11.4697C17.66 11.538 17.7059 11.6155 17.7393 11.6973C17.7594 11.7465 17.7724 11.7974 17.7822 11.8486C17.787 11.8733 17.7905 11.8979 17.793 11.9229C17.7955 11.9486 17.7969 11.9742 17.7969 12C17.7969 12.0255 17.7954 12.0507 17.793 12.0762C17.7906 12.1012 17.787 12.1257 17.7822 12.1504C17.7724 12.2017 17.7594 12.2524 17.7393 12.3018C17.7059 12.3838 17.6602 12.4618 17.5996 12.5303L17.5303 12.5996C17.5167 12.6117 17.5016 12.6218 17.4873 12.6328C17.4848 12.6348 17.483 12.6377 17.4805 12.6396L13.4805 15.6396C13.1272 15.9046 12.6255 15.8335 12.3604 15.4805C12.0954 15.1272 12.1665 14.6255 12.5195 14.3604L15.666 12L12.5195 9.63965C12.1665 9.37446 12.0954 8.87284 12.3604 8.51953Z" fill="black"/>
</svg>
