<svg width="24" height="24" viewBox="0 0 24 24" fill="none" xmlns="http://www.w3.org/2000/svg">
<path d="M7.70703 7.29192C7.31651 6.90139 6.68349 6.90139 6.29297 7.29192L2.29297 11.2919C2.24516 11.3397 2.20242 11.3925 2.16504 11.4492C2.1403 11.4866 2.11877 11.5256 2.09961 11.5654C2.07781 11.6106 2.05883 11.6573 2.04395 11.706C2.03775 11.7263 2.0332 11.747 2.02832 11.7675C2.01068 11.8419 2 11.9192 2 11.999C2.00001 12.0739 2.00977 12.1465 2.02539 12.2167C2.03102 12.242 2.03732 12.2671 2.04492 12.2919C2.05906 12.3381 2.07631 12.3827 2.09668 12.4257C2.11784 12.4705 2.14271 12.5137 2.1709 12.5556C2.18289 12.5734 2.1959 12.5904 2.20898 12.6074C2.23506 12.6412 2.26198 12.675 2.29297 12.706L6.29297 16.706C6.68348 17.0965 7.31652 17.0965 7.70703 16.706C8.09754 16.3155 8.09752 15.6825 7.70703 15.2919L5.41406 12.999H21C21.5523 12.999 22 12.5512 22 11.999C22 11.4467 21.5523 10.999 21 10.999H5.41406L7.70703 8.70599C8.09754 8.31547 8.09752 7.68245 7.70703 7.29192Z" fill="black"/>
</svg>
