<svg width="24" height="24" viewBox="0 0 24 24" fill="none" xmlns="http://www.w3.org/2000/svg">
<path d="M11.2909 3.20508C11.7298 3.2305 12.1598 3.34447 12.5575 3.53906C13.0115 3.76129 13.412 4.08365 13.7343 4.47949C14.0563 4.87518 14.2944 5.33665 14.4354 5.83203C14.5765 6.32748 14.6185 6.84854 14.5594 7.36133L14.3632 9.06348H18.6581C18.9778 9.06348 19.2918 9.13888 19.577 9.28125C19.8618 9.42349 20.1093 9.62822 20.3055 9.87695C20.5017 10.1256 20.6436 10.4129 20.7235 10.7188C20.8034 11.0247 20.8206 11.3453 20.7753 11.6582L19.9071 17.6562C19.783 18.5137 19.3794 19.3078 18.7528 19.8887C18.1247 20.471 17.3131 20.7999 16.4637 20.7998H3.99988C3.55805 20.7998 3.20007 20.4418 3.20007 20V9.86328C3.20007 9.42145 3.55805 9.06348 3.99988 9.06348H7.5448L10.035 3.66504L10.0907 3.56348C10.2368 3.33888 10.4885 3.2002 10.7616 3.2002H11.1024L11.2909 3.20508ZM4.79968 19.2002H7.25574V10.6631H4.79968V19.2002ZM8.85632 10.0391V19.2002H16.4637C16.8938 19.2002 17.3208 19.0339 17.6649 18.7148C18.0105 18.3943 18.2499 17.9393 18.3241 17.4268L19.1923 11.4287C19.207 11.3266 19.2003 11.2223 19.1747 11.124C19.149 11.0258 19.1053 10.9387 19.0497 10.8682C18.9941 10.7977 18.9293 10.7454 18.8622 10.7119C18.7954 10.6786 18.7259 10.6631 18.6581 10.6631H13.4647C13.2367 10.663 13.0198 10.5657 12.868 10.3955C12.7162 10.2252 12.6446 9.99812 12.6708 9.77148L12.9696 7.17773C13.0047 6.87242 12.9796 6.56287 12.8964 6.27051C12.8131 5.97795 12.6743 5.71189 12.493 5.48926C12.3119 5.26679 12.0927 5.09366 11.8534 4.97656C11.6662 4.88501 11.4687 4.82963 11.2684 4.80957L8.85632 10.0391Z" fill="currentColor"/>
</svg>
