<svg width="24" height="24" viewBox="0 0 24 24" fill="none" xmlns="http://www.w3.org/2000/svg">
<path d="M11.1024 3L11.3026 3.00586C11.7683 3.03286 12.2241 3.15327 12.6454 3.35938C13.1262 3.59469 13.5487 3.93516 13.8885 4.35254C14.2284 4.76998 14.4795 5.25639 14.6278 5.77734C14.7761 6.29818 14.8198 6.84604 14.7577 7.38477L14.5878 8.86328H18.6581C19.0092 8.86329 19.3534 8.94562 19.6659 9.10156C19.9781 9.2574 20.2488 9.48174 20.4628 9.75293C20.6766 10.0239 20.8302 10.3371 20.9169 10.6689C21.0035 11.0007 21.0226 11.3474 20.9735 11.6865L20.1053 17.6846V17.6855C19.9749 18.586 19.5501 19.4218 18.8885 20.0352C18.2249 20.6504 17.3655 21.0001 16.4637 21H3.99988C3.44759 21 2.99988 20.5523 2.99988 20V9.86328C2.99988 9.311 3.44759 8.86328 3.99988 8.86328H7.41687L9.85339 3.58105L9.92371 3.4541C10.1064 3.17363 10.4204 3 10.7616 3H11.1024ZM7.05652 10.8633H4.99988V19H7.05652V10.8633ZM9.05652 19H16.4637C16.8413 19 17.2205 18.8545 17.5292 18.5684C17.8396 18.2804 18.0579 17.8678 18.1259 17.3984L18.994 11.4004C19.005 11.3245 19.0002 11.2463 18.9813 11.1738C18.9624 11.1017 18.9305 11.0404 18.8925 10.9922C18.8545 10.9441 18.8122 10.9115 18.7723 10.8916C18.7329 10.872 18.6943 10.8633 18.6581 10.8633H13.4647C13.1797 10.8632 12.9083 10.7411 12.7186 10.5283C12.5291 10.3155 12.439 10.0321 12.4716 9.74902L12.7714 7.15527L12.785 6.94531C12.7886 6.73512 12.761 6.5256 12.704 6.3252C12.6279 6.05802 12.5014 5.81622 12.3378 5.61523C12.1743 5.41458 11.9779 5.26016 11.7655 5.15625C11.6433 5.09646 11.5164 5.05466 11.3876 5.0293L9.05652 10.0811V19Z" fill="black"/>
</svg>
