<svg width="540" height="162" viewBox="0 0 540 162" fill="none" xmlns="http://www.w3.org/2000/svg">
<rect width="162" height="162" rx="18" fill="#F3EEFF"/>
<path fill-rule="evenodd" clip-rule="evenodd" d="M72.7024 58.6399H93.6275L99.1643 31H75.5497C64.6239 31.0001 58.5 33.8571 55 37.1905C51.5 40.5238 48 43.381 43.7045 59.1237L42.3373 65.4538L36.8006 91.0937L28 131H56.4618L65.2623 93.0937H86.1873L91.7241 65.4538H70.7991L72.7024 58.6399Z" fill="black"/>
<path fill-rule="evenodd" clip-rule="evenodd" d="M72.7024 58.6399H93.6275L99.1643 31H75.5497C64.6239 31.0001 58.5 33.8571 55 37.1905C51.5 40.5238 48 43.381 43.7045 59.1237L42.3373 65.4538L36.8006 91.0937L28 131H56.4618L65.2623 93.0937H86.1873L91.7241 65.4538H70.7991L72.7024 58.6399Z" fill="url(#paint0_linear_2393_17081)"/>
<path d="M118.759 105.795H128.912L123.376 134H108.54C102.003 134 97.7285 131.319 93.4857 126.943C88.8383 122.104 88.785 112.368 90.5233 104.318L106.538 31H112.672C124.152 31 132.698 41.6012 130.262 52.8194L118.759 105.795Z" fill="black"/>
<path d="M118.759 105.795H128.912L123.376 134H108.54C102.003 134 97.7285 131.319 93.4857 126.943C88.8383 122.104 88.785 112.368 90.5233 104.318L106.538 31H112.672C124.152 31 132.698 41.6012 130.262 52.8194L118.759 105.795Z" fill="url(#paint1_linear_2393_17081)"/>
<mask id="path-3-outside-1_2393_17081" maskUnits="userSpaceOnUse" x="207.043" y="49.0152" width="334.024" height="73.8606" fill="black">
<rect fill="white" x="207.043" y="49.0152" width="334.024" height="73.8606"/>
<path d="M226.867 67.3927C223.713 67.3927 221.522 66.7025 220.293 65.3221C219.147 63.8727 218.769 62.0437 219.158 59.8351L219.56 57.5575C219.949 55.3489 220.967 53.5545 222.612 52.1741C224.339 50.7247 226.78 50 229.933 50C233.087 50 235.237 50.7247 236.383 52.1741C237.611 53.5545 238.031 55.3489 237.641 57.5575L237.24 59.8351C236.85 62.0437 235.792 63.8727 234.065 65.3221C232.42 66.7025 230.02 67.3927 226.867 67.3927ZM218.065 73.1902H233.623L225.04 121.542H209.481L218.065 73.1902Z"/>
<path d="M237.852 121.542L246.435 70.1902H261.994L260.369 77.4042H261C262.48 74.5744 263.682 73.0706 266.5 71C269.318 68.9294 274.384 68.8958 278.192 68.9479C282 69 287.815 70.8114 290.031 74.5384C292.318 78.2654 293.852 83.5798 292.635 90.4817L286.63 121.542H271.071L276.858 94.724C277.478 91.204 277.374 88.6158 276.545 86.9594C275.728 85.2339 273.883 84.3712 271.009 84.3712C269.748 84.3712 268.491 84.5438 267.239 84.8889C265.998 85.1649 264.827 85.6481 263.724 86.3382C262.691 87.0284 261.803 87.8912 261.06 88.9264C260.329 89.8927 259.848 91.0315 259.617 92.3429L253.41 121.542H237.852Z"/>
<path fill-rule="evenodd" clip-rule="evenodd" d="M305.65 79.7715L304.518 86.1902L302.419 98.0959L298.935 121.542H314.493L317.978 98.0959H329.016L331.115 86.1902H320.077L321.902 75.8374H332.94L335.04 63.9318H324.948C319.551 63.9318 315.214 65.2776 311.936 67.9693C308.67 70.592 306.575 74.5261 305.65 79.7715Z"/>
<path d="M349.639 121.542C344.313 121.542 340.613 120.265 338.541 117.712C336.538 115.158 335.963 111.466 336.815 106.634L343.694 63.9318H359.253L351.844 109.637H358.782L356.683 121.542H349.639Z"/>
<path d="M407.508 119.542C404.705 119.542 402.509 118.68 400.921 116.954C399.404 115.229 398.655 112.917 398.675 110.018H398.045C396.583 113.538 394.251 116.229 391.049 118.093C387.859 119.887 384.162 120.785 379.957 120.785C374.42 120.785 370.436 119.335 368.004 116.437C365.571 113.538 364.775 109.707 365.615 104.945C366.625 99.2164 369.476 94.9718 374.167 92.2111C378.941 89.3813 384.973 87.9664 392.261 87.9664H400.987L401.589 84.55C402.052 81.9273 401.716 79.8567 400.582 78.3383C399.46 76.7509 397.252 75.9572 393.958 75.9572C390.875 75.9572 388.306 76.6129 386.253 77.9242C384.2 79.2356 382.431 80.7195 380.948 82.3759L373.12 74.3007C375.935 71.0569 379.183 68.5377 382.863 66.7432C386.626 64.8797 391.416 63.948 397.232 63.948C405.082 63.948 410.671 65.6389 413.999 69.0208C417.327 72.4027 418.419 77.3376 417.275 83.8253L413.077 107.637H418.228L416.129 119.542H407.508ZM387.619 110.121C390.212 110.121 392.517 109.569 394.534 108.465C396.621 107.361 397.884 105.566 398.322 103.081L399.453 96.6627H391.884C385.787 96.6627 382.38 98.6988 381.662 102.771L381.388 104.324C381.035 106.325 381.404 107.809 382.495 108.775C383.598 109.673 385.306 110.121 387.619 110.121Z"/>
<path d="M446.929 120.785C442.795 120.785 439.231 120.129 436.238 118.818C433.258 117.437 430.894 115.539 429.148 113.124C427.413 110.639 426.296 107.637 425.795 104.117C425.294 100.597 425.427 96.6627 426.194 92.3146C426.961 87.9664 428.209 84.0669 429.939 80.6159C431.681 77.096 433.857 74.0937 436.468 71.609C439.078 69.1244 442.111 67.2263 445.566 65.915C449.021 64.6036 452.816 63.948 456.951 63.948C462.558 63.948 466.999 65.1903 470.276 67.675C473.622 70.1596 475.706 73.6451 476.527 78.1313L462.962 83.5147C462.837 81.4442 462.131 79.6842 460.845 78.2348C459.558 76.7854 457.549 76.0607 454.815 76.0607C451.662 76.0607 449.096 77.096 447.119 79.1666C445.155 81.1681 443.868 83.8943 443.259 87.3452L441.47 97.491C440.862 100.942 441.187 103.668 442.446 105.67C443.705 107.671 445.911 108.672 449.065 108.672C451.869 108.672 454.204 107.947 456.071 106.498C458.021 104.979 459.594 103.012 460.791 100.597L471.968 105.773C469.233 110.95 465.725 114.746 461.445 117.161C457.234 119.577 452.396 120.785 446.929 120.785Z"/>
<path d="M502.314 120.785C498.109 120.785 494.476 120.129 491.413 118.818C488.362 117.437 485.894 115.539 484.007 113.124C482.202 110.639 481.015 107.637 480.444 104.117C479.943 100.597 480.076 96.6627 480.843 92.3146C481.597 88.0354 482.84 84.1704 484.569 80.7195C486.311 77.1995 488.488 74.1972 491.099 71.7125C493.779 69.2279 496.847 67.3299 500.302 66.0185C503.769 64.6382 507.571 63.948 511.705 63.948C516.261 63.948 520.017 64.7072 522.973 66.2256C525.999 67.744 528.303 69.78 529.885 72.3337C531.537 74.8874 532.521 77.8552 532.836 81.2371C533.233 84.55 533.109 88.0354 532.464 91.6934L531.66 96.2486H496.233L496.087 97.0769C495.454 100.666 495.931 103.53 497.516 105.67C499.113 107.74 502.014 108.775 506.219 108.775C509.443 108.775 512.18 108.154 514.432 106.912C516.696 105.601 518.862 104.048 520.93 102.253L527.03 111.778C524.078 114.608 520.465 116.816 516.19 118.404C511.986 119.991 507.36 120.785 502.314 120.785ZM510.031 75.2325C506.877 75.2325 504.207 76.2678 502.02 78.3383C499.915 80.3399 498.564 83.0316 497.968 86.4135L497.822 87.2417H517.165L517.329 86.31C517.913 82.9971 517.611 80.3399 516.422 78.3383C515.315 76.2678 513.185 75.2325 510.031 75.2325Z"/>
</mask>
<path d="M226.867 67.3927C223.713 67.3927 221.522 66.7025 220.293 65.3221C219.147 63.8727 218.769 62.0437 219.158 59.8351L219.56 57.5575C219.949 55.3489 220.967 53.5545 222.612 52.1741C224.339 50.7247 226.78 50 229.933 50C233.087 50 235.237 50.7247 236.383 52.1741C237.611 53.5545 238.031 55.3489 237.641 57.5575L237.24 59.8351C236.85 62.0437 235.792 63.8727 234.065 65.3221C232.42 66.7025 230.02 67.3927 226.867 67.3927ZM218.065 73.1902H233.623L225.04 121.542H209.481L218.065 73.1902Z" fill="black"/>
<path d="M237.852 121.542L246.435 70.1902H261.994L260.369 77.4042H261C262.48 74.5744 263.682 73.0706 266.5 71C269.318 68.9294 274.384 68.8958 278.192 68.9479C282 69 287.815 70.8114 290.031 74.5384C292.318 78.2654 293.852 83.5798 292.635 90.4817L286.63 121.542H271.071L276.858 94.724C277.478 91.204 277.374 88.6158 276.545 86.9594C275.728 85.2339 273.883 84.3712 271.009 84.3712C269.748 84.3712 268.491 84.5438 267.239 84.8889C265.998 85.1649 264.827 85.6481 263.724 86.3382C262.691 87.0284 261.803 87.8912 261.06 88.9264C260.329 89.8927 259.848 91.0315 259.617 92.3429L253.41 121.542H237.852Z" fill="black"/>
<path fill-rule="evenodd" clip-rule="evenodd" d="M305.65 79.7715L304.518 86.1902L302.419 98.0959L298.935 121.542H314.493L317.978 98.0959H329.016L331.115 86.1902H320.077L321.902 75.8374H332.94L335.04 63.9318H324.948C319.551 63.9318 315.214 65.2776 311.936 67.9693C308.67 70.592 306.575 74.5261 305.65 79.7715Z" fill="black"/>
<path d="M349.639 121.542C344.313 121.542 340.613 120.265 338.541 117.712C336.538 115.158 335.963 111.466 336.815 106.634L343.694 63.9318H359.253L351.844 109.637H358.782L356.683 121.542H349.639Z" fill="black"/>
<path d="M407.508 119.542C404.705 119.542 402.509 118.68 400.921 116.954C399.404 115.229 398.655 112.917 398.675 110.018H398.045C396.583 113.538 394.251 116.229 391.049 118.093C387.859 119.887 384.162 120.785 379.957 120.785C374.42 120.785 370.436 119.335 368.004 116.437C365.571 113.538 364.775 109.707 365.615 104.945C366.625 99.2164 369.476 94.9718 374.167 92.2111C378.941 89.3813 384.973 87.9664 392.261 87.9664H400.987L401.589 84.55C402.052 81.9273 401.716 79.8567 400.582 78.3383C399.46 76.7509 397.252 75.9572 393.958 75.9572C390.875 75.9572 388.306 76.6129 386.253 77.9242C384.2 79.2356 382.431 80.7195 380.948 82.3759L373.12 74.3007C375.935 71.0569 379.183 68.5377 382.863 66.7432C386.626 64.8797 391.416 63.948 397.232 63.948C405.082 63.948 410.671 65.6389 413.999 69.0208C417.327 72.4027 418.419 77.3376 417.275 83.8253L413.077 107.637H418.228L416.129 119.542H407.508ZM387.619 110.121C390.212 110.121 392.517 109.569 394.534 108.465C396.621 107.361 397.884 105.566 398.322 103.081L399.453 96.6627H391.884C385.787 96.6627 382.38 98.6988 381.662 102.771L381.388 104.324C381.035 106.325 381.404 107.809 382.495 108.775C383.598 109.673 385.306 110.121 387.619 110.121Z" fill="black"/>
<path d="M446.929 120.785C442.795 120.785 439.231 120.129 436.238 118.818C433.258 117.437 430.894 115.539 429.148 113.124C427.413 110.639 426.296 107.637 425.795 104.117C425.294 100.597 425.427 96.6627 426.194 92.3146C426.961 87.9664 428.209 84.0669 429.939 80.6159C431.681 77.096 433.857 74.0937 436.468 71.609C439.078 69.1244 442.111 67.2263 445.566 65.915C449.021 64.6036 452.816 63.948 456.951 63.948C462.558 63.948 466.999 65.1903 470.276 67.675C473.622 70.1596 475.706 73.6451 476.527 78.1313L462.962 83.5147C462.837 81.4442 462.131 79.6842 460.845 78.2348C459.558 76.7854 457.549 76.0607 454.815 76.0607C451.662 76.0607 449.096 77.096 447.119 79.1666C445.155 81.1681 443.868 83.8943 443.259 87.3452L441.47 97.491C440.862 100.942 441.187 103.668 442.446 105.67C443.705 107.671 445.911 108.672 449.065 108.672C451.869 108.672 454.204 107.947 456.071 106.498C458.021 104.979 459.594 103.012 460.791 100.597L471.968 105.773C469.233 110.95 465.725 114.746 461.445 117.161C457.234 119.577 452.396 120.785 446.929 120.785Z" fill="black"/>
<path d="M502.314 120.785C498.109 120.785 494.476 120.129 491.413 118.818C488.362 117.437 485.894 115.539 484.007 113.124C482.202 110.639 481.015 107.637 480.444 104.117C479.943 100.597 480.076 96.6627 480.843 92.3146C481.597 88.0354 482.84 84.1704 484.569 80.7195C486.311 77.1995 488.488 74.1972 491.099 71.7125C493.779 69.2279 496.847 67.3299 500.302 66.0185C503.769 64.6382 507.571 63.948 511.705 63.948C516.261 63.948 520.017 64.7072 522.973 66.2256C525.999 67.744 528.303 69.78 529.885 72.3337C531.537 74.8874 532.521 77.8552 532.836 81.2371C533.233 84.55 533.109 88.0354 532.464 91.6934L531.66 96.2486H496.233L496.087 97.0769C495.454 100.666 495.931 103.53 497.516 105.67C499.113 107.74 502.014 108.775 506.219 108.775C509.443 108.775 512.18 108.154 514.432 106.912C516.696 105.601 518.862 104.048 520.93 102.253L527.03 111.778C524.078 114.608 520.465 116.816 516.19 118.404C511.986 119.991 507.36 120.785 502.314 120.785ZM510.031 75.2325C506.877 75.2325 504.207 76.2678 502.02 78.3383C499.915 80.3399 498.564 83.0316 497.968 86.4135L497.822 87.2417H517.165L517.329 86.31C517.913 82.9971 517.611 80.3399 516.422 78.3383C515.315 76.2678 513.185 75.2325 510.031 75.2325Z" fill="black"/>
<path d="M226.867 67.3927C223.713 67.3927 221.522 66.7025 220.293 65.3221C219.147 63.8727 218.769 62.0437 219.158 59.8351L219.56 57.5575C219.949 55.3489 220.967 53.5545 222.612 52.1741C224.339 50.7247 226.78 50 229.933 50C233.087 50 235.237 50.7247 236.383 52.1741C237.611 53.5545 238.031 55.3489 237.641 57.5575L237.24 59.8351C236.85 62.0437 235.792 63.8727 234.065 65.3221C232.42 66.7025 230.02 67.3927 226.867 67.3927ZM218.065 73.1902H233.623L225.04 121.542H209.481L218.065 73.1902Z" stroke="black" stroke-width="1.70935" mask="url(#path-3-outside-1_2393_17081)"/>
<path d="M237.852 121.542L246.435 70.1902H261.994L260.369 77.4042H261C262.48 74.5744 263.682 73.0706 266.5 71C269.318 68.9294 274.384 68.8958 278.192 68.9479C282 69 287.815 70.8114 290.031 74.5384C292.318 78.2654 293.852 83.5798 292.635 90.4817L286.63 121.542H271.071L276.858 94.724C277.478 91.204 277.374 88.6158 276.545 86.9594C275.728 85.2339 273.883 84.3712 271.009 84.3712C269.748 84.3712 268.491 84.5438 267.239 84.8889C265.998 85.1649 264.827 85.6481 263.724 86.3382C262.691 87.0284 261.803 87.8912 261.06 88.9264C260.329 89.8927 259.848 91.0315 259.617 92.3429L253.41 121.542H237.852Z" stroke="black" stroke-width="1.70935" mask="url(#path-3-outside-1_2393_17081)"/>
<path fill-rule="evenodd" clip-rule="evenodd" d="M305.65 79.7715L304.518 86.1902L302.419 98.0959L298.935 121.542H314.493L317.978 98.0959H329.016L331.115 86.1902H320.077L321.902 75.8374H332.94L335.04 63.9318H324.948C319.551 63.9318 315.214 65.2776 311.936 67.9693C308.67 70.592 306.575 74.5261 305.65 79.7715Z" stroke="black" stroke-width="1.70935" mask="url(#path-3-outside-1_2393_17081)"/>
<path d="M349.639 121.542C344.313 121.542 340.613 120.265 338.541 117.712C336.538 115.158 335.963 111.466 336.815 106.634L343.694 63.9318H359.253L351.844 109.637H358.782L356.683 121.542H349.639Z" stroke="black" stroke-width="1.70935" mask="url(#path-3-outside-1_2393_17081)"/>
<path d="M407.508 119.542C404.705 119.542 402.509 118.68 400.921 116.954C399.404 115.229 398.655 112.917 398.675 110.018H398.045C396.583 113.538 394.251 116.229 391.049 118.093C387.859 119.887 384.162 120.785 379.957 120.785C374.42 120.785 370.436 119.335 368.004 116.437C365.571 113.538 364.775 109.707 365.615 104.945C366.625 99.2164 369.476 94.9718 374.167 92.2111C378.941 89.3813 384.973 87.9664 392.261 87.9664H400.987L401.589 84.55C402.052 81.9273 401.716 79.8567 400.582 78.3383C399.46 76.7509 397.252 75.9572 393.958 75.9572C390.875 75.9572 388.306 76.6129 386.253 77.9242C384.2 79.2356 382.431 80.7195 380.948 82.3759L373.12 74.3007C375.935 71.0569 379.183 68.5377 382.863 66.7432C386.626 64.8797 391.416 63.948 397.232 63.948C405.082 63.948 410.671 65.6389 413.999 69.0208C417.327 72.4027 418.419 77.3376 417.275 83.8253L413.077 107.637H418.228L416.129 119.542H407.508ZM387.619 110.121C390.212 110.121 392.517 109.569 394.534 108.465C396.621 107.361 397.884 105.566 398.322 103.081L399.453 96.6627H391.884C385.787 96.6627 382.38 98.6988 381.662 102.771L381.388 104.324C381.035 106.325 381.404 107.809 382.495 108.775C383.598 109.673 385.306 110.121 387.619 110.121Z" stroke="black" stroke-width="1.70935" mask="url(#path-3-outside-1_2393_17081)"/>
<path d="M446.929 120.785C442.795 120.785 439.231 120.129 436.238 118.818C433.258 117.437 430.894 115.539 429.148 113.124C427.413 110.639 426.296 107.637 425.795 104.117C425.294 100.597 425.427 96.6627 426.194 92.3146C426.961 87.9664 428.209 84.0669 429.939 80.6159C431.681 77.096 433.857 74.0937 436.468 71.609C439.078 69.1244 442.111 67.2263 445.566 65.915C449.021 64.6036 452.816 63.948 456.951 63.948C462.558 63.948 466.999 65.1903 470.276 67.675C473.622 70.1596 475.706 73.6451 476.527 78.1313L462.962 83.5147C462.837 81.4442 462.131 79.6842 460.845 78.2348C459.558 76.7854 457.549 76.0607 454.815 76.0607C451.662 76.0607 449.096 77.096 447.119 79.1666C445.155 81.1681 443.868 83.8943 443.259 87.3452L441.47 97.491C440.862 100.942 441.187 103.668 442.446 105.67C443.705 107.671 445.911 108.672 449.065 108.672C451.869 108.672 454.204 107.947 456.071 106.498C458.021 104.979 459.594 103.012 460.791 100.597L471.968 105.773C469.233 110.95 465.725 114.746 461.445 117.161C457.234 119.577 452.396 120.785 446.929 120.785Z" stroke="black" stroke-width="1.70935" mask="url(#path-3-outside-1_2393_17081)"/>
<path d="M502.314 120.785C498.109 120.785 494.476 120.129 491.413 118.818C488.362 117.437 485.894 115.539 484.007 113.124C482.202 110.639 481.015 107.637 480.444 104.117C479.943 100.597 480.076 96.6627 480.843 92.3146C481.597 88.0354 482.84 84.1704 484.569 80.7195C486.311 77.1995 488.488 74.1972 491.099 71.7125C493.779 69.2279 496.847 67.3299 500.302 66.0185C503.769 64.6382 507.571 63.948 511.705 63.948C516.261 63.948 520.017 64.7072 522.973 66.2256C525.999 67.744 528.303 69.78 529.885 72.3337C531.537 74.8874 532.521 77.8552 532.836 81.2371C533.233 84.55 533.109 88.0354 532.464 91.6934L531.66 96.2486H496.233L496.087 97.0769C495.454 100.666 495.931 103.53 497.516 105.67C499.113 107.74 502.014 108.775 506.219 108.775C509.443 108.775 512.18 108.154 514.432 106.912C516.696 105.601 518.862 104.048 520.93 102.253L527.03 111.778C524.078 114.608 520.465 116.816 516.19 118.404C511.986 119.991 507.36 120.785 502.314 120.785ZM510.031 75.2325C506.877 75.2325 504.207 76.2678 502.02 78.3383C499.915 80.3399 498.564 83.0316 497.968 86.4135L497.822 87.2417H517.165L517.329 86.31C517.913 82.9971 517.611 80.3399 516.422 78.3383C515.315 76.2678 513.185 75.2325 510.031 75.2325Z" stroke="black" stroke-width="1.70935" mask="url(#path-3-outside-1_2393_17081)"/>
<defs>
<linearGradient id="paint0_linear_2393_17081" x1="6.34397" y1="28.1787" x2="164.723" y2="193.186" gradientUnits="userSpaceOnUse">
<stop stop-color="#5A44F2"/>
<stop offset="1" stop-color="#4E8EE7"/>
</linearGradient>
<linearGradient id="paint1_linear_2393_17081" x1="6.34397" y1="28.1787" x2="164.723" y2="193.186" gradientUnits="userSpaceOnUse">
<stop stop-color="#5A44F2"/>
<stop offset="1" stop-color="#4E8EE7"/>
</linearGradient>
</defs>
</svg>
