<svg width="100%" height="100%" viewBox="0 0 86 28" fill="none" xmlns="http://www.w3.org/2000/svg">
<rect width="28.56" height="28" rx="2.8" fill="#F3EEFF"/>
<path d="M19.3194 23.1716C17.7115 23.1716 16.5963 22.8305 15.9736 22.1483C15.351 21.4662 15.1603 20.5049 15.4014 19.2646L18.2749 4.48145H22.9524L20.1763 18.7628H22.6978L21.8408 23.1716H19.3194ZM6.76479 14.3731H3.95103L4.6809 10.6183H7.49466L7.82562 8.91565C8.10288 7.48926 8.75436 6.39363 9.78005 5.62876C10.8301 4.86389 12.22 4.48145 13.9496 4.48145H17.275L16.5996 7.95581H12.6896L12.1721 10.6183H16.0821L15.3522 14.3731H11.4422L9.73196 23.1716H5.05454L6.76479 14.3731Z" fill="url(#paint0_linear_1455_3584)"/>
<path d="M38.3416 11.0933C37.9416 11.0933 37.6688 11.0049 37.5231 10.8282C37.3875 10.6516 37.3463 10.4258 37.3998 10.1509L37.457 9.85644C37.5104 9.58158 37.6393 9.35581 37.8437 9.17912C38.058 9.00242 38.3652 8.91408 38.7652 8.91408C39.1552 8.91408 39.423 9.00242 39.5687 9.17912C39.7143 9.35581 39.7604 9.58158 39.707 9.85644L39.6498 10.1509C39.5963 10.4258 39.4625 10.6516 39.2481 10.8282C39.0338 11.0049 38.7316 11.0933 38.3416 11.0933ZM37.1641 12.2123H39.0841L37.59 19.8985H35.67L37.1641 12.2123ZM40.1155 19.8985L41.6096 12.2123H43.5296L43.2806 13.4934H43.3556C43.5957 13.0811 43.9125 12.7375 44.3059 12.4627C44.7113 12.178 45.2189 12.0357 45.8289 12.0357C46.6389 12.0357 47.2084 12.2958 47.5372 12.816C47.8661 13.3363 47.937 14.0774 47.75 15.0394L46.8055 19.8985H44.8855L45.7928 15.2308C45.8997 14.6811 45.8798 14.2689 45.7333 13.994C45.5867 13.7191 45.2834 13.5817 44.8234 13.5817C44.6234 13.5817 44.4227 13.6112 44.2212 13.6701C44.0317 13.7191 43.8514 13.7977 43.6804 13.9057C43.5214 14.0038 43.3815 14.1314 43.261 14.2885C43.1424 14.4357 43.0631 14.6124 43.023 14.8186L42.0355 19.8985H40.1155ZM56.4039 19.8985C55.7439 19.8985 55.2904 19.7365 55.0434 19.4126C54.7963 19.0886 54.73 18.6322 54.8445 18.0432L56.6019 9.00242H58.5219L56.6958 18.3966H57.7308L57.4389 19.8985H56.4039ZM50.8289 13.6995H49.6739L49.9629 12.2123H51.1179L51.3326 11.108C51.4643 10.4307 51.7454 9.91043 52.176 9.54723C52.6166 9.18402 53.1919 9.00242 53.9019 9.00242H55.2669L54.9749 10.5043H53.3699L53.0379 12.2123H54.6429L54.3539 13.6995H52.7489L51.5439 19.8985H49.6239L50.8289 13.6995ZM64.9472 19.8985C64.5272 19.8985 64.2151 19.7807 64.0109 19.5451C63.8186 19.2997 63.7316 18.9758 63.7498 18.5733H63.6598C63.4325 19.0739 63.094 19.4518 62.6444 19.7071C62.1967 19.9525 61.6779 20.0752 61.0879 20.0752C60.2879 20.0752 59.7129 19.869 59.3631 19.4568C59.0132 19.0445 58.9051 18.4948 59.0386 17.8076C59.1932 17.0125 59.5977 16.4235 60.2521 16.0407C60.9084 15.648 61.7716 15.4517 62.8416 15.4517H64.1766L64.2853 14.8922C64.3693 14.4603 64.3192 14.1265 64.135 13.8909C63.9508 13.6553 63.6037 13.5375 63.0937 13.5375C62.6437 13.5375 62.2596 13.6357 61.9414 13.832C61.6352 14.0185 61.3613 14.2443 61.1198 14.5094L60.1744 13.5081C60.5503 13.0664 61.0039 12.713 61.5355 12.4479C62.0689 12.1731 62.7306 12.0357 63.5206 12.0357C64.5806 12.0357 65.3398 12.2712 65.7982 12.7424C66.2566 13.2136 66.4 13.8909 66.2282 14.7744L65.5242 18.3966H66.3042L66.0122 19.8985H64.9472ZM61.9991 18.7058C62.4291 18.7058 62.8122 18.6126 63.1484 18.426C63.4847 18.2395 63.6881 17.9647 63.7587 17.6015L63.9562 16.5855H62.7262C61.7262 16.5855 61.1651 16.8996 61.043 17.5279L60.9944 17.7782C60.9333 18.0923 60.9875 18.3279 61.157 18.4849C61.3384 18.6322 61.6191 18.7058 61.9991 18.7058ZM70.9218 20.0752C70.3418 20.0752 69.8449 19.9819 69.4312 19.7954C69.0174 19.6089 68.6899 19.339 68.4486 18.9856C68.2173 18.6322 68.0693 18.2101 68.0047 17.7193C67.942 17.2186 67.9708 16.6591 68.091 16.0407C68.2112 15.4223 68.399 14.8676 68.6544 14.3768C68.9098 13.886 69.2209 13.4688 69.5877 13.1253C69.9664 12.7719 70.3989 12.5019 70.8851 12.3154C71.3714 12.1289 71.9045 12.0357 72.4845 12.0357C73.2745 12.0357 73.8911 12.2074 74.3343 12.551C74.7876 12.8946 75.07 13.3707 75.1817 13.9793L73.4722 14.6713C73.4452 14.3474 73.3267 14.0823 73.1167 13.8762C72.9187 13.6602 72.6097 13.5523 72.1897 13.5523C71.6497 13.5523 71.2123 13.7191 70.8774 14.0529C70.5525 14.3866 70.3376 14.8235 70.2327 15.3634L69.9608 16.7622C69.8558 17.3021 69.9009 17.7389 70.096 18.0727C70.3031 18.3966 70.6766 18.5586 71.2166 18.5586C71.6766 18.5586 72.0535 18.4457 72.3474 18.2199C72.6432 17.9843 72.8945 17.6947 73.1013 17.3512L74.4368 18.0432C74.0451 18.7205 73.5509 19.231 72.9541 19.5745C72.3592 19.9083 71.6818 20.0752 70.9218 20.0752ZM78.914 20.0752C78.334 20.0752 77.8321 19.9819 77.4084 19.7954C76.9965 19.5991 76.664 19.3291 76.4108 18.9856C76.1695 18.6322 76.0115 18.2101 75.9369 17.7193C75.8642 17.2186 75.888 16.6591 76.0082 16.0407C76.1265 15.4321 76.3134 14.8824 76.5688 14.3916C76.8342 13.9007 77.1553 13.4836 77.532 13.14C77.9107 12.7866 78.3432 12.5166 78.8295 12.3301C79.3176 12.1338 79.8467 12.0357 80.4167 12.0357C81.0267 12.0357 81.5367 12.1387 81.9466 12.3449C82.3565 12.551 82.6721 12.8308 82.8935 13.1842C83.1148 13.5375 83.2496 13.9498 83.298 14.421C83.3584 14.8824 83.337 15.3781 83.234 15.9082L83.1137 16.5266H77.9087L77.8715 16.718C77.7628 17.2775 77.835 17.7291 78.0882 18.0727C78.3433 18.4064 78.7859 18.5733 79.4159 18.5733C79.8959 18.5733 80.305 18.4751 80.6432 18.2788C80.9913 18.0825 81.315 17.8322 81.6141 17.5279L82.4287 18.6616C82.0229 19.1034 81.5151 19.4518 80.9055 19.7071C80.3078 19.9525 79.644 20.0752 78.914 20.0752ZM80.1719 13.4492C79.6619 13.4492 79.2245 13.6161 78.8596 13.9498C78.4947 14.2836 78.2608 14.7155 78.1578 15.2456L78.1349 15.3634H81.3449L81.3706 15.2308C81.4737 14.7008 81.4217 14.2738 81.2146 13.9498C81.0195 13.6161 80.6719 13.4492 80.1719 13.4492Z" fill="#121212"/>
<defs>
<linearGradient id="paint0_linear_1455_3584" x1="4.50024" y1="4" x2="26.7166" y2="28.9266" gradientUnits="userSpaceOnUse">
<stop stop-color="#5A44F2"/>
<stop offset="1" stop-color="#4E8EE7"/>
</linearGradient>
</defs>
</svg>
