<svg width="24" height="24" viewBox="0 0 24 24" fill="none" xmlns="http://www.w3.org/2000/svg">
<path d="M11.9999 8.45117C16.5358 8.45117 20.1823 11.1484 21.7402 14.9473C21.8199 15.1418 21.8199 15.3602 21.7402 15.5547C20.1823 19.3535 16.5358 22.0508 11.9999 22.0508C7.46422 22.0505 3.81746 19.3535 2.25967 15.5547C2.18004 15.3603 2.18004 15.1416 2.25967 14.9473C3.81746 11.1485 7.46422 8.45142 11.9999 8.45117ZM11.9999 10.0508C8.26315 10.051 5.25697 12.188 3.87003 15.251C5.25697 18.314 8.26315 20.4509 11.9999 20.4512C15.7367 20.4512 18.7417 18.3138 20.1288 15.251C18.7417 12.1881 15.7367 10.0508 11.9999 10.0508ZM11.9999 11.4512C13.0076 11.4512 13.9738 11.852 14.6864 12.5645C15.3991 13.2771 15.7997 14.2432 15.7997 15.251C15.7997 16.2588 15.3991 17.2249 14.6864 17.9375C13.9738 18.6499 13.0076 19.0508 11.9999 19.0508C10.9923 19.0506 10.0259 18.65 9.31339 17.9375C8.60095 17.2249 8.20011 16.2587 8.20011 15.251C8.20011 14.2433 8.60095 13.2771 9.31339 12.5645C10.0259 11.852 10.9923 11.4513 11.9999 11.4512ZM11.9999 13.0508C11.4167 13.0509 10.8567 13.2829 10.4443 13.6953C10.0319 14.1079 9.79972 14.6676 9.79972 15.251C9.79972 15.8343 10.0319 16.3941 10.4443 16.8066C10.8567 17.2191 11.4167 17.451 11.9999 17.4512C12.5833 17.4512 13.143 17.219 13.5556 16.8066C13.9682 16.3941 14.2001 15.8345 14.2001 15.251C14.2001 14.6675 13.9682 14.1079 13.5556 13.6953C13.143 13.2829 12.5833 13.0508 11.9999 13.0508ZM7.71964 1.94922C7.89562 1.94922 8.06745 2.0053 8.19718 2.10938C8.32751 2.21399 8.40714 2.36096 8.40714 2.52051V6.57715C8.4072 6.7076 8.3541 6.83124 8.26164 6.92969C8.16942 7.02777 8.0421 7.09598 7.90226 7.12793C7.76244 7.15977 7.6135 7.15466 7.47745 7.1123C7.34146 7.0699 7.22187 6.99139 7.14054 6.88574V6.88672L5.27823 4.47363C5.27727 4.47344 5.27574 4.4737 5.27433 4.47363V6.57715C5.27424 6.73655 5.19554 6.88372 5.06534 6.98828C4.93561 7.09238 4.76282 7.14844 4.58683 7.14844C4.41099 7.14831 4.23889 7.09232 4.10929 6.98828C3.97911 6.88373 3.90038 6.73654 3.9003 6.57715V2.52051C3.90049 2.39017 3.95332 2.26624 4.04581 2.16797C4.13793 2.07014 4.26466 2.00166 4.40421 1.96973C4.54365 1.93788 4.69223 1.94337 4.82804 1.98535C4.96394 2.02749 5.0834 2.10564 5.16495 2.21094L7.02823 4.62305C7.02909 4.62329 7.03079 4.623 7.03214 4.62305V2.52051C7.03214 2.36102 7.11186 2.21399 7.2421 2.10938C7.37179 2.00527 7.54368 1.94927 7.71964 1.94922ZM12.8925 1.97363C13.0685 1.97363 13.2413 2.02972 13.371 2.13379C13.5013 2.23841 13.58 2.38635 13.58 2.5459C13.5799 2.70527 13.5012 2.85251 13.371 2.95703C13.2413 3.06112 13.0685 3.11719 12.8925 3.11719H10.7362V4.06543H12.8554C13.0313 4.06544 13.2032 4.12159 13.3329 4.22559C13.4632 4.33016 13.5428 4.47725 13.5429 4.63672C13.5429 4.79626 13.4633 4.94323 13.3329 5.04785C13.2032 5.15194 13.0314 5.208 12.8554 5.20801H10.7362V6.00195H12.8925C13.0685 6.00195 13.2413 6.05801 13.371 6.16211C13.5012 6.26671 13.58 6.4138 13.58 6.57324C13.58 6.73268 13.5012 6.87979 13.371 6.98438C13.2413 7.08847 13.0685 7.14453 12.8925 7.14453H10.0478C9.69109 7.1444 9.36035 6.90874 9.36027 6.57324V2.5459C9.36027 2.3864 9.43997 2.2384 9.57023 2.13379C9.69987 2.02984 9.87196 1.9737 10.0478 1.97363H12.8925ZM17.0702 2.02441C17.1997 2.02375 17.327 2.06176 17.4325 2.13379C17.5381 2.20588 17.6171 2.30866 17.6562 2.42773L18.3271 4.47461L18.9042 2.44824L18.9052 2.44629C18.95 2.30064 19.0544 2.17921 19.1923 2.10645C19.3301 2.03388 19.4922 2.01457 19.6445 2.05176C19.7968 2.08903 19.9298 2.18071 20.0126 2.30957C20.0956 2.43879 20.1208 2.59467 20.082 2.74219V2.74316L18.957 6.69238C18.9224 6.81422 18.8465 6.92104 18.7421 6.99707C18.6377 7.07309 18.5098 7.115 18.3788 7.11719C18.248 7.11929 18.1187 7.08116 18.0116 7.00879C17.9314 6.95441 17.8662 6.88232 17.8222 6.79883L17.7851 6.71191L17.0859 4.57617L16.4169 6.70703C16.3787 6.82743 16.2995 6.93185 16.1933 7.00488C16.0873 7.0777 15.9593 7.11599 15.829 7.11523C15.6987 7.11436 15.5707 7.07429 15.4657 7C15.3607 6.92558 15.2834 6.82009 15.247 6.69922L14.0585 2.75098C14.0141 2.60314 14.0345 2.44513 14.1152 2.3125C14.1957 2.18022 14.3288 2.08472 14.4823 2.04492C14.636 2.00524 14.8015 2.02371 14.9413 2.09668C15.0812 2.16981 15.1869 2.29279 15.2314 2.44043L15.8447 4.48145L16.4892 2.43457C16.5267 2.31496 16.6051 2.21097 16.7099 2.1377C16.8145 2.06458 16.9409 2.02518 17.0702 2.02441ZM4.47257 7.03906L4.58683 7.04883V7.04785C4.51452 7.04779 4.44409 7.03599 4.37784 7.01562C4.40867 7.02508 4.44007 7.03386 4.47257 7.03906ZM5.00284 6.91016L5.05948 6.85742C5.06248 6.85416 5.06441 6.84999 5.06729 6.84668C5.0479 6.86888 5.02704 6.89072 5.00284 6.91016ZM13.3085 6.90625L13.3652 6.85352C13.3682 6.85026 13.3701 6.84609 13.373 6.84277C13.3536 6.86498 13.3327 6.8868 13.3085 6.90625ZM4.03507 6.73535C4.03613 6.73774 4.03787 6.73981 4.03897 6.74219C4.02776 6.71825 4.01788 6.69413 4.01163 6.66895L4.03507 6.73535ZM13.4804 6.57324L13.4745 6.50391C13.4734 6.49755 13.4702 6.49165 13.4687 6.48535C13.4755 6.5142 13.4804 6.54346 13.4804 6.57324ZM10.665 5.13184C10.6624 5.1339 10.6604 5.1364 10.6581 5.13867C10.6684 5.1284 10.6809 5.1194 10.6962 5.11426L10.665 5.13184ZM15.7948 4.60059C15.7968 4.60186 15.7997 4.60143 15.8017 4.60254C15.7922 4.59727 15.7831 4.591 15.7763 4.58203L15.7948 4.60059ZM10.665 3.04004C10.6617 3.04268 10.659 3.04582 10.6562 3.04883C10.6666 3.03789 10.6802 3.02881 10.6962 3.02344L10.665 3.04004ZM13.3085 2.87891L13.3652 2.82617C13.3693 2.8217 13.372 2.8161 13.3759 2.81152C13.3557 2.83508 13.3341 2.8584 13.3085 2.87891ZM13.4804 2.5459L13.4745 2.47656C13.4734 2.47021 13.4702 2.4643 13.4687 2.45801C13.4755 2.48675 13.4804 2.51622 13.4804 2.5459ZM4.05362 2.32422C4.0351 2.35732 4.02148 2.39205 4.01261 2.42773C4.02155 2.3922 4.035 2.35728 4.05362 2.32422ZM19.9286 2.36328L19.8857 2.30664C19.8829 2.30354 19.8797 2.30089 19.8769 2.29785C19.8958 2.31829 19.9136 2.33983 19.9286 2.36328ZM9.5175 2.34473C9.51557 2.34801 9.51347 2.35118 9.51164 2.35449C9.52513 2.33008 9.54096 2.3065 9.55949 2.28418L9.5175 2.34473ZM7.18937 2.31934C7.18775 2.3221 7.18702 2.32534 7.18546 2.32812C7.19878 2.30429 7.21323 2.28062 7.23136 2.25879L7.18937 2.31934ZM13.3085 2.21191L13.2431 2.16602C13.2359 2.16172 13.2281 2.15831 13.2206 2.1543C13.2519 2.17116 13.2815 2.19022 13.3085 2.21191ZM4.11905 2.23633L4.06729 2.30078C4.06229 2.3084 4.05801 2.31637 4.05362 2.32422C4.07111 2.29317 4.09319 2.26379 4.11905 2.23633Z" fill="black"/>
</svg>
