<svg width="24" height="24" viewBox="0 0 24 24" fill="none" xmlns="http://www.w3.org/2000/svg">
<path d="M12.0001 8.1001C16.6201 8.10044 20.3376 10.8499 21.9249 14.7202C22.0244 14.9631 22.0244 15.237 21.9249 15.48C20.3376 19.3503 16.6201 22.0998 12.0001 22.1001C7.37976 22.1001 3.66273 19.3504 2.07525 15.48C1.97557 15.2369 1.97557 14.9633 2.07525 14.7202C3.66273 10.8498 7.37976 8.1001 12.0001 8.1001ZM12.0001 10.1001C8.37921 10.1001 5.46537 12.1503 4.09284 15.1001C5.46537 18.0499 8.37921 20.1001 12.0001 20.1001C15.6206 20.0998 18.5339 18.0497 19.9064 15.1001C18.5339 12.1505 15.6206 10.1004 12.0001 10.1001ZM12.0001 11.1001C13.0606 11.1003 14.0783 11.522 14.8282 12.272C15.5781 13.0221 16.0001 14.0394 16.0001 15.1001C16.0001 16.1608 15.5781 17.1781 14.8282 17.9282C14.0783 18.6782 13.0606 19.0999 12.0001 19.1001C10.9394 19.1001 9.92206 18.6781 9.17196 17.9282C8.42181 17.1781 8.00008 16.161 8.00008 15.1001C8.00008 14.0392 8.42181 13.0221 9.17196 12.272C9.92206 11.5221 10.9394 11.1001 12.0001 11.1001ZM12.0001 13.1001C11.4699 13.1001 10.9611 13.3112 10.586 13.686C10.2109 14.0611 10.0001 14.5697 10.0001 15.1001C10.0001 15.6305 10.2109 16.1391 10.586 16.5142C10.9611 16.889 11.4699 17.1001 12.0001 17.1001C12.5302 17.0999 13.0393 16.889 13.4142 16.5142C13.789 16.1391 14.0001 15.6303 14.0001 15.1001C14.0001 14.5699 13.789 14.0611 13.4142 13.686C13.0393 13.3112 12.5302 13.1003 12.0001 13.1001ZM7.7198 1.8999C7.91598 1.89999 8.11158 1.96272 8.26082 2.08252C8.41094 2.20331 8.50692 2.37802 8.50692 2.57178V6.62744C8.5071 6.78601 8.4422 6.93414 8.33406 7.04932C8.22671 7.1635 8.08149 7.241 7.92488 7.27686C7.76819 7.31261 7.60131 7.30677 7.44832 7.25928C7.33348 7.22352 7.22692 7.16412 7.1407 7.08447L7.0616 6.99854L5.37507 4.81396V6.62842C5.37499 6.82225 5.27829 6.99692 5.128 7.11768C4.97876 7.23746 4.78315 7.29923 4.58698 7.29932C4.39097 7.29923 4.19614 7.23729 4.04694 7.11768C3.8965 6.99691 3.79995 6.82236 3.79987 6.62842V2.5708C3.80023 2.41262 3.86563 2.26564 3.9737 2.15088C4.08104 2.03704 4.22554 1.95908 4.3819 1.92334C4.53848 1.88763 4.70557 1.89351 4.85847 1.94092C5.01107 1.98833 5.14856 2.07722 5.24421 2.20068L6.93269 4.38623V2.57178C6.93269 2.37773 7.02926 2.20333 7.17976 2.08252C7.32905 1.96283 7.52366 1.89992 7.7198 1.8999ZM12.8927 1.92529C13.0888 1.92538 13.2845 1.98723 13.4337 2.10693C13.584 2.22774 13.6808 2.40323 13.6808 2.59717C13.6806 2.79092 13.5839 2.96571 13.4337 3.08643C13.2845 3.20615 13.0888 3.26798 12.8927 3.26807H10.836V4.01709H12.8556C13.0516 4.01719 13.2464 4.0791 13.3956 4.19873C13.5459 4.3195 13.6426 4.49414 13.6427 4.68799C13.6427 4.88192 13.546 5.05644 13.3956 5.17725C13.2464 5.29698 13.0517 5.35977 12.8556 5.35986H10.836V5.95264H12.8927C13.0888 5.95273 13.2844 6.01545 13.4337 6.13525C13.584 6.25606 13.6808 6.43063 13.6808 6.62451C13.6807 6.81839 13.584 6.99299 13.4337 7.11377C13.2844 7.23357 13.0888 7.29532 12.8927 7.29541H10.0479C9.65776 7.29535 9.2609 7.03482 9.26082 6.62451V2.59717C9.26082 2.40312 9.35739 2.22775 9.50789 2.10693C9.65712 1.98743 9.85196 1.92532 10.0479 1.92529H12.8927ZM17.0704 1.9751C17.2194 1.97446 17.3668 2.01834 17.4894 2.10205C17.6121 2.18599 17.7059 2.3068 17.7521 2.44775L18.3204 4.18311L18.8087 2.47217L18.8097 2.46826C18.8628 2.2957 18.9856 2.15324 19.1456 2.06885C19.3052 1.98489 19.4926 1.96256 19.6681 2.00537C19.8437 2.04842 19.9994 2.15473 20.0968 2.30615C20.1946 2.45847 20.2249 2.64374 20.1788 2.81885L20.1779 2.82275L19.0538 6.771C19.0129 6.9153 18.9224 7.04082 18.8009 7.12939C18.6795 7.21772 18.5317 7.26546 18.381 7.26807C18.2301 7.27058 18.0808 7.22719 17.9562 7.14307C17.8626 7.07978 17.7855 6.99552 17.7335 6.89697L17.6905 6.79443L17.088 4.95557L16.5128 6.7876L16.5118 6.78857C16.4665 6.93099 16.3735 7.0532 16.2501 7.13818C16.1268 7.223 15.9784 7.26698 15.8282 7.26611C15.678 7.26515 15.5305 7.21876 15.4083 7.13232C15.286 7.04571 15.1937 6.92291 15.1505 6.77979V6.77881L13.963 2.83154C13.9101 2.65583 13.9349 2.46772 14.0304 2.31104C14.1254 2.15537 14.2808 2.04529 14.4581 1.99951C14.6353 1.9539 14.8254 1.97455 14.9874 2.05908C15.109 2.12266 15.2098 2.21933 15.2745 2.3374L15.3272 2.4624L15.8468 4.19287L16.3946 2.45557C16.4391 2.31398 16.5305 2.19222 16.6524 2.10693C16.7743 2.02188 16.9213 1.97587 17.0704 1.9751ZM4.58698 7.1001L4.67292 7.09521C4.68085 7.09425 4.6885 7.09156 4.69636 7.09033C4.6605 7.0958 4.624 7.1001 4.58698 7.1001ZM7.87996 7.08252C7.84945 7.08947 7.81838 7.09426 7.78719 7.09717L7.88094 7.08252C7.88332 7.08197 7.8854 7.08016 7.88777 7.07959C7.8852 7.08021 7.88255 7.08193 7.87996 7.08252ZM4.91706 7.01709C4.88735 7.03295 4.85593 7.04656 4.82331 7.05811C4.85426 7.04706 4.88491 7.03514 4.91315 7.02002C4.91457 7.01926 4.91565 7.01786 4.91706 7.01709ZM13.3077 6.95752C13.2542 7.00046 13.1914 7.03372 13.1231 7.05713C13.1562 7.0458 13.1888 7.03314 13.2188 7.01709L13.3087 6.95752C13.3327 6.93821 13.3529 6.91607 13.3722 6.89404C13.3528 6.91624 13.3319 6.93809 13.3077 6.95752ZM5.00202 6.96143C4.99471 6.96729 4.98624 6.97158 4.97858 6.97705C4.9865 6.97142 4.99552 6.96743 5.003 6.96143C5.02851 6.9409 5.05028 6.91764 5.07038 6.89404C5.05011 6.91777 5.02772 6.9408 5.00202 6.96143ZM18.7589 6.89697C18.7361 6.92245 18.7112 6.94658 18.6827 6.96729H18.6837C18.7054 6.95144 18.7258 6.93421 18.7443 6.91553C18.7498 6.90992 18.7537 6.90282 18.7589 6.89697ZM18.8077 6.83252C18.8131 6.82394 18.8176 6.81503 18.8224 6.80615C18.8176 6.81502 18.8131 6.82396 18.8077 6.83252ZM17.004 4.55518L16.3214 6.72803C16.3119 6.75802 16.2969 6.78562 16.2814 6.81299C16.2842 6.80806 16.2895 6.80434 16.2921 6.79932L16.3214 6.72803L17.005 4.55518C17.008 4.54581 17.0122 4.53779 17.0177 4.53076H17.0167C17.0114 4.53775 17.0069 4.5459 17.004 4.55518ZM5.1739 4.50342V6.62842C5.17386 6.68664 5.15935 6.74305 5.13386 6.79639C5.1457 6.77152 5.15665 6.74644 5.16316 6.72021L5.17487 6.62842V4.50342C5.17487 4.49353 5.17619 4.48432 5.17976 4.47607C5.17618 4.48432 5.1739 4.49352 5.1739 4.50342ZM13.4796 6.62451C13.4796 6.68275 13.465 6.73913 13.4395 6.79248C13.4513 6.7679 13.4624 6.74321 13.4688 6.71729L13.4806 6.62451C13.4806 6.59642 13.4759 6.56881 13.4698 6.5415C13.4759 6.56875 13.4796 6.59645 13.4796 6.62451ZM8.29891 6.70459C8.2943 6.72721 8.28702 6.74922 8.2784 6.771C8.2871 6.74918 8.29528 6.72726 8.29988 6.70459L8.30672 6.62842L8.29891 6.70459ZM18.8605 6.71631C18.8587 6.72245 18.8547 6.72783 18.8526 6.73389C18.8547 6.72773 18.8597 6.72255 18.8614 6.71631L19.9855 2.76709L18.8605 6.71631ZM10.6641 6.13037C10.6734 6.13778 10.6844 6.1432 10.6964 6.14697L10.6651 6.13037C10.6559 6.12296 10.6485 6.11351 10.6436 6.104C10.6485 6.1135 10.6549 6.12297 10.6641 6.13037ZM13.2706 5.02197C13.2156 5.06609 13.1507 5.10016 13.0802 5.12354L13.1817 5.08057L13.2706 5.02197ZM15.7628 4.60889C15.7674 4.62395 15.7768 4.63491 15.7872 4.64404C15.7769 4.63498 15.7684 4.62379 15.7638 4.60889L15.1349 2.52002L15.7628 4.60889ZM13.2706 4.35498L13.2042 4.30908C13.1986 4.30575 13.1924 4.30346 13.1866 4.30029C13.2162 4.31659 13.2449 4.33431 13.2706 4.35498ZM13.0626 4.24756C13.0328 4.23852 13.0022 4.23113 12.9708 4.22607L12.9679 4.2251C13.0002 4.23037 13.0319 4.23824 13.0626 4.24756ZM10.6427 4.16846C10.6475 4.17782 10.6551 4.18652 10.6641 4.19385C10.6822 4.20841 10.7069 4.21607 10.7325 4.21631H10.7335C10.7208 4.21623 10.7079 4.21426 10.6964 4.21045L10.6641 4.19385C10.6553 4.18664 10.6484 4.17764 10.6436 4.16846L10.6358 4.13818L10.6427 4.16846ZM12.8927 3.06787L12.9786 3.06299C12.9836 3.0624 12.9883 3.06075 12.9933 3.06006C12.9602 3.06468 12.9267 3.06787 12.8927 3.06787ZM13.3077 2.93018C13.2561 2.9716 13.1955 3.00359 13.13 3.02686C13.1606 3.01599 13.1909 3.00375 13.2188 2.98877L13.3087 2.93018C13.3344 2.90949 13.3559 2.88564 13.3761 2.86182C13.3557 2.8857 13.3336 2.90942 13.3077 2.93018ZM13.4796 2.59717C13.4795 2.65539 13.4651 2.71181 13.4395 2.76514C13.4514 2.74026 13.4623 2.71518 13.4688 2.68896L13.4806 2.59717C13.4806 2.56909 13.4759 2.54147 13.4698 2.51416C13.4759 2.54131 13.4796 2.56921 13.4796 2.59717ZM19.9278 2.41455C19.9605 2.46543 19.982 2.52129 19.9923 2.57861C19.9874 2.55117 19.9809 2.52388 19.9708 2.49756C19.9598 2.46895 19.9458 2.44103 19.9288 2.41455C19.9126 2.38923 19.893 2.36601 19.8722 2.34424C19.8929 2.36595 19.9116 2.38934 19.9278 2.41455ZM13.3087 2.26318C13.2826 2.24228 13.2538 2.22393 13.2237 2.20752C13.2536 2.22388 13.2818 2.24238 13.3077 2.26318C13.3336 2.28396 13.3569 2.30646 13.377 2.33057L13.3087 2.26318ZM19.6202 2.19971C19.6831 2.21509 19.7417 2.24171 19.7931 2.27686C19.7682 2.25986 19.7419 2.24455 19.714 2.23193L19.6212 2.19971H19.6202ZM19.3282 2.2085C19.2972 2.21808 19.2672 2.23047 19.2384 2.24561C19.2964 2.21504 19.3599 2.19579 19.4249 2.18799L19.3282 2.2085ZM13.4288 6.43408C13.4153 6.40957 13.4005 6.38518 13.3819 6.36279C13.3805 6.36103 13.3785 6.35966 13.377 6.35791C13.3972 6.38203 13.4143 6.40777 13.4288 6.43408ZM13.4288 2.40674C13.4153 2.38221 13.4005 2.35783 13.3819 2.33545L13.377 2.33057C13.3972 2.35467 13.4143 2.38038 13.4288 2.40674Z" fill="black"/>
</svg>
