<svg width="24" height="24" viewBox="0 0 24 24" fill="none" xmlns="http://www.w3.org/2000/svg">
<path d="M21.0004 15.2496C21.058 15.2496 21.1144 15.2548 21.1693 15.2642C21.2104 15.2712 21.2513 15.2804 21.2914 15.2925C21.302 15.2957 21.3123 15.2997 21.3227 15.3033C21.4034 15.3307 21.4812 15.3689 21.5541 15.4175C21.6639 15.4908 21.7581 15.5852 21.8315 15.6949C21.8326 15.6966 21.8342 15.698 21.8354 15.6998L21.8793 15.773C21.8955 15.8027 21.9101 15.8333 21.9232 15.8648C21.929 15.8785 21.9328 15.8929 21.9379 15.9068C21.9435 15.9221 21.9506 15.937 21.9555 15.9527L21.9818 16.0582C21.9928 16.1149 21.9983 16.1725 21.9994 16.23C21.9995 16.2365 22.0004 16.243 22.0004 16.2496V19.3052C22.0003 19.8574 21.5525 20.305 21.0004 20.3052C20.4481 20.3052 20.0005 19.8575 20.0004 19.3052V18.6636L18.2074 20.4566C17.8472 20.8169 17.2733 20.849 16.8754 20.5308L15.141 19.1431L13.2689 21.3902C12.9154 21.8144 12.284 21.8715 11.8597 21.5181C11.4356 21.1646 11.3783 20.5332 11.7318 20.109L14.2318 17.1089C14.5804 16.6909 15.2003 16.6282 15.6254 16.9683L17.4262 18.4088L18.5853 17.2496H17.9447C17.3924 17.2496 16.9447 16.8019 16.9447 16.2496C16.9447 15.6973 17.3924 15.2496 17.9447 15.2496H21.0004ZM12.0004 4.24951C16.874 4.2498 20.7157 7.48497 22.3383 11.9048C22.5285 12.4232 22.2628 12.9976 21.7445 13.188C21.2262 13.3783 20.6517 13.1126 20.4613 12.5943C19.076 8.82063 15.8944 6.24981 12.0004 6.24952C8.22608 6.24952 5.12023 8.66414 3.67125 12.2486C4.82393 15.1004 7.02848 17.2113 9.76208 17.9546C10.2948 18.0997 10.6101 18.6494 10.4652 19.1822C10.3202 19.7148 9.77039 20.029 9.23767 19.8843C5.68045 18.9171 2.96142 16.1352 1.66147 12.5943C1.5798 12.3718 1.5798 12.1273 1.66147 11.9048C3.28417 7.48478 7.12644 4.24951 12.0004 4.24951ZM12.0004 8.24953C13.0611 8.2496 14.0784 8.67132 14.8285 9.42141C15.5786 10.1715 16.0004 11.1887 16.0004 12.2495C16.0004 13.3104 15.5786 14.3275 14.8285 15.0777C14.0784 15.8278 13.0611 16.2495 12.0004 16.2496C10.9396 16.2496 9.92237 15.8277 9.17224 15.0777C8.42209 14.3275 8.00036 13.3104 8.00036 12.2495C8.00036 11.1887 8.42209 10.1716 9.17224 9.42141C9.92237 8.67134 10.9396 8.24953 12.0004 8.24953ZM12.0004 10.2495C11.47 10.2495 10.9614 10.4605 10.5863 10.8355C10.2112 11.2106 10.0004 11.7191 10.0004 12.2495C10.0004 12.78 10.2112 13.2885 10.5863 13.6636C10.9614 14.0386 11.47 14.2496 12.0004 14.2496C12.5307 14.2495 13.0394 14.0386 13.4144 13.6636C13.7894 13.2886 14.0004 12.7799 14.0004 12.2495C14.0004 11.7192 13.7894 11.2105 13.4144 10.8355C13.0394 10.4605 12.5307 10.2496 12.0004 10.2495Z" fill="black"/>
</svg>
