<svg width="24" height="24" viewBox="0 0 24 24" fill="none" xmlns="http://www.w3.org/2000/svg">
<path d="M21.0003 15.4502C21.0494 15.4502 21.0973 15.4554 21.1439 15.4639C21.1487 15.4648 21.1537 15.4649 21.1585 15.4658C21.1707 15.4683 21.1827 15.4716 21.1947 15.4746C21.2064 15.4775 21.2182 15.4799 21.2298 15.4834C21.2722 15.4961 21.3128 15.513 21.3519 15.5322C21.4291 15.57 21.5016 15.6205 21.5658 15.6846C21.6295 15.7484 21.6794 15.8208 21.7171 15.8975C21.7354 15.9345 21.7516 15.9727 21.764 16.0127C21.7734 16.0432 21.7798 16.0743 21.7855 16.1055C21.7941 16.1525 21.8001 16.2006 21.8001 16.25V19.3057C21.8001 19.7474 21.4421 20.1054 21.0003 20.1055C20.5586 20.1054 20.2006 19.7474 20.2005 19.3057V18.1807L18.0658 20.3154C17.7775 20.6037 17.3186 20.6297 17.0003 20.375L15.1116 18.8643L13.1146 21.2617C12.8317 21.6011 12.328 21.647 11.9886 21.3643C11.6493 21.0815 11.6033 20.5777 11.8861 20.2383L14.3861 17.2383L14.4408 17.1787C14.7262 16.8985 15.1814 16.87 15.5003 17.125L17.4408 18.6777L19.0687 17.0498H17.9447C17.5029 17.0498 17.1449 16.6918 17.1449 16.25C17.1449 15.8082 17.5029 15.4503 17.9447 15.4502H21.0003ZM12.0003 4.4502C16.7762 4.45037 20.5518 7.61922 22.1507 11.9746C22.3028 12.3892 22.0905 12.8486 21.6761 13.001C21.2614 13.1532 20.801 12.9401 20.6488 12.5254C19.2396 8.68723 15.9923 6.04998 12.0003 6.04981C8.10413 6.04984 4.91728 8.5621 3.45637 12.251C4.62071 15.189 6.8837 17.3789 9.7093 18.1475C10.1357 18.2634 10.3877 18.7035 10.2718 19.1299C10.1558 19.5561 9.71657 19.8071 9.29036 19.6914C5.80458 18.7436 3.12992 16.0149 1.84895 12.5254C1.78375 12.3476 1.78375 12.1524 1.84895 11.9746C3.44784 7.61911 7.22431 4.45023 12.0003 4.4502ZM12.0003 8.4502C13.0081 8.4502 13.9742 8.85087 14.6868 9.56348C15.3995 10.2761 15.8001 11.2422 15.8001 12.25C15.8001 13.2578 15.3995 14.2239 14.6868 14.9365C13.9742 15.6491 13.0081 16.0498 12.0003 16.0498C10.9925 16.0498 10.0264 15.6492 9.3138 14.9365C8.60118 14.2239 8.20051 13.2578 8.20051 12.25C8.20051 11.2422 8.60118 10.2761 9.3138 9.56348C10.0264 8.85086 10.9925 8.45022 12.0003 8.4502ZM12.0003 10.0498C11.4169 10.0498 10.8572 10.2818 10.4447 10.6943C10.0321 11.1069 9.80012 11.6665 9.80012 12.25C9.80012 12.8335 10.0321 13.3931 10.4447 13.8057C10.8572 14.2182 11.4169 14.4502 12.0003 14.4502C12.5838 14.4502 13.1434 14.2182 13.556 13.8057C13.9686 13.3931 14.2005 12.8335 14.2005 12.25C14.2005 11.6665 13.9686 11.1069 13.556 10.6943C13.1434 10.2818 12.5838 10.0498 12.0003 10.0498Z" fill="black"/>
</svg>
