<svg width="24" height="24" viewBox="0 0 24 24" fill="none" xmlns="http://www.w3.org/2000/svg">
<path d="M16 10.6672C16 10.9618 15.8478 11.2445 15.5769 11.4528C15.306 11.6612 14.9386 11.7783 14.5556 11.7783H5.88889L3 14.0005V5.1116C3 4.81691 3.15218 4.5343 3.42307 4.32593C3.69395 4.11755 4.06135 4.00049 4.44444 4.00049H14.5556C14.9386 4.00049 15.306 4.11755 15.5769 4.32593C15.8478 4.5343 16 4.81691 16 5.1116V10.6672Z" fill="white"/>
<path d="M14.5557 3.00049C15.1312 3.00051 15.7198 3.1747 16.1865 3.53369C16.659 3.89716 17 4.45462 17 5.11182V10.6675C16.9999 11.3246 16.659 11.8822 16.1865 12.2456C15.7199 12.6045 15.1311 12.7778 14.5557 12.7778H6.22949L3.60938 14.7935C3.30757 15.0254 2.90015 15.0659 2.55859 14.8979C2.21681 14.7297 2 14.3815 2 14.0005V5.11182C2 4.45462 2.34102 3.89716 2.81348 3.53369C3.28017 3.1747 3.86882 3.00051 4.44434 3.00049H14.5557ZM4.44434 5.00049C4.25394 5.00051 4.1083 5.06098 4.0332 5.11865C4.01631 5.13164 4.00646 5.14348 4 5.15088V11.9692L5.2793 10.9858L5.41699 10.897C5.56139 10.8197 5.72321 10.7779 5.88867 10.7778H14.5557C14.7458 10.7778 14.8916 10.7183 14.9668 10.6606C14.9839 10.6475 14.9936 10.6348 15 10.6274V5.15088C14.9935 5.14348 14.9837 5.13164 14.9668 5.11865C14.8917 5.06098 14.7461 5.00051 14.5557 5.00049H4.44434Z" fill="black"/>
<path fill-rule="evenodd" clip-rule="evenodd" d="M8 11.7637H11.2958V15.8817V19.9997H8V11.7637Z" fill="white"/>
<path d="M16 7.00049L11.2958 11.7637V15.8817V19.9997H11.3601H18.1271C18.6469 19.9998 19.1496 19.7986 19.5446 19.4324C19.9396 19.0662 20.2009 18.5591 20.2814 18.0025L20.9868 13.1287C21.0112 12.96 21.0017 12.7876 20.9587 12.6234C20.9158 12.4592 20.8406 12.307 20.7382 12.1772C20.6359 12.0475 20.5088 11.9434 20.3658 11.872C20.2227 11.8006 20.0671 11.7636 19.9097 11.7637L17 11.7636L17.2431 9.65647C17.2815 9.32397 17.2541 8.98644 17.163 8.66626C17.0718 8.34608 16.9189 8.05057 16.7143 7.79934C16.4395 7.46178 16.1442 7.00049 16 7.00049Z" fill="white"/>
<path d="M16 6.00049C16.2725 6.00049 16.4746 6.10394 16.5703 6.16064C16.6772 6.22392 16.7603 6.29496 16.8145 6.34521C16.9225 6.44559 17.019 6.56074 17.0889 6.64795C17.1629 6.7403 17.2398 6.84333 17.3047 6.9292C17.3741 7.02096 17.4345 7.09897 17.4902 7.16748C17.7828 7.52688 17.9977 7.9451 18.125 8.39209C18.2364 8.78315 18.2786 9.19172 18.252 9.59717L18.2363 9.771L18.1221 10.7632H19.9102C20.2249 10.7632 20.5331 10.8376 20.8125 10.9771C21.0917 11.1164 21.3331 11.3169 21.5234 11.5581C21.7135 11.799 21.849 12.0768 21.9258 12.3706C22.0026 12.6646 22.02 12.9717 21.9766 13.272L21.2715 18.146C21.1597 18.918 20.795 19.6367 20.2246 20.1655C19.6521 20.6963 18.9088 20.9996 18.127 20.9995H8C7.44772 20.9995 7 20.5518 7 19.9995V11.7632C7.00025 11.2111 7.44787 10.7632 8 10.7632H10.8779L15.2881 6.29736L15.3623 6.22998C15.5408 6.08223 15.7662 6.00049 16 6.00049ZM10.2959 12.7632H9V18.9995H10.2959V12.7632ZM12.2959 18.9995H18.127C18.3846 18.9995 18.6468 18.9003 18.8643 18.6987C19.0837 18.4953 19.2426 18.2 19.292 17.8589L19.9971 12.9858C20.0024 12.9489 20.0002 12.9109 19.9912 12.8765C19.9822 12.842 19.9676 12.8148 19.9531 12.7964C19.9389 12.7784 19.9258 12.7705 19.9189 12.7671C19.9156 12.7654 19.9134 12.7645 19.9121 12.7642L19.9102 12.7632H17C16.715 12.7632 16.4436 12.6419 16.2539 12.4292C16.0642 12.2163 15.9741 11.9322 16.0068 11.6489L16.25 9.5415C16.2733 9.33872 16.2562 9.13314 16.2012 8.93994C16.15 8.76017 16.0659 8.59927 15.9609 8.4624L12.2959 12.1733V18.9995Z" fill="black"/>
</svg>
