<svg width="20" height="20" viewBox="0 0 20 20" fill="none" xmlns="http://www.w3.org/2000/svg">
<path d="M13.3314 8.88954C13.3314 9.13511 13.2046 9.37062 12.9788 9.54427C12.7531 9.71791 12.4469 9.81547 12.1277 9.81547H4.90545L2.49805 11.6673V4.25991C2.49805 4.01434 2.62487 3.77883 2.8506 3.60518C3.07634 3.43154 3.38251 3.33398 3.70175 3.33398H12.1277C12.4469 3.33398 12.7531 3.43154 12.9788 3.60518C13.2046 3.77883 13.3314 4.01434 13.3314 4.25991V8.88954Z" fill="#5A44F2"/>
<path d="M12.6654 4.25863C12.6654 4.25476 12.6639 4.20273 12.5726 4.13249C12.4774 4.05928 12.3192 3.99904 12.1283 3.99902H3.70215C3.51125 3.99904 3.35298 4.05928 3.25781 4.13249C3.16651 4.20273 3.16504 4.25476 3.16504 4.25863V10.3117L4.49967 9.28548L4.59163 9.22607C4.68779 9.17467 4.79562 9.14716 4.90576 9.14713H12.1283C12.319 9.14712 12.4774 9.08762 12.5726 9.01448C12.6622 8.94556 12.6653 8.89391 12.6654 8.88835V4.25863ZM13.9984 8.88835C13.9983 9.37551 13.7457 9.79462 13.3856 10.0716C13.0294 10.3455 12.5756 10.4809 12.1283 10.481H5.13281L2.90462 12.194C2.70332 12.3488 2.43175 12.3762 2.20394 12.264C1.97612 12.1518 1.83203 11.9198 1.83203 11.6659V4.25863C1.83203 3.77135 2.08467 3.3524 2.44482 3.07536C2.80108 2.80135 3.25467 2.66603 3.70215 2.66602H12.1283C12.5757 2.66603 13.0293 2.80135 13.3856 3.07536C13.7457 3.3524 13.9984 3.77135 13.9984 4.25863V8.88835Z" fill="white"/>
<path fill-rule="evenodd" clip-rule="evenodd" d="M6.66406 9.80329H9.41053V13.235V16.6667H6.66406V9.80329Z" fill="#5A44F2"/>
<path d="M13.3307 5.83398L9.41053 9.80329V13.235V16.6667H9.46414H15.1034C15.5365 16.6667 15.9554 16.4991 16.2845 16.1939C16.6137 15.8887 16.8315 15.4661 16.8986 15.0023L17.4864 10.9408C17.5068 10.8003 17.4988 10.6566 17.463 10.5198C17.4273 10.3829 17.3646 10.256 17.2793 10.148C17.194 10.0399 17.0881 9.95307 16.9689 9.89357C16.8497 9.83408 16.72 9.80327 16.5888 9.80329L14.1641 9.80329L14.3667 8.0473C14.3986 7.77022 14.3758 7.48894 14.2999 7.22212C14.2239 6.95531 14.0964 6.70905 13.926 6.49969C13.697 6.2184 13.4509 5.83398 13.3307 5.83398Z" fill="#5A44F2"/>
<path d="M13.3312 5.16797C13.5159 5.16797 13.6543 5.23782 13.7218 5.27783C13.7967 5.32216 13.8556 5.37297 13.896 5.41048C13.9768 5.4855 14.0513 5.57356 14.1084 5.64486C14.1682 5.71954 14.2311 5.8028 14.2858 5.87516C14.3435 5.9515 14.395 6.01966 14.4437 6.07943C14.6727 6.36083 14.8417 6.68848 14.9417 7.03971C15.0418 7.39108 15.0715 7.76105 15.0296 8.12451L14.9124 9.13688H16.5897C16.8256 9.13693 17.0568 9.19247 17.2668 9.2972C17.4767 9.40201 17.6591 9.55338 17.8031 9.73584C17.9468 9.9181 18.0499 10.1286 18.1082 10.3519C18.1666 10.5752 18.1795 10.8088 18.1465 11.0371L17.5589 15.098C17.471 15.7054 17.1847 16.2696 16.7386 16.6833C16.2911 17.0981 15.7115 17.3336 15.1037 17.3335H6.66455C6.29636 17.3335 5.99805 17.0352 5.99805 16.667V9.80338C5.99826 9.43537 6.29649 9.13688 6.66455 9.13688H9.13281L12.8568 5.36572L12.9056 5.32096C13.0247 5.22227 13.1752 5.16797 13.3312 5.16797ZM8.74463 10.4707H7.33105V16.0005H8.74463V10.4707ZM10.0776 16.0005H15.1037C15.362 16.0005 15.6212 15.9013 15.832 15.7059C16.0441 15.5093 16.1925 15.2276 16.2389 14.9076L16.8273 10.8459C16.8349 10.7931 16.8315 10.7392 16.8184 10.6888C16.8052 10.6384 16.7832 10.5949 16.7565 10.561C16.7299 10.5274 16.7002 10.5044 16.6719 10.4902C16.6438 10.4762 16.6158 10.4708 16.5897 10.4707H14.1645C13.9744 10.4707 13.793 10.3896 13.6665 10.2477C13.5401 10.1059 13.4804 9.91645 13.5021 9.7277L13.7048 7.97152C13.7267 7.78081 13.7111 7.58737 13.6592 7.40511C13.6073 7.22291 13.521 7.05809 13.4093 6.9209C13.3769 6.88111 13.346 6.83911 13.3149 6.79883L10.0776 10.0776V16.0005Z" fill="white"/>
</svg>
