<svg width="24" height="24" viewBox="0 0 24 24" fill="none" xmlns="http://www.w3.org/2000/svg">
<path d="M19 4.2002C20.5464 4.2002 21.7998 5.4536 21.7998 7V17C21.7998 18.5464 20.5464 19.7998 19 19.7998H5C3.4536 19.7998 2.2002 18.5464 2.2002 17V7C2.2002 5.4536 3.4536 4.2002 5 4.2002H19ZM3.7998 17C3.7998 17.6627 4.33726 18.2002 5 18.2002H19C19.6627 18.2002 20.2002 17.6627 20.2002 17V9.7998H3.7998V17ZM17.5 15.2002C17.9418 15.2002 18.2998 15.5582 18.2998 16C18.2998 16.4418 17.9418 16.7998 17.5 16.7998H15.5C15.0582 16.7998 14.7002 16.4418 14.7002 16C14.7002 15.5582 15.0582 15.2002 15.5 15.2002H17.5ZM5 5.7998C4.33726 5.7998 3.7998 6.33726 3.7998 7V8.2002H20.2002V7C20.2002 6.33726 19.6627 5.7998 19 5.7998H5Z" fill="currentColor"/>
</svg>
