<svg width="24" height="24" viewBox="0 0 24 24" fill="none" xmlns="http://www.w3.org/2000/svg">
<path d="M19 4C20.6569 4 22 5.34315 22 7V17C22 18.6569 20.6569 20 19 20H5C3.34315 20 2 18.6569 2 17V7C2 5.34315 3.34315 4 5 4H19ZM4 17C4 17.5523 4.44772 18 5 18H19C19.5523 18 20 17.5523 20 17V10H4V17ZM17.5 15C18.0523 15 18.5 15.4477 18.5 16C18.5 16.5523 18.0523 17 17.5 17H15.5C14.9477 17 14.5 16.5523 14.5 16C14.5 15.4477 14.9477 15 15.5 15H17.5ZM5 6C4.44772 6 4 6.44772 4 7V8H20V7C20 6.44772 19.5523 6 19 6H5Z" fill="currentColor"/>
</svg>
