<svg width="24" height="24" viewBox="0 0 24 24" fill="none" xmlns="http://www.w3.org/2000/svg">
<path d="M11 5.8291C11.4418 5.8291 11.7998 6.18708 11.7998 6.62891C11.7998 7.07073 11.4418 7.42871 11 7.42871H6C5.33726 7.42871 4.7998 7.96616 4.7998 8.62891V18C4.79985 18.6627 5.33729 19.2002 6 19.2002H15.5C16.1627 19.2002 16.7002 18.6627 16.7002 18V13C16.7002 12.5582 17.0582 12.2002 17.5 12.2002C17.9418 12.2002 18.2998 12.5582 18.2998 13V18C18.2998 19.5464 17.0464 20.7998 15.5 20.7998H6C4.45364 20.7998 3.20024 19.5464 3.2002 18V8.62891C3.2002 7.08251 4.4536 5.8291 6 5.8291H11ZM20.082 3.2041C20.1028 3.20622 20.1232 3.21019 20.1436 3.21387C20.1484 3.21475 20.1534 3.21485 20.1582 3.21582C20.1704 3.21827 20.1823 3.22162 20.1943 3.22461C20.206 3.22753 20.2179 3.22994 20.2295 3.2334C20.2325 3.23428 20.2353 3.23541 20.2383 3.23633C20.2632 3.24409 20.2877 3.25263 20.3115 3.2627C20.3252 3.26849 20.3383 3.2757 20.3516 3.28223C20.4287 3.32003 20.5013 3.37042 20.5654 3.43457C20.6293 3.49839 20.6791 3.57078 20.7168 3.64746C20.7235 3.66114 20.7313 3.67436 20.7373 3.68848C20.7474 3.71227 20.7559 3.73681 20.7637 3.76172C20.7645 3.76428 20.7649 3.76696 20.7656 3.76953C20.7736 3.79625 20.78 3.82332 20.7852 3.85059C20.7894 3.87279 20.7936 3.89516 20.7959 3.91797C20.7986 3.94493 20.7998 3.97231 20.7998 4V10C20.7998 10.4418 20.4418 10.7998 20 10.7998C19.5582 10.7998 19.2002 10.4418 19.2002 10V5.93066L10.5654 14.5654C10.253 14.8778 9.74699 14.8778 9.43457 14.5654C9.12215 14.253 9.12215 13.747 9.43457 13.4346L18.0693 4.7998H14C13.5582 4.7998 13.2002 4.44183 13.2002 4C13.2002 3.55817 13.5582 3.2002 14 3.2002H20C20.0277 3.2002 20.0551 3.20136 20.082 3.2041Z" fill="currentColor"/>
</svg>
