<svg width="24" height="24" viewBox="0 0 24 24" fill="none" xmlns="http://www.w3.org/2000/svg">
<path d="M11.111 5.66602C11.6631 5.66613 12.111 6.1138 12.111 6.66602C12.111 7.21823 11.6631 7.6659 11.111 7.66602H5.77698C5.57085 7.66613 5.37293 7.7478 5.22717 7.89355C5.08141 8.03931 4.99975 8.23724 4.99963 8.44336V18.2217C4.99966 18.4278 5.08144 18.6257 5.22717 18.7715C5.37293 18.9172 5.57086 18.9989 5.77698 18.999H15.5553C15.7615 18.999 15.9593 18.9173 16.1051 18.7715C16.2509 18.6256 16.3326 18.4279 16.3326 18.2217V12.8887C16.3326 12.3365 16.7805 11.8888 17.3326 11.8887C17.8849 11.8887 18.3326 12.3364 18.3326 12.8887V18.2217C18.3326 18.9584 18.0401 19.6646 17.5192 20.1855C16.9983 20.7065 16.292 20.999 15.5553 20.999H5.77698C5.04042 20.9989 4.33394 20.7064 3.81311 20.1855C3.2923 19.6647 2.99966 18.9583 2.99963 18.2217V8.44336C2.99975 7.7068 3.29228 7.00032 3.81311 6.47949C4.33394 5.95866 5.04042 5.66613 5.77698 5.66602H11.111ZM19.9996 2.99902C20.0582 2.99904 20.1157 3.00498 20.1715 3.01465C20.1789 3.01594 20.1866 3.01612 20.194 3.01758C20.2098 3.0207 20.2253 3.02544 20.2408 3.0293C20.2578 3.03348 20.2749 3.03691 20.2916 3.04199C20.3022 3.04521 20.3125 3.04918 20.3229 3.05273C20.4036 3.0802 20.4814 3.11833 20.5543 3.16699C20.6094 3.20375 20.661 3.24534 20.7076 3.29199C20.7684 3.35281 20.8182 3.42047 20.86 3.49121C20.8989 3.55687 20.9306 3.62698 20.9537 3.70117C20.9582 3.71538 20.9617 3.72978 20.9655 3.74414C20.9869 3.82564 20.9996 3.91078 20.9996 3.99902V9.66602C20.9995 10.218 20.5517 10.6658 19.9996 10.666C19.4476 10.6658 18.9998 10.218 18.9996 9.66602V6.41406L10.9293 14.4844C10.5389 14.8745 9.90573 14.8743 9.51526 14.4844C9.12473 14.0939 9.12473 13.4599 9.51526 13.0693L17.5856 4.99902H14.3326C13.7805 4.99883 13.3326 4.55119 13.3326 3.99902C13.3326 3.44686 13.7805 2.99922 14.3326 2.99902H19.9996Z" fill="currentColor"/>
</svg>
