<svg width="24" height="24" viewBox="0 0 24 24" fill="none" xmlns="http://www.w3.org/2000/svg">
<path d="M12.2383 3C15.1742 3 17.8033 4.30674 19.5 6.3584V4.7998C19.5 4.35798 19.858 4 20.2998 4C20.7416 4 21.0996 4.35798 21.0996 4.7998V8.7998C21.0996 9.24163 20.7416 9.59961 20.2998 9.59961H16.7998C16.358 9.59961 16 9.24163 16 8.7998C16 8.35798 16.358 8 16.7998 8H18.7266C17.3837 5.96814 14.9891 4.59961 12.2383 4.59961C7.97889 4.59966 4.59961 7.86308 4.59961 11.7998C4.59961 15.7365 7.97889 18.9999 12.2383 19C15.2585 19 17.8502 17.3506 19.0908 14.9844C19.2959 14.5932 19.7796 14.4417 20.1709 14.6465C20.5621 14.8516 20.7136 15.3353 20.5088 15.7266C18.9877 18.6283 15.8444 20.5996 12.2383 20.5996C7.17677 20.5996 3 16.6996 3 11.7998C3 6.90004 7.17677 3.00005 12.2383 3Z" fill="black"/>
</svg>
