<svg width="24" height="24" viewBox="0 0 24 24" fill="none" xmlns="http://www.w3.org/2000/svg">
<path d="M12.4385 3C15.2375 3 17.7652 4.1651 19.5 6.0293V5C19.5 4.44772 19.9477 4 20.5 4C21.0523 4 21.5 4.44772 21.5 5V9C21.5 9.55228 21.0523 10 20.5 10H17C16.4477 10 16 9.55228 16 9C16 8.44772 16.4477 8 17 8H18.542C17.2041 6.19668 14.9793 5 12.4385 5C8.27935 5.00005 5 8.18366 5 12C5 15.8163 8.27935 18.9999 12.4385 19C15.3857 19 17.9088 17.3905 19.1143 15.0908C19.3707 14.602 19.9749 14.4138 20.4639 14.6699C20.9529 14.9263 21.142 15.5304 20.8857 16.0195C19.3296 18.9882 16.1178 21 12.4385 21C7.2767 20.9999 3 17.0201 3 12C3 6.97985 7.2767 3.00005 12.4385 3Z" fill="black"/>
</svg>
