<svg width="24" height="24" viewBox="0 0 24 24" fill="none" xmlns="http://www.w3.org/2000/svg">
<path d="M19.9996 2.99902C21.6565 2.99902 22.9996 4.34217 22.9996 5.99902V17.999C22.9996 19.6559 21.6565 20.999 19.9996 20.999H3.99963C2.34278 20.999 0.999634 19.6559 0.999634 17.999V5.99902C0.999634 4.34217 2.34278 2.99902 3.99963 2.99902H19.9996ZM3.99963 4.99902C3.44735 4.99902 2.99963 5.44674 2.99963 5.99902V17.999C2.99963 18.5513 3.44735 18.999 3.99963 18.999H6.99963V4.99902H3.99963ZM8.99963 18.999H19.9996C20.5519 18.999 20.9996 18.5513 20.9996 17.999V5.99902C20.9996 5.44674 20.5519 4.99902 19.9996 4.99902H8.99963V18.999ZM12.1998 8.39941C12.5312 7.95764 13.1574 7.86799 13.5992 8.19922L17.5797 11.1846C17.6121 11.2077 17.6436 11.2325 17.6735 11.2598C17.7653 11.3433 17.8367 11.442 17.8903 11.5479C17.9406 11.6469 17.9738 11.7512 17.9889 11.8574C17.9956 11.9043 17.9976 11.9516 17.9977 11.999C17.9977 12.033 17.9963 12.0668 17.9928 12.1006C17.9807 12.2202 17.9467 12.338 17.8903 12.4492C17.85 12.529 17.8001 12.6049 17.7379 12.6729C17.7276 12.6841 17.7164 12.6944 17.7057 12.7051C17.695 12.7158 17.6847 12.727 17.6735 12.7373C17.6436 12.7646 17.6121 12.7894 17.5797 12.8125L13.5992 15.7988C13.1574 16.1301 12.5312 16.0404 12.1998 15.5986C11.8686 15.1568 11.9582 14.5306 12.4 14.1992L15.3336 11.999L12.4 9.79883C11.9582 9.4675 11.8686 8.84123 12.1998 8.39941Z" fill="black"/>
</svg>
