<svg width="24" height="24" viewBox="0 0 24 24" fill="none" xmlns="http://www.w3.org/2000/svg">
<path d="M20 3.2002C21.5464 3.2002 22.7998 4.4536 22.7998 6V18C22.7998 19.5464 21.5464 20.7998 20 20.7998H4C2.4536 20.7998 1.2002 19.5464 1.2002 18V6C1.2002 4.4536 2.4536 3.2002 4 3.2002H20ZM4 4.7998C3.33726 4.7998 2.7998 5.33726 2.7998 6V18C2.7998 18.6627 3.33726 19.2002 4 19.2002H15.2002V4.7998H4ZM16.7998 19.2002H20C20.6627 19.2002 21.2002 18.6627 21.2002 18V6C21.2002 5.33726 20.6627 4.7998 20 4.7998H16.7998V19.2002ZM10.5195 8.36035C10.8728 8.09537 11.3745 8.16647 11.6396 8.51953C11.9046 8.87284 11.8335 9.37446 11.4805 9.63965L8.33301 12L11.4805 14.3604C11.8335 14.6255 11.9046 15.1272 11.6396 15.4805C11.3745 15.8335 10.8728 15.9046 10.5195 15.6396L6.51953 12.6396C6.51677 12.6376 6.51445 12.6349 6.51172 12.6328C6.49765 12.622 6.48315 12.6115 6.46973 12.5996L6.40039 12.5303C6.33967 12.4617 6.29314 12.384 6.25977 12.3018C6.23968 12.2525 6.22658 12.2016 6.2168 12.1504C6.21208 12.1258 6.20845 12.1011 6.20605 12.0762C6.20364 12.0507 6.20213 12.0255 6.20215 12C6.20213 11.9742 6.20358 11.9486 6.20605 11.9229C6.20848 11.8979 6.21205 11.8733 6.2168 11.8486C6.22664 11.7974 6.23963 11.7465 6.25977 11.6973C6.29312 11.6154 6.33987 11.5381 6.40039 11.4697L6.46973 11.4004C6.4905 11.382 6.51191 11.3646 6.53418 11.3486L10.5195 8.36035Z" fill="black"/>
</svg>
