<svg width="24" height="24" viewBox="0 0 24 24" fill="none" xmlns="http://www.w3.org/2000/svg">
<path d="M16.293 7.29192C16.6835 6.90139 17.3165 6.90139 17.707 7.29192L21.707 11.2919C21.7548 11.3397 21.7976 11.3925 21.835 11.4492C21.8597 11.4866 21.8812 11.5256 21.9004 11.5654C21.9222 11.6106 21.9412 11.6573 21.9561 11.706C21.9623 11.7263 21.9668 11.747 21.9717 11.7675C21.9893 11.8419 22 11.9192 22 11.999C22 12.0739 21.9902 12.1465 21.9746 12.2167C21.969 12.242 21.9627 12.2671 21.9551 12.2919C21.9409 12.3381 21.9237 12.3827 21.9033 12.4257C21.8822 12.4705 21.8573 12.5137 21.8291 12.5556C21.8171 12.5734 21.8041 12.5904 21.791 12.6074C21.7649 12.6412 21.738 12.675 21.707 12.706L17.707 16.706C17.3165 17.0965 16.6835 17.0965 16.293 16.706C15.9025 16.3155 15.9025 15.6825 16.293 15.2919L18.5859 12.999H3C2.44774 12.999 2.00004 12.5512 2 11.999C2 11.4467 2.44772 10.999 3 10.999H18.5859L16.293 8.70599C15.9025 8.31547 15.9025 7.68245 16.293 7.29192Z" fill="black"/>
</svg>
