<svg width="24" height="24" viewBox="0 0 24 24" fill="none" xmlns="http://www.w3.org/2000/svg">
<path fill-rule="evenodd" clip-rule="evenodd" d="M21.1144 6.49973C21.1672 6.50047 21.2191 6.50574 21.2696 6.51438C21.3107 6.52139 21.3516 6.53054 21.3917 6.5427C21.4113 6.54866 21.4303 6.5561 21.4493 6.56321C21.4591 6.56683 21.469 6.57002 21.4786 6.57395C21.4942 6.58031 21.5094 6.58735 21.5245 6.59446C21.5692 6.61538 21.6126 6.6398 21.6544 6.6677C21.692 6.69277 21.7271 6.72093 21.7609 6.75071C21.7765 6.76449 21.7928 6.77778 21.8077 6.7927C21.823 6.80798 21.8366 6.82456 21.8507 6.84055C21.8812 6.87522 21.9102 6.91126 21.9357 6.94993C22.0488 7.12156 22.1034 7.3203 22.0997 7.51829V12.8991C22.0997 13.4514 21.652 13.8991 21.0997 13.8991C20.5478 13.8987 20.0997 13.4511 20.0997 12.8991V9.91477L14.1573 15.8572C13.9699 16.0444 13.7153 16.1491 13.4503 16.1491C13.1853 16.1491 12.9308 16.0445 12.7433 15.8572L8.95031 12.0642L3.80774 17.2068C3.41726 17.5971 2.78418 17.5971 2.39367 17.2068C2.00318 16.8163 2.00325 16.1832 2.39367 15.7927L8.24328 9.94211C8.43074 9.75476 8.68528 9.65019 8.95031 9.65012C9.2153 9.65015 9.46988 9.75485 9.65735 9.94211L13.4503 13.7351L18.6866 8.49973H15.7003C15.1482 8.49952 14.7003 8.05188 14.7003 7.49973C14.7003 6.94758 15.1482 6.49994 15.7003 6.49973C15.8991 6.30107 20.8539 6.49619 21.1144 6.49973Z" fill="currentColor"/>
</svg>
