<svg width="20" height="20" viewBox="0 0 20 20" fill="none" xmlns="http://www.w3.org/2000/svg">
<rect width="20" height="20" rx="10" fill="#CCCCCC"/>
<path d="M14.1946 4.86128C14.455 4.60093 14.877 4.60093 15.1373 4.86128C15.3976 5.12163 15.3977 5.54366 15.1373 5.80399L10.942 9.99931L15.1373 14.1946C15.3976 14.455 15.3977 14.877 15.1373 15.1373C14.877 15.3977 14.455 15.3976 14.1946 15.1373L9.99931 10.942L5.80399 15.1373C5.54366 15.3977 5.12163 15.3976 4.86128 15.1373C4.60093 14.877 4.60093 14.455 4.86128 14.1946L9.0566 9.99931L4.86128 5.80399C4.60093 5.54364 4.60093 5.12163 4.86128 4.86128C5.12163 4.60093 5.54364 4.60093 5.80399 4.86128L9.99931 9.0566L14.1946 4.86128Z" fill="white"/>
</svg>
