<svg width="24" height="24" viewBox="0 0 24 24" fill="none" xmlns="http://www.w3.org/2000/svg">
<path d="M11.1564 2.5C15.8816 2.50002 19.7121 6.33053 19.7121 11.0557C19.7121 13.0578 19.0214 14.8969 17.8693 16.3545L21.3078 19.793C21.6979 20.1835 21.6982 20.8166 21.3078 21.207C20.9174 21.5974 20.2843 21.5972 19.8937 21.207L16.4553 17.7686C14.9977 18.9206 13.1585 19.6113 11.1564 19.6113C6.4313 19.6113 2.60079 15.7808 2.60077 11.0557C2.60077 6.33052 6.43129 2.5 11.1564 2.5ZM11.1564 4.5C7.53586 4.5 4.60077 7.43509 4.60077 11.0557C4.60079 14.6762 7.53587 17.6113 11.1564 17.6113C14.777 17.6113 17.7121 14.6762 17.7121 11.0557C17.7121 7.4351 14.777 4.50002 11.1564 4.5Z" fill="black"/>
</svg>
