<svg width="24" height="24" viewBox="0 0 24 24" fill="none" xmlns="http://www.w3.org/2000/svg">
<path d="M19.8125 3.00307L20.0078 3.03236L20.1973 3.089C20.382 3.15874 20.5507 3.26773 20.6914 3.40834C20.8321 3.54901 20.941 3.71778 21.0108 3.90248L21.0674 4.09193L21.0967 4.28725C21.1116 4.47857 21.0849 4.67116 21.0215 4.85365L21.0235 4.85463L15.8242 20.0529H15.8233C15.7306 20.3231 15.5575 20.5587 15.3272 20.7277C15.0969 20.8966 14.8207 20.9918 14.5352 20.9992C14.2498 21.0064 13.9681 20.9256 13.7295 20.7687C13.4912 20.6117 13.3065 20.3851 13.2002 20.1203L10.6563 13.7765C10.6261 13.7018 10.5814 13.6333 10.5244 13.5763C10.4672 13.5192 10.3983 13.4735 10.3233 13.4435H10.3223L3.97952 10.8995C3.71473 10.7932 3.48796 10.6086 3.33108 10.3703C3.17427 10.1317 3.0933 9.84999 3.10061 9.56459L3.10745 9.45814C3.13276 9.21085 3.2243 8.97406 3.3721 8.7726L3.4385 8.68861C3.60039 8.50006 3.81063 8.35757 4.0469 8.2765V8.27553L19.2451 3.07631V3.07826C19.4278 3.01467 19.621 2.98818 19.8125 3.00307ZM12.503 13.0109C12.5056 13.0172 12.5092 13.0231 12.5117 13.0294L12.5127 13.0314L14.4541 17.8751L17.9971 7.51771L12.503 13.0109ZM6.22366 9.64467L11.0674 11.587H11.0664C11.0739 11.59 11.0815 11.5938 11.0889 11.5968L16.5889 6.09779L6.22366 9.64467Z" fill="black"/>
</svg>
