<svg width="24" height="24" viewBox="0 0 24 24" fill="none" xmlns="http://www.w3.org/2000/svg">
<path d="M12.2187 4.2411C12.2188 3.43943 13.1879 3.03844 13.7548 3.60536L21.5136 11.3632C21.8651 11.7146 21.8651 12.2851 21.5136 12.6366L13.7548 20.3944C13.1879 20.9613 12.2188 20.5604 12.2187 19.7587V16.3261C8.23963 16.5837 4.92788 18.6919 3.76848 19.8681C3.21799 20.4265 2.19639 20.0635 2.22355 19.2079C2.32115 16.1355 3.93938 13.2916 5.99504 11.2255C7.83117 9.38005 10.1336 8.04255 12.2187 7.75868V4.2411ZM13.8183 8.40028C13.8181 8.88963 13.4276 9.29028 12.9364 9.30067C11.2527 9.33637 9.0086 10.4642 7.12883 12.3534C5.67894 13.8107 4.53613 15.6365 4.06047 17.5761C6.03022 16.2118 9.25012 14.7284 12.912 14.7001L13.0048 14.704C13.4607 14.7472 13.8181 15.1315 13.8183 15.5995V18.0683L19.8866 11.9999L13.8183 5.93056V8.40028Z" fill="black"/>
</svg>
