<svg width="24" height="24" viewBox="0 0 24 24" fill="none" xmlns="http://www.w3.org/2000/svg">
<path d="M12.0187 4.24087C12.0189 3.32231 13.0598 2.83399 13.7609 3.34732L13.8966 3.46353L21.6554 11.2223C22.0845 11.6518 22.0845 12.3475 21.6554 12.777L13.8966 20.5358C13.2037 21.2287 12.0189 20.7383 12.0187 19.7585V16.5417C8.19063 16.8554 5.02089 18.8828 3.91128 20.0085C3.23946 20.69 1.99065 20.248 2.02359 19.2018L2.03726 18.9079C2.22665 15.8839 3.83805 13.1085 5.85269 11.0836C7.65654 9.27062 9.92227 7.92258 12.0187 7.58267V4.24087ZM14.0187 8.40005C14.0185 8.99798 13.5407 9.48793 12.9406 9.50064C11.328 9.53497 9.13036 10.6256 7.27066 12.4948C5.96865 13.8035 4.92416 15.4061 4.39566 17.112C6.41592 15.8189 9.46981 14.5263 12.9103 14.4997C13.5206 14.4949 14.0185 14.9889 14.0187 15.5993V17.5856L19.6046 11.9997L14.0187 6.41373V8.40005Z" fill="black"/>
</svg>
