<svg width="24" height="24" viewBox="0 0 24 24" fill="none" xmlns="http://www.w3.org/2000/svg">
<path d="M14.1426 5C15.5299 5 16.8372 6.13284 16.9854 7.7959L19.7676 5.32471L19.8525 5.25521C20.0581 5.09941 20.3062 5.00148 20.5771 5L20.6924 5.0057C20.9566 5.03116 21.1961 5.14774 21.3906 5.31787C21.5546 5.46131 21.6816 5.63685 21.7754 5.82259L21.8584 6.01058L21.9209 6.20426C21.9743 6.40011 22 6.60249 22 6.80127V17.1999C21.9999 17.4723 21.9519 17.7522 21.8496 18.0122C21.7476 18.2713 21.5849 18.5258 21.3525 18.7152C21.1155 18.9082 20.8192 19.0198 20.501 18.9966C20.1844 18.9735 19.9079 18.8213 19.6973 18.6081L19.6963 18.6069L17 15.8703V15.8885C17 17.7223 15.616 19 14.1426 19H4.85742C3.38399 19 2 17.7223 2 15.8885V8.11149C2 6.27774 3.38399 5 4.85742 5H14.1426ZM4.85742 7.33333C4.27951 7.33333 4 7.79747 4 8.11149V15.8885C4 16.2025 4.27951 16.6667 4.85742 16.6667H14.1426C14.7205 16.6667 15 16.2025 15 15.8885V8.11149C15 7.79747 14.7205 7.33333 14.1426 7.33333H4.85742ZM17 10.7148V12.7782L20 15.8224V8.05111L17 10.7148Z" fill="#121212"/>
</svg>
