<svg width="24" height="24" viewBox="0 0 24 24" fill="none" xmlns="http://www.w3.org/2000/svg">
<path d="M18.6396 6.57558C19.7307 5.31618 21.7997 6.08794 21.7998 7.75427V16.2453C21.7998 17.9118 19.7307 18.6836 18.6396 17.424L17.3955 15.9875L16.7852 15.2825C16.6435 16.6961 15.451 17.8 14 17.8H5C3.4537 17.8 2.20036 16.5465 2.2002 15.0002V9.00034C2.2002 7.45397 3.4536 6.20059 5 6.20059H14C15.4506 6.20059 16.6429 7.30316 16.7852 8.71617L17.3955 8.01208L18.6396 6.57558ZM19.9512 7.55603C19.9229 7.56243 19.8875 7.57859 19.8486 7.62341L18.6045 9.05991L17.3486 10.5101C17.3174 10.5463 17.2998 10.593 17.2998 10.6409V13.3587C17.2998 13.4066 17.3174 13.4532 17.3486 13.4895L18.6045 14.9397L19.8486 16.3762C19.8875 16.4211 19.9229 16.4372 19.9512 16.4436C19.9844 16.4511 20.0269 16.449 20.0703 16.4328C20.1133 16.4167 20.1459 16.3907 20.166 16.3635C20.1831 16.3402 20.2002 16.3046 20.2002 16.2453V7.75427C20.2002 7.69498 20.1832 7.65942 20.166 7.63611C20.1458 7.60893 20.1132 7.58288 20.0703 7.56677C20.027 7.55062 19.9844 7.54854 19.9512 7.55603ZM5 7.80017C4.33726 7.80017 3.7998 8.33761 3.7998 9.00034V15.0002C3.79997 15.6628 4.33736 16.2004 5 16.2004H14C14.6626 16.2004 15.2 15.6628 15.2002 15.0002V9.00034C15.2002 8.33761 14.6627 7.80017 14 7.80017H5Z" fill="black"/>
</svg>
