<svg width="24" height="24" viewBox="0 0 24 24" fill="none" xmlns="http://www.w3.org/2000/svg">
<path d="M14.7975 11.9678C15.1015 11.9717 15.3964 12.0612 15.651 12.2236L21.0992 15.6982V15.6992C22.3308 16.4851 22.0491 18.4624 20.5914 18.7842L20.4469 18.8105L17.8668 19.166L17.8678 19.167C17.8634 19.1676 17.8503 19.1712 17.8375 19.1885L16.2526 21.3457V21.3467C15.2649 22.6899 13.3152 21.8947 13.2799 20.3691L13.1246 13.6992L13.1256 13.6982C13.1188 13.4018 13.188 13.1072 13.3287 12.8447C13.4699 12.5816 13.6787 12.3582 13.9371 12.2021C14.1959 12.0459 14.4934 11.9639 14.7975 11.9678ZM14.7643 13.5723C14.7575 13.5764 14.7466 13.5845 14.7379 13.6006C14.7335 13.6088 14.7306 13.6186 14.7281 13.6289L14.7242 13.6621L14.8795 20.332C14.8801 20.356 14.8834 20.3714 14.8864 20.3799C14.8893 20.3885 14.893 20.3943 14.8961 20.3984C14.9028 20.4072 14.9131 20.4147 14.9254 20.4189C14.9339 20.4218 14.9392 20.422 14.941 20.4219H14.942C14.9437 20.4207 14.9518 20.4144 14.9635 20.3984L16.5485 18.2412C16.8101 17.8851 17.2046 17.6437 17.6481 17.582L20.2272 17.2256L20.2438 17.2207C20.2445 17.2204 20.246 17.2195 20.2487 17.2168C20.2551 17.2102 20.2686 17.192 20.275 17.1602C20.2815 17.1281 20.2774 17.1006 20.2711 17.084C20.2668 17.0726 20.2602 17.0614 20.2389 17.0479L14.7906 13.5723C14.784 13.568 14.7792 13.5674 14.777 13.5674C14.7748 13.5674 14.7707 13.5684 14.7643 13.5723ZM12.1725 1.96875C12.3305 1.9695 12.558 1.97065 12.8346 1.97363C13.3875 1.97959 14.1403 1.99176 14.9381 2.01562C15.7348 2.03946 16.5833 2.0754 17.3248 2.12988C17.9537 2.17609 18.5584 2.2385 18.9908 2.33203L19.1656 2.37402L19.1676 2.375C19.6845 2.51646 20.156 2.79079 20.5338 3.1709C20.9114 3.55092 21.1827 4.02343 21.3209 4.54102V4.54199C21.5331 5.33924 21.6295 6.50626 21.6764 7.41699C21.7005 7.88429 21.7124 8.3059 21.7184 8.61035C21.7214 8.76245 21.7225 8.88581 21.7233 8.97168C21.7236 9.0144 21.7241 9.0482 21.7242 9.07129V9.17383C21.724 9.21524 21.7232 9.27563 21.7223 9.35156C21.7204 9.50339 21.7171 9.71915 21.7096 9.97656C21.6946 10.4898 21.6641 11.1767 21.6031 11.8564C21.5636 12.2964 21.175 12.6215 20.735 12.582C20.2949 12.5426 19.9699 12.153 20.0094 11.7129C20.0664 11.0773 20.0955 10.4256 20.11 9.92969C20.1172 9.68283 20.1209 9.47637 20.1227 9.33203C20.1236 9.25995 20.1244 9.20317 20.1246 9.16504V9.07812C20.1245 9.0574 20.124 9.02644 20.1237 8.98633C20.1229 8.90556 20.1217 8.78758 20.1188 8.6416C20.113 8.3493 20.1017 7.94519 20.0787 7.49902C20.0316 6.58324 19.939 5.57064 19.775 4.9541L19.7135 4.77246C19.6406 4.59607 19.5335 4.43507 19.3981 4.29883C19.2182 4.11791 18.9945 3.98682 18.7487 3.91895L18.4977 3.86523C18.1982 3.81327 17.7559 3.76588 17.2076 3.72559C16.499 3.67352 15.6763 3.63777 14.8903 3.61426C14.1056 3.59078 13.3633 3.57913 12.817 3.57324C12.5444 3.57031 12.3208 3.56909 12.1656 3.56836C12.088 3.56799 12.0269 3.56747 11.986 3.56738H11.8629C11.822 3.56747 11.7609 3.56799 11.6832 3.56836C11.528 3.56909 11.3045 3.57031 11.0319 3.57324C10.4856 3.57913 9.74325 3.59078 8.95862 3.61426C8.17262 3.63777 7.34984 3.67352 6.64124 3.72559C5.91014 3.77931 5.36727 3.84685 5.10022 3.91895C4.85434 3.98682 4.63067 4.11791 4.45081 4.29883C4.27015 4.4806 4.13998 4.7065 4.07385 4.9541C3.90986 5.57064 3.81731 6.58324 3.77014 7.49902C3.74716 7.94519 3.73586 8.3493 3.7301 8.6416C3.72723 8.78758 3.72593 8.90556 3.72522 8.98633C3.72487 9.02644 3.72433 9.0574 3.72424 9.07812V9.13867C3.72433 9.15937 3.72487 9.19033 3.72522 9.23047C3.72593 9.31122 3.72723 9.42927 3.7301 9.5752C3.73586 9.8675 3.74716 10.2716 3.77014 10.7178C3.81733 11.6339 3.90973 12.6472 4.07385 13.2637L4.13538 13.4443C4.20822 13.621 4.31527 13.7825 4.45081 13.9189C4.63064 14.0999 4.85436 14.2309 5.10022 14.2988L5.24963 14.333C5.64256 14.4115 6.33953 14.4787 7.19885 14.5283C8.14999 14.5833 9.21624 14.6135 10.0983 14.6299C10.5399 14.6381 10.8915 15.0027 10.8834 15.4443C10.8752 15.886 10.5106 16.2375 10.069 16.2295C9.17816 16.2129 8.08827 16.1827 7.10706 16.126C6.15682 16.0711 5.21756 15.9873 4.6842 15.8438L4.68127 15.8428C4.1643 15.7012 3.69283 15.4271 3.31506 15.0469C2.93735 14.6666 2.66609 14.1936 2.52795 13.6758V13.6748C2.31577 12.8775 2.21939 11.7105 2.17249 10.7998C2.14842 10.3326 2.13649 9.91088 2.13049 9.60645C2.1275 9.45432 2.12637 9.33096 2.12561 9.24512C2.12523 9.20229 2.12473 9.1686 2.12463 9.14551V9.07129C2.12473 9.0482 2.12523 9.0144 2.12561 8.97168C2.12637 8.88581 2.1275 8.76245 2.13049 8.61035C2.13649 8.3059 2.14842 7.88429 2.17249 7.41699C2.21939 6.50621 2.31572 5.33827 2.52795 4.54102C2.66621 4.02343 2.93746 3.55092 3.31506 3.1709C3.69284 2.79079 4.16437 2.51646 4.68127 2.375L4.68323 2.37402C5.11767 2.25674 5.80531 2.1827 6.52405 2.12988C7.26554 2.0754 8.1141 2.03946 8.91077 2.01562C9.70863 1.99176 10.4614 1.97959 11.0143 1.97363C11.2909 1.97065 11.5183 1.9695 11.6764 1.96875C11.7552 1.96838 11.8169 1.96787 11.859 1.96777H11.9899C12.032 1.96787 12.0937 1.96838 12.1725 1.96875ZM9.68127 5.74121C9.92749 5.59805 10.2315 5.59653 10.4791 5.7373L15.1832 8.41406C15.4333 8.5563 15.5885 8.82172 15.5885 9.10938C15.5885 9.39703 15.4333 9.66249 15.1832 9.80469L10.4791 12.4805C10.2315 12.6213 9.92749 12.6197 9.68127 12.4766C9.43514 12.3334 9.28395 12.0699 9.28381 11.7852V6.43262C9.28396 6.14788 9.43512 5.88438 9.68127 5.74121ZM10.8834 10.4092L13.1696 9.1084L10.8834 7.80762V10.4092Z" fill="black"/>
</svg>
