<svg width="24" height="24" viewBox="0 0 24 24" fill="none" xmlns="http://www.w3.org/2000/svg">
<path d="M14.9276 11.7725C15.2238 11.7971 15.5079 11.8954 15.7577 12.0547L15.7587 12.0537L21.2069 15.5293H21.2079C22.5806 16.4057 22.2749 18.6172 20.6376 18.9785L20.4745 19.0068L17.9628 19.3545L16.4139 21.4639C15.3019 22.9766 13.1192 22.07 13.08 20.373L12.9257 13.7031L12.9266 13.7021C12.919 13.3715 12.9949 13.0424 13.1522 12.749L13.2147 12.6406C13.3691 12.3935 13.5802 12.1834 13.8339 12.0303C14.1241 11.855 14.4579 11.7623 14.7997 11.7666L14.9276 11.7725ZM15.0692 19.9141L16.3876 18.1211L16.5038 17.9785C16.7912 17.6586 17.1838 17.4434 17.62 17.3828H17.621L19.9003 17.0674L14.9296 13.8975L15.0692 19.9141ZM12.1737 1.76758C12.3321 1.76833 12.5598 1.76948 12.8368 1.77246C13.3905 1.77842 14.1447 1.79054 14.9442 1.81445C15.7422 1.83833 16.5941 1.87393 17.3397 1.92871C17.9674 1.97484 18.5861 2.03822 19.036 2.13574L19.2177 2.17969L19.2206 2.18066C19.7712 2.33135 20.2732 2.6244 20.6757 3.0293C21.0277 3.38357 21.2935 3.8129 21.453 4.28418L21.5145 4.48828V4.48926C21.7328 5.30912 21.829 6.49613 21.8759 7.40625C21.9 7.87601 21.9128 8.29958 21.9188 8.60547C21.9218 8.75857 21.9229 8.88321 21.9237 8.96973C21.9241 9.01282 21.9246 9.047 21.9247 9.07031V9.1748C21.9244 9.21662 21.9237 9.27736 21.9227 9.35352C21.9208 9.50627 21.9166 9.72294 21.9091 9.98145C21.894 10.4969 21.8641 11.1878 21.8026 11.873C21.7533 12.423 21.2676 12.8294 20.7177 12.7803C20.1676 12.7309 19.7611 12.2444 19.8104 11.6943C19.8669 11.0641 19.8956 10.4167 19.91 9.92285C19.9172 9.6771 19.9209 9.47154 19.9227 9.32812C19.9236 9.2567 19.9245 9.20078 19.9247 9.16309V9.07812C19.9246 9.05772 19.9241 9.02709 19.9237 8.9873C19.923 8.90718 19.9217 8.7897 19.9188 8.64453C19.9131 8.35378 19.9016 7.95226 19.8788 7.50879C19.8316 6.5924 19.7399 5.59895 19.5819 5.00488L19.5292 4.84766C19.4662 4.69535 19.3736 4.55612 19.2567 4.43848C19.1015 4.28242 18.9082 4.16999 18.6962 4.11133L18.4608 4.06152C18.1752 4.01216 17.7429 3.96422 17.1932 3.92383C16.4887 3.87207 15.6693 3.83695 14.8846 3.81348C14.1016 3.79005 13.3608 3.77834 12.8153 3.77246C12.543 3.76953 12.3198 3.76831 12.1649 3.76758C12.0876 3.76721 12.027 3.76669 11.9862 3.7666H11.8632C11.8224 3.76669 11.7618 3.76721 11.6844 3.76758C11.5296 3.76831 11.3064 3.76953 11.0341 3.77246C10.4886 3.77834 9.74774 3.79005 8.96472 3.81348C8.18006 3.83695 7.36063 3.87207 6.65613 3.92383C5.9235 3.97766 5.39933 4.04488 5.1532 4.11133C4.94112 4.16999 4.74783 4.28242 4.59265 4.43848C4.43664 4.59546 4.32456 4.79106 4.26746 5.00488C4.1095 5.59895 4.01778 6.5924 3.97058 7.50879C3.94774 7.95226 3.93627 8.35378 3.93054 8.64453C3.92768 8.7897 3.92637 8.90718 3.92566 8.9873C3.92531 9.02709 3.92477 9.05772 3.92468 9.07812V9.13672C3.92477 9.15719 3.92531 9.18846 3.92566 9.22852C3.92637 9.30862 3.92769 9.42543 3.93054 9.57031C3.93627 9.86104 3.94775 10.2626 3.97058 10.7061C4.0178 11.6228 4.10938 12.617 4.26746 13.2109L4.32019 13.3672C4.3831 13.5198 4.47559 13.6595 4.59265 13.7773C4.74823 13.9339 4.94238 14.0459 5.15515 14.1045C5.4796 14.1912 6.2271 14.2713 7.21082 14.3281C8.15825 14.3829 9.22147 14.4123 10.1024 14.4287C10.6546 14.439 11.0941 14.8951 11.0839 15.4473C11.0736 15.9994 10.6174 16.4389 10.0653 16.4287C9.17332 16.4121 8.08061 16.3811 7.09558 16.3242C6.1495 16.2695 5.18944 16.186 4.63269 16.0361L4.62878 16.0352C4.07808 15.8844 3.57612 15.5916 3.17371 15.1865C2.77128 14.7814 2.48196 14.2773 2.33484 13.7256C2.11663 12.9058 2.02039 11.7196 1.97351 10.8096C1.94931 10.3396 1.93657 9.91535 1.93054 9.60938C1.92753 9.45658 1.92642 9.33256 1.92566 9.24609C1.92528 9.20302 1.92478 9.16889 1.92468 9.14551V9.07031C1.92478 9.047 1.92528 9.01282 1.92566 8.96973C1.92642 8.88321 1.92753 8.75857 1.93054 8.60547C1.93657 8.29958 1.94932 7.87601 1.97351 7.40625C2.02038 6.49613 2.11659 5.30912 2.33484 4.48926V4.48828C2.48212 3.937 2.77152 3.43408 3.17371 3.0293C3.57612 2.6244 4.07817 2.33135 4.62878 2.18066L4.63171 2.17969C5.0871 2.05675 5.79245 1.98141 6.50964 1.92871C7.25524 1.87393 8.10715 1.83833 8.90515 1.81445C9.70465 1.79054 10.4589 1.77842 11.0126 1.77246C11.2896 1.76948 11.5173 1.76833 11.6757 1.76758C11.7547 1.76721 11.817 1.7667 11.8593 1.7666H11.9901C12.0324 1.7667 12.0946 1.76721 12.1737 1.76758ZM14.7323 13.6602H14.7333L14.7635 13.6133V13.6123L14.7323 13.6602ZM9.58093 5.56738C9.88866 5.38843 10.2685 5.38661 10.578 5.5625L15.2831 8.23926C15.5955 8.41709 15.788 8.74894 15.788 9.1084C15.7879 9.46784 15.5954 9.79974 15.2831 9.97754L10.578 12.6533C10.2685 12.8292 9.88866 12.8274 9.58093 12.6484C9.27323 12.4694 9.084 12.1401 9.08386 11.7842V6.43164C9.08401 6.07567 9.27321 5.74636 9.58093 5.56738ZM11.0839 10.0645L12.7655 9.10742L11.0839 8.15039V10.0645Z" fill="black"/>
</svg>
