<svg width="24" height="24" viewBox="0 0 24 24" fill="none" xmlns="http://www.w3.org/2000/svg">
<path d="M11.1709 1.99902C11.9664 1.99919 12.7295 2.31539 13.292 2.87793L21.002 10.5879C21.6413 11.2274 22.001 12.0947 22.001 12.999C22.001 13.9033 21.6413 14.7707 21.002 15.4102L15.4102 21.002C14.7707 21.6413 13.9033 22.001 12.999 22.001C12.0947 22.001 11.2274 21.6413 10.5879 21.002L2.87793 13.292C2.31539 12.7295 1.99919 11.9664 1.99902 11.1709V5.99902C1.99902 4.93816 2.42075 3.92104 3.1709 3.1709C3.92104 2.42075 4.93816 1.99902 5.99902 1.99902H11.1709ZM5.99902 3.99902C5.46859 3.99902 4.96003 4.20989 4.58496 4.58496C4.20989 4.96003 3.99902 5.46859 3.99902 5.99902V11.1709L4.00391 11.2695C4.02666 11.4985 4.12786 11.7138 4.29199 11.8779L12.002 19.5879L12.1055 19.6816C12.3564 19.8872 12.6719 20.001 12.999 20.001C13.3729 20.001 13.7317 19.8523 13.9961 19.5879L19.5879 13.9961L19.6816 13.8926C19.8872 13.6417 20.001 13.3262 20.001 12.999C20.001 12.6719 19.8872 12.3564 19.6816 12.1055L19.5879 12.002L11.8779 4.29199C11.7138 4.12786 11.4985 4.02666 11.2695 4.00391L11.1709 3.99902H5.99902ZM7.49902 5.49902C8.02946 5.49902 8.53801 5.70989 8.91309 6.08496C9.28816 6.46003 9.49902 6.96859 9.49902 7.49902C9.49902 8.02946 9.28816 8.53801 8.91309 8.91309C8.53801 9.28816 8.02946 9.49902 7.49902 9.49902C6.96859 9.49902 6.46003 9.28816 6.08496 8.91309C5.70989 8.53801 5.49902 8.02946 5.49902 7.49902C5.49902 6.96859 5.70989 6.46003 6.08496 6.08496C6.46003 5.70989 6.96859 5.49902 7.49902 5.49902Z" fill="black"/>
</svg>
