<svg width="24" height="24" viewBox="0 0 24 24" fill="none" xmlns="http://www.w3.org/2000/svg">
<path d="M11.1709 2.19922C11.9134 2.19938 12.6254 2.49449 13.1504 3.01953L20.8604 10.7295C21.4622 11.3315 21.8008 12.1478 21.8008 12.999C21.8008 13.8503 21.4622 14.6666 20.8604 15.2686L15.2686 20.8604C14.6666 21.4622 13.8503 21.8008 12.999 21.8008C12.1478 21.8008 11.3315 21.4622 10.7295 20.8604L3.01953 13.1504C2.49449 12.6254 2.19938 11.9134 2.19922 11.1709V5.99902C2.19922 4.9912 2.59986 4.02514 3.3125 3.3125C4.02514 2.59986 4.9912 2.19922 5.99902 2.19922H11.1709ZM5.99902 3.79883C5.41555 3.79883 4.85594 4.03078 4.44336 4.44336C4.03078 4.85594 3.79883 5.41555 3.79883 5.99902V11.1709L3.80469 11.2891C3.83194 11.5639 3.95337 11.8226 4.15039 12.0195L11.8604 19.7295C12.1623 20.0314 12.5721 20.2012 12.999 20.2012C13.426 20.2012 13.8358 20.0314 14.1377 19.7295L19.7295 14.1377C20.0314 13.8358 20.2012 13.426 20.2012 12.999C20.2012 12.5721 20.0314 12.1623 19.7295 11.8604L12.0195 4.15039C11.8226 3.95337 11.5639 3.83194 11.2891 3.80469L11.1709 3.79883H5.99902ZM7.49902 5.69922C7.97641 5.69922 8.43392 5.889 8.77148 6.22656C9.10905 6.56413 9.29883 7.02163 9.29883 7.49902C9.29883 7.97641 9.10905 8.43392 8.77148 8.77148C8.43392 9.10905 7.97641 9.29883 7.49902 9.29883C7.02163 9.29883 6.56413 9.10905 6.22656 8.77148C5.889 8.43392 5.69922 7.97641 5.69922 7.49902C5.69922 7.02163 5.889 6.56413 6.22656 6.22656C6.56413 5.889 7.02163 5.69922 7.49902 5.69922Z" fill="black"/>
</svg>
