<svg width="24" height="24" viewBox="0 0 24 24" fill="none" xmlns="http://www.w3.org/2000/svg">
<path d="M12 2C14.7614 2 17 4.23858 17 7C17 7.55228 16.5523 8 16 8C15.4477 8 15 7.55228 15 7C15 5.34315 13.6569 4 12 4C10.3431 4 9 5.34315 9 7V10H17C18.6569 10 20 11.3431 20 13V19C20 20.6569 18.6569 22 17 22H7C5.34315 22 4 20.6569 4 19V13C4 11.3431 5.34315 10 7 10V7C7 4.23858 9.23858 2 12 2ZM12 14C10.8954 14 10 14.8954 10 16C10 17.1046 10.8954 18 12 18C13.1046 18 14 17.1046 14 16C14 14.8954 13.1046 14 12 14Z" fill="black"/>
</svg>
