<svg width="24" height="24" viewBox="0 0 24 24" fill="none" xmlns="http://www.w3.org/2000/svg">
<path d="M15.9995 13.999C18.7609 13.999 20.9995 16.2375 20.9995 18.999V19.999C20.9995 20.5513 20.5518 20.999 19.9995 20.999C19.4472 20.999 18.9995 20.5513 18.9995 19.999V18.999C18.9995 17.3422 17.6564 15.999 15.9995 15.999H7.99951C6.34266 15.999 4.99951 17.3422 4.99951 18.999V19.999C4.99951 20.5513 4.5518 20.999 3.99951 20.999C3.44723 20.999 2.99951 20.5513 2.99951 19.999V18.999C2.99951 16.2376 5.23809 13.999 7.99951 13.999H15.9995ZM11.9995 2.99902C14.7609 2.99902 16.9995 5.2376 16.9995 7.99902C16.9995 10.7604 14.7609 12.999 11.9995 12.999C9.23809 12.999 6.99951 10.7604 6.99951 7.99902C6.99951 5.2376 9.23809 2.99902 11.9995 2.99902ZM11.9995 4.99902C10.3427 4.99902 8.99951 6.34217 8.99951 7.99902C8.99951 9.65588 10.3427 10.999 11.9995 10.999C13.6564 10.999 14.9995 9.65588 14.9995 7.99902C14.9995 6.34217 13.6564 4.99902 11.9995 4.99902Z" fill="currentColor"/>
</svg>
