<svg width="24" height="24" viewBox="0 0 24 24" fill="none" xmlns="http://www.w3.org/2000/svg">
<path d="M11.5709 13.999C12.7365 13.999 13.8605 14.4494 14.693 15.2588C15.5261 16.069 15.9995 17.1739 15.9996 18.332V19.999C15.9996 20.5513 15.5519 20.999 14.9996 20.999C14.4473 20.999 13.9996 20.5513 13.9996 19.999V18.332C13.9995 17.7226 13.7508 17.1322 13.2985 16.6924C12.845 16.2516 12.224 15.999 11.5709 15.999H6.42834C5.7753 15.999 5.15423 16.2516 4.70081 16.6924C4.24848 17.1322 3.99972 17.7226 3.99963 18.332V19.999C3.99963 20.5513 3.55192 20.999 2.99963 20.999C2.44735 20.999 1.99963 20.5513 1.99963 19.999V18.332C1.99972 17.1739 2.47315 16.069 3.30627 15.2588C4.13882 14.4494 5.26276 13.999 6.42834 13.999H11.5709ZM17.0231 14.7842C17.1417 14.2448 17.6751 13.9038 18.2145 14.0225C19.2558 14.2515 20.2062 14.7737 20.901 15.5371C21.5988 16.3039 21.9987 17.2733 21.9996 18.2949V19.999C21.9996 20.5513 21.5519 20.999 20.9996 20.999C20.4473 20.999 19.9996 20.5513 19.9996 19.999V18.2959C19.9991 17.8078 19.8095 17.3102 19.4215 16.8838C19.0303 16.454 18.4597 16.124 17.7848 15.9756C17.2454 15.8569 16.9044 15.3236 17.0231 14.7842ZM9.00061 2.99902C11.7618 2.99929 14.0006 5.23776 14.0006 7.99902C14.0006 10.7603 11.7618 12.9988 9.00061 12.999C6.23919 12.999 4.00061 10.7604 4.00061 7.99902C4.00061 5.2376 6.23919 2.99902 9.00061 2.99902ZM15.0309 3.88086C15.1679 3.34584 15.7127 3.02317 16.2477 3.16016C17.3232 3.43553 18.2769 4.06147 18.9576 4.93848C19.6382 5.8154 20.0074 6.89389 20.0074 8.00391C20.0074 9.11392 19.6382 10.1924 18.9576 11.0693C18.2769 11.9463 17.3232 12.5723 16.2477 12.8477C15.7127 12.9846 15.1679 12.662 15.0309 12.127C14.8939 11.5919 15.2166 11.0471 15.7516 10.9102C16.3969 10.7449 16.9691 10.3699 17.3776 9.84375C17.786 9.31754 18.0074 8.67003 18.0074 8.00391C18.0074 7.33778 17.786 6.69027 17.3776 6.16406C16.9691 5.6379 16.3969 5.26287 15.7516 5.09766C15.2166 4.96066 14.8939 4.41588 15.0309 3.88086ZM9.00061 4.99902C7.34376 4.99902 6.00061 6.34217 6.00061 7.99902C6.00061 9.65588 7.34376 10.999 9.00061 10.999C10.6572 10.9988 12.0006 9.65571 12.0006 7.99902C12.0006 6.34233 10.6572 4.99929 9.00061 4.99902Z" fill="currentColor"/>
</svg>
