<svg width="24" height="24" viewBox="0 0 24 24" fill="none" xmlns="http://www.w3.org/2000/svg">
<path d="M16 14.2002C18.6509 14.2002 20.7998 16.349 20.7998 19V20C20.7998 20.4418 20.4418 20.7998 20 20.7998C19.5582 20.7998 19.2002 20.4418 19.2002 20V19C19.2002 17.2327 17.7674 15.7998 16 15.7998H8C6.23269 15.7998 4.7998 17.2327 4.7998 19V20C4.7998 20.4418 4.44183 20.7998 4 20.7998C3.55817 20.7998 3.2002 20.4418 3.2002 20V19C3.2002 16.349 5.34903 14.2002 8 14.2002H16ZM12 3.2002C14.651 3.2002 16.7998 5.34903 16.7998 8C16.7998 10.651 14.651 12.7998 12 12.7998C9.34903 12.7998 7.2002 10.651 7.2002 8C7.2002 5.34903 9.34903 3.2002 12 3.2002ZM12 4.7998C10.2327 4.7998 8.7998 6.23269 8.7998 8C8.7998 9.76731 10.2327 11.2002 12 11.2002C13.7673 11.2002 15.2002 9.76731 15.2002 8C15.2002 6.23269 13.7673 4.7998 12 4.7998Z" fill="currentColor"/>
</svg>
