<svg width="24" height="24" viewBox="0 0 24 24" fill="none" xmlns="http://www.w3.org/2000/svg">
<path d="M12 14.2002C14.0987 14.2002 15.7998 15.9013 15.7998 18V20C15.7998 20.4418 15.4418 20.7998 15 20.7998C14.5582 20.7998 14.2002 20.4418 14.2002 20V18C14.2002 16.785 13.215 15.7998 12 15.7998H6C4.78497 15.7998 3.7998 16.785 3.7998 18V20C3.7998 20.4418 3.44183 20.7998 3 20.7998C2.55817 20.7998 2.2002 20.4418 2.2002 20V18C2.2002 15.9013 3.90132 14.2002 6 14.2002H12ZM18 14.2002C20.0986 14.2003 21.7998 15.9014 21.7998 18V20C21.7998 20.4418 21.4417 20.7997 21 20.7998C20.5582 20.7998 20.2002 20.4418 20.2002 20V18C20.2002 16.785 19.2149 15.7999 18 15.7998H17.5C17.0582 15.7998 16.7002 15.4418 16.7002 15C16.7002 14.5582 17.0582 14.2002 17.5 14.2002H18ZM9 3.2002C11.651 3.2002 13.7998 5.34903 13.7998 8C13.7998 10.651 11.651 12.7998 9 12.7998C6.34903 12.7998 4.2002 10.651 4.2002 8C4.2002 5.34903 6.34903 3.2002 9 3.2002ZM15 3.2002C17.651 3.2002 19.7998 5.34903 19.7998 8C19.7998 10.651 17.651 12.7998 15 12.7998C14.5582 12.7998 14.2002 12.4418 14.2002 12C14.2002 11.5582 14.5582 11.2002 15 11.2002C16.7673 11.2002 18.2002 9.76731 18.2002 8C18.2002 6.23269 16.7673 4.7998 15 4.7998C14.5582 4.7998 14.2002 4.44183 14.2002 4C14.2002 3.55817 14.5582 3.2002 15 3.2002ZM9 4.7998C7.23269 4.7998 5.7998 6.23269 5.7998 8C5.7998 9.76731 7.23269 11.2002 9 11.2002C10.7673 11.2002 12.2002 9.76731 12.2002 8C12.2002 6.23269 10.7673 4.7998 9 4.7998Z" fill="black"/>
</svg>
