<svg width="24" height="24" viewBox="0 0 24 24" fill="none" xmlns="http://www.w3.org/2000/svg">
<path d="M18.2501 13.8496C20.5697 13.8496 22.4503 15.7302 22.4503 18.0498C22.4503 20.3694 20.5697 22.25 18.2501 22.25C15.9305 22.25 14.0499 20.3694 14.0499 18.0498C14.0499 15.7302 15.9305 13.8497 18.2501 13.8496ZM18.2501 15.25C16.7037 15.25 15.4503 16.5034 15.4503 18.0498C15.4503 19.5962 16.7037 20.8496 18.2501 20.8496C19.7965 20.8496 21.0499 19.5962 21.0499 18.0498C21.0499 16.5034 19.7965 15.25 18.2501 15.25ZM11.7501 3.75C16.5259 3.75017 20.3016 6.91902 21.9005 11.2744C22.0525 11.689 21.8403 12.1484 21.4259 12.3008C21.0111 12.453 20.5508 12.2399 20.3985 11.8252C18.9894 7.98703 15.7421 5.34978 11.7501 5.34961C7.85418 5.34964 4.66718 7.86139 3.20613 11.5498C4.66718 15.2382 7.85418 17.75 11.7501 17.75C12.1917 17.7502 12.5499 18.1081 12.5499 18.5498C12.5499 18.9915 12.1917 19.3494 11.7501 19.3496C6.97407 19.3496 3.1976 16.1807 1.5987 11.8252C1.5335 11.6474 1.5335 11.4522 1.5987 11.2744C3.1976 6.91891 6.97407 3.75004 11.7501 3.75ZM18.2501 15.8994C18.6091 15.8994 18.9005 16.1908 18.9005 16.5498V17.6494L19.5401 17.9688C19.8608 18.1289 19.9916 18.5179 19.8321 18.8389C19.6721 19.1601 19.2813 19.2917 18.96 19.1318L17.961 18.6328C17.9405 18.6226 17.9224 18.6087 17.9034 18.5967C17.8956 18.5917 17.8875 18.5873 17.88 18.582C17.8537 18.5637 17.8295 18.5439 17.8067 18.5225C17.7978 18.5141 17.7888 18.5059 17.7804 18.4971C17.7608 18.4764 17.7432 18.4545 17.7266 18.4316C17.7178 18.4195 17.7093 18.4073 17.7013 18.3945C17.69 18.3765 17.6804 18.3578 17.671 18.3389C17.6603 18.3175 17.65 18.2961 17.6417 18.2734C17.6358 18.2574 17.6316 18.241 17.627 18.2246C17.6205 18.2015 17.6144 18.1784 17.6104 18.1543C17.6075 18.1365 17.606 18.1186 17.6046 18.1006C17.6032 18.0834 17.5997 18.0663 17.5997 18.0488V16.5498C17.5997 16.1908 17.8911 15.8995 18.2501 15.8994ZM11.7501 7.75C12.7579 7.75 13.724 8.15067 14.4366 8.86328C15.1492 9.57592 15.5499 10.542 15.5499 11.5498C15.5499 12.5576 15.1492 13.5237 14.4366 14.2363C13.724 14.9489 12.7579 15.3496 11.7501 15.3496C10.7423 15.3496 9.77617 14.9489 9.06355 14.2363C8.35094 13.5237 7.95027 12.5576 7.95027 11.5498C7.95027 10.542 8.35094 9.57592 9.06355 8.86328C9.77617 8.15066 10.7423 7.75002 11.7501 7.75ZM11.7501 9.34961C11.1666 9.34963 10.607 9.58158 10.1944 9.99414C9.78186 10.4067 9.54988 10.9663 9.54988 11.5498C9.54988 12.1333 9.78186 12.6929 10.1944 13.1055C10.607 13.518 11.1666 13.75 11.7501 13.75C12.3335 13.75 12.8932 13.518 13.3057 13.1055C13.7183 12.6929 13.9503 12.1333 13.9503 11.5498C13.9503 10.9663 13.7183 10.4067 13.3057 9.99414C12.8932 9.58159 12.3335 9.34961 11.7501 9.34961Z" fill="black"/>
</svg>
