<svg width="24" height="24" viewBox="0 0 24 24" fill="none" xmlns="http://www.w3.org/2000/svg">
<path d="M18.2752 13.7256C20.6776 13.7257 22.6249 15.6728 22.6249 18.0752C22.6249 20.4775 20.6776 22.4247 18.2752 22.4248C15.8728 22.4248 13.9256 20.4776 13.9256 18.0752C13.9256 15.6728 15.8728 13.7256 18.2752 13.7256ZM18.2752 15.4248C16.8117 15.4248 15.6249 16.6116 15.6249 18.0752C15.6249 19.5387 16.8117 20.7256 18.2752 20.7256C19.7387 20.7254 20.9256 19.5387 20.9256 18.0752C20.9256 16.6117 19.7387 15.4249 18.2752 15.4248ZM11.7752 3.5752C16.6489 3.57549 20.4905 6.81064 22.1131 11.2305C22.3034 11.7488 22.0376 12.3233 21.5194 12.5137C21.001 12.704 20.4266 12.4382 20.2362 11.9199C18.8509 8.14629 15.6692 5.57549 11.7752 5.5752C8.00066 5.5752 4.89497 7.99032 3.44614 11.5752C4.89497 15.1601 8.00066 17.5752 11.7752 17.5752C12.3272 17.5756 12.7752 18.0231 12.7752 18.5752C12.7752 19.1273 12.3272 19.5748 11.7752 19.5752C6.90133 19.5752 3.05907 16.3399 1.43638 11.9199C1.3547 11.6974 1.3547 11.453 1.43638 11.2305C3.05907 6.81045 6.90133 3.5752 11.7752 3.5752ZM18.2752 15.875C18.6617 15.8751 18.9754 16.1887 18.9754 16.5752V17.6436L19.5877 17.9482C19.9335 18.1207 20.0735 18.5418 19.9012 18.8877C19.7286 19.2334 19.3086 19.3735 18.9627 19.2012L17.9627 18.7031C17.9431 18.6933 17.9263 18.6793 17.9081 18.668C17.8956 18.6602 17.8829 18.653 17.8709 18.6445C17.8447 18.6259 17.8207 18.6056 17.7977 18.584C17.7881 18.575 17.7785 18.5662 17.7694 18.5566C17.7477 18.5337 17.728 18.5097 17.7098 18.4844C17.7011 18.4725 17.6923 18.4607 17.6844 18.4482C17.6702 18.4255 17.6578 18.402 17.6463 18.3779C17.6369 18.3585 17.6286 18.3387 17.6209 18.3184C17.6144 18.3007 17.6094 18.2828 17.6043 18.2646C17.5969 18.2384 17.5902 18.212 17.5858 18.1846C17.5829 18.1664 17.5813 18.1483 17.5799 18.1299C17.5785 18.1114 17.575 18.093 17.575 18.0742V16.5752C17.575 16.1886 17.8886 15.875 18.2752 15.875ZM11.7752 7.5752C12.836 7.57527 13.8533 7.99699 14.6034 8.74707C15.3534 9.4972 15.7752 10.5144 15.7752 11.5752C15.7752 12.636 15.3534 13.6532 14.6034 14.4033C13.8533 15.1534 12.836 15.5751 11.7752 15.5752C10.7144 15.5752 9.69725 15.1534 8.94712 14.4033C8.19697 13.6532 7.77524 12.6361 7.77524 11.5752C7.77524 10.5143 8.19697 9.49722 8.94712 8.74707C9.69725 7.99701 10.7144 7.5752 11.7752 7.5752ZM11.7752 9.5752C11.2449 9.5752 10.7362 9.78614 10.3612 10.1611C9.98611 10.5362 9.77524 11.0448 9.77524 11.5752C9.77524 12.1056 9.98611 12.6142 10.3612 12.9893C10.7362 13.3642 11.2449 13.5752 11.7752 13.5752C12.3056 13.5751 12.8143 13.3643 13.1893 12.9893C13.5643 12.6142 13.7752 12.1056 13.7752 11.5752C13.7752 11.0448 13.5643 10.5362 13.1893 10.1611C12.8143 9.78612 12.3056 9.57527 11.7752 9.5752Z" fill="black"/>
</svg>
