<svg viewBox="0 0 24 24" fill="none" xmlns="http://www.w3.org/2000/svg">
<path d="M19.2927 3.29192C19.6832 2.90139 20.3162 2.90139 20.7067 3.29192C21.0972 3.68245 21.0972 4.31548 20.7067 4.70598L13.4138 11.999L20.7067 19.2919C21.0972 19.6825 21.0972 20.3155 20.7067 20.706C20.3162 21.0965 19.6832 21.0965 19.2927 20.706L11.9997 13.413L4.70671 20.706C4.31622 21.0965 3.68318 21.0965 3.29265 20.706C2.90212 20.3155 2.90212 19.6825 3.29265 19.2919L10.5856 11.999L3.29265 4.70598C2.90212 4.31546 2.90212 3.68244 3.29265 3.29192C3.68318 2.90139 4.31619 2.90139 4.70671 3.29192L11.9997 10.5849L19.2927 3.29192Z" fill="black"/>
</svg>
