<svg width="16" height="16" viewBox="0 0 16 16" fill="none" xmlns="http://www.w3.org/2000/svg">
<path d="M14.691 4.56593C14.5276 3.95 14.0559 3.46887 13.452 3.3022C12.3656 3 7.99292 3 7.99292 3C7.99292 3 3.62028 3.00916 2.53386 3.31136C1.92995 3.47802 1.45821 3.95916 1.29479 4.57509C0.966173 6.54396 0.838676 9.54396 1.30377 11.4341C1.46719 12.05 1.93893 12.5311 2.54284 12.6978C3.62926 13 8.0019 13 8.0019 13C8.0019 13 12.3745 13 13.461 12.6978C14.0649 12.5311 14.5366 12.05 14.7 11.4341C15.0466 9.46245 15.1534 6.46429 14.691 4.56593Z" fill="#FF0000"/>
<path d="M6.53711 10.1431L10.1229 8.00028L6.53711 5.85742V10.1431Z" fill="white"/>
</svg>
