<svg width="20" height="20" viewBox="0 0 20 20" fill="none" xmlns="http://www.w3.org/2000/svg">
<g opacity="0.6">
<path d="M18.3638 5.70742C18.1595 4.93751 17.5699 4.33608 16.815 4.12775C15.4569 3.75 9.99115 3.75 9.99115 3.75C9.99115 3.75 4.52535 3.76145 3.16732 4.13919C2.41244 4.34753 1.82276 4.94895 1.61849 5.71886C1.20772 8.17994 1.04834 11.9299 1.62972 14.2926C1.83398 15.0625 2.42366 15.6639 3.17855 15.8723C4.53658 16.25 10.0024 16.25 10.0024 16.25C10.0024 16.25 15.4682 16.25 16.8262 15.8723C17.5811 15.6639 18.1708 15.0625 18.375 14.2926C18.8082 11.8281 18.9418 8.08036 18.3638 5.70742Z" fill="#FF0000"/>
<path d="M8.17139 12.6789L12.6536 10.0003L8.17139 7.32178V12.6789Z" fill="white"/>
</g>
</svg>
