<svg width="24" height="24" viewBox="0 0 24 24" fill="none" xmlns="http://www.w3.org/2000/svg">
<path d="M11.3595 2.60128C11.7597 2.17023 12.3467 2.10601 12.8038 2.31807C13.2515 2.52616 13.5721 2.99251 13.5519 3.55148L13.5431 3.66476L12.8995 9.17065H19.5255C20.0946 9.17076 20.5088 9.53397 20.6877 9.94214C20.8655 10.3483 20.8479 10.8728 20.5197 11.2937L12.7179 21.3074V21.3084C12.3189 21.8189 11.6854 21.9087 11.1974 21.6825C10.719 21.4603 10.3863 20.9429 10.4591 20.3338L11.1017 14.8289H4.47563C3.90632 14.8288 3.49131 14.4658 3.31253 14.0574C3.1348 13.6509 3.15144 13.1248 3.4805 12.7039H3.48148L11.2823 2.6921L11.3595 2.60128ZM5.09966 13.2293H11.463C12.2842 13.2293 12.813 13.9729 12.7276 14.6931L12.1788 19.3953L18.8996 10.7713H12.5372C11.716 10.7711 11.187 10.0267 11.2726 9.3064L11.8214 4.60129L5.09966 13.2293Z" fill="black"/>
</svg>
